<svg version="1.1" xmlns="http://www.w3.org/2000/svg" viewBox="0 0 984.471979777018 716.2162087180398" width="2953.415939331054" height="2148.6486261541195">
  <!-- svg-source:excalidraw -->
  
  <defs>
    <style class="style-fonts">
      @font-face {
        font-family: "Virgil";
        src: url("https://excalidraw.com/Virgil.woff2");
      }
      @font-face {
        font-family: "Cascadia";
        src: url("https://excalidraw.com/Cascadia.woff2");
      }
    </style>
    
  </defs>
  <rect x="0" y="0" width="984.471979777018" height="716.2162087180398" fill="#ffffff"></rect><g stroke-linecap="round" transform="translate(14.315185546875 105.89501120827435) rotate(0 65.29300574100375 62.10065899473244)"><path d="M-0.86 1.46 C43.21 0.09, 82.22 0.15, 132.21 0.28 M0.93 -0.04 C32.83 0.04, 65.93 0.53, 130.46 -0.79 M128.86 -0.83 C131.12 40.78, 133.28 78.97, 129.21 124.4 M130.06 0.22 C128.93 33.64, 129.2 66.46, 129.63 124.4 M131.71 122.87 C78.32 123.87, 28.22 126.46, -1.14 123.66 M129.65 124.9 C78.83 124.99, 28.76 125.61, -0.51 124.76 M1.08 125.44 C1.39 78.03, 2.18 30.16, -0.84 -0.02 M0.61 124.69 C0.2 93.44, -0.44 61.41, -0.35 0.07" stroke="#1e1e1e" stroke-width="4" fill="none"></path></g><g transform="translate(69.9761951330936 150.49567020300674) rotate(0 9.631996154785156 17.5)"><text x="9.631996154785156" y="0" font-family="Virgil, Segoe UI Emoji" font-size="28px" fill="#1e1e1e" text-anchor="middle" style="white-space: pre;" direction="ltr" dominant-baseline="text-before-edge">0</text></g><g stroke-linecap="round" transform="translate(15.018014618844745 231.29837498520374) rotate(0 65.29300574100375 62.1006589947325)"><path d="M0.5 -0.09 C42.7 0.12, 87.1 2.55, 131.9 -0.1 M-0.89 0.3 C50.35 -0.11, 100.1 1.12, 130.27 0.56 M129.53 0.52 C131.42 47.61, 131.93 97.84, 130.68 122.35 M131.29 -1 C131.25 36.62, 130.82 70.88, 130.31 124.02 M131 124.48 C97.11 124.73, 65.19 122.86, 1.69 124.35 M130.97 123.27 C80.34 124.39, 29.86 124.24, -0.92 123.39 M0.58 123.98 C-2.17 85.4, -2 43.36, -1.84 1.19 M-0.55 124.89 C0.41 90.18, 1.56 56.44, 0.61 0.01" stroke="#1e1e1e" stroke-width="4" fill="none"></path></g><g transform="translate(76.51702164158678 275.8990339799361) rotate(0 3.7939987182617188 17.5)"><text x="3.7939987182617188" y="0" font-family="Virgil, Segoe UI Emoji" font-size="28px" fill="#1e1e1e" text-anchor="middle" style="white-space: pre;" direction="ltr" dominant-baseline="text-before-edge">1</text></g><g stroke-linecap="round" transform="translate(13.88072620738626 354.68561345880676) rotate(0 65.29300574100375 62.100658994732385)"><path d="M0.56 1.43 C47.14 1.64, 90.82 -0.23, 132.51 -1.11 M-0.29 -0.46 C43.69 -1.32, 86.9 -0.94, 130.22 0.99 M129.33 -0.08 C130.37 32.72, 132.24 61.53, 129.31 124.63 M131.46 0.66 C130.17 46.34, 129.91 93.11, 130.99 124.26 M128.91 122.34 C89.52 122.04, 46.8 121.55, 0.7 124.74 M130.58 124.2 C79.44 122.97, 26.9 123.49, 0.86 124.76 M1.23 124.51 C1.91 74.65, 0.97 24.79, -1.24 1.86 M-0.72 124.28 C-1.08 91.03, -0.53 56.42, 0.66 -0.46" stroke="#1e1e1e" stroke-width="4" fill="none"></path></g><g transform="translate(69.20573725844861 399.28627245353914) rotate(0 9.967994689941406 17.5)"><text x="9.967994689941406" y="0" font-family="Virgil, Segoe UI Emoji" font-size="28px" fill="#1e1e1e" text-anchor="middle" style="white-space: pre;" direction="ltr" dominant-baseline="text-before-edge">2</text></g><g stroke-linecap="round" transform="translate(10 582.014890728575) rotate(0 65.29300574100375 62.100658994732385)"><path d="M-1.26 -1.62 C34.65 0.07, 68.11 -1.8, 130 -0.59 M0.76 -0.14 C35.54 -0.42, 71.89 -1.2, 130.98 0.03 M130.61 -1.36 C133.11 28.29, 130.31 54.45, 132.01 125.41 M130.82 0.31 C131.58 37.66, 130.8 74.26, 129.76 124.96 M132.14 122.3 C84.55 122.78, 37.15 122.9, -1.95 122.56 M129.91 124.14 C102.58 125.76, 76.4 124.99, 0.21 124.14 M0.76 124.9 C0.51 89.98, 0.11 55.84, -1.64 -1.74 M-0.37 123.27 C1.05 95.45, 1.88 68.38, -0.98 0.67" stroke="#1e1e1e" stroke-width="4" fill="none"></path></g><g transform="translate(42.36501959598422 626.6155497233074) rotate(0 32.92798614501953 17.5)"><text x="32.92798614501953" y="0" font-family="Virgil, Segoe UI Emoji" font-size="28px" fill="#1e1e1e" text-anchor="middle" style="white-space: pre;" direction="ltr" dominant-baseline="text-before-edge">1023</text></g><g stroke-linecap="round" transform="translate(232.65523274739576 104.80752193566536) rotate(0 275.6083170572916 62.302329323508445)"><path d="M-0.7 -0.58 C147.75 1.28, 296.36 1.07, 551.34 -0.44 M0.27 -0.2 C219.41 2.43, 438.61 1.86, 551.4 -0.37 M552.16 0.19 C553.88 27.43, 552.73 53.76, 551.65 125.58 M551.53 0.45 C551.17 36.21, 551.67 74.31, 551.28 124.6 M550.85 125.24 C367.55 126.87, 184.13 125.85, 0.35 125.23 M551.24 124.24 C336.39 122.61, 121.26 122.04, 0 124.61 M0.17 124.29 C2.58 75.85, -0.4 31.34, 1.29 -0.23 M-0.74 125.46 C1.56 93.53, 0.44 60.93, 0.03 0.73" stroke="#1e1e1e" stroke-width="4" fill="none"></path></g><g transform="translate(447.99356842041 149.60985125917387) rotate(0 60.269981384277315 17.5)"><text x="60.269981384277344" y="0" font-family="Virgil, Segoe UI Emoji" font-size="28px" fill="#1e1e1e" text-anchor="middle" style="white-space: pre;" direction="ltr" dominant-baseline="text-before-edge">256 bits</text></g><g stroke-linecap="round" transform="translate(232.99194335937483 232.61717362837362) rotate(0 275.60831705729163 62.30232932350839)"><path d="M-0.1 -0.78 C122.24 -0.68, 246.82 -1.49, 550.89 0.23 M0.14 -0.29 C210.86 1, 421.15 1.02, 551.31 -0.36 M551.04 1.8 C550.5 41.75, 551.6 84.97, 552.53 126.11 M551.65 -0.13 C552.5 25.88, 552.3 53.43, 550.79 123.75 M550.93 123.9 C354.57 123.67, 157.02 124.87, -0.76 124.28 M551.56 124.42 C343.44 126.41, 135.22 126, -0.02 124.53 M0.66 124.41 C1.34 93.57, 0.79 61.43, -1.97 0.15 M-0.69 125.05 C-1.4 93.83, -1.52 62.97, -0.6 -0.81" stroke="#1e1e1e" stroke-width="4" fill="none"></path></g><g stroke-linecap="round" transform="translate(233.66120309540702 358.36517796371913) rotate(0 275.6083170572916 62.3023293235085)"><path d="M0.74 -0.07 C169.11 -0.37, 336.39 0.27, 550.78 0.7 M-0.12 -0.1 C123.79 -1.22, 247.68 -1.32, 550.83 -0.33 M552.38 -0.4 C551.48 28.43, 550.02 60.72, 553.19 125.19 M550.47 -0.99 C550.54 37.64, 551.03 74.8, 550.94 124.32 M551.47 124.01 C399.81 124.9, 249.38 125.25, 0.69 125.37 M551.3 124.92 C387.09 124.86, 221.97 124.87, -0.2 124.83 M-1.14 123.54 C-1.2 80.17, -0.97 39.18, 1.33 1.6 M0.1 124.51 C-0.71 79.12, -0.06 34.15, -0.14 -0.21" stroke="#1e1e1e" stroke-width="4" fill="none"></path></g><g stroke-linecap="round" transform="translate(231.34667598839957 576.0441034490409) rotate(0 275.60831705729163 62.30232932350839)"><path d="M-0.04 0.64 C136.42 1.65, 272.25 1.61, 551.27 0.08 M0.34 -0.23 C160.05 1.12, 320.08 1.51, 550.83 0.23 M553.01 0.15 C551.07 31.91, 552.59 60.16, 550.27 126 M551.69 -0.27 C552.38 38.42, 551.58 76.46, 551.7 123.87 M551.59 125.01 C388.41 125.3, 224.36 125.6, -0.55 123.89 M551.37 124.88 C434.29 123.16, 318.05 123.82, -0.06 124.72 M1.05 125.14 C-1.77 78.04, -0.72 31.6, -0.9 -0.43 M-0.73 125.28 C2.07 89.69, 0.62 55.95, 0.36 -0.81" stroke="#1e1e1e" stroke-width="4" fill="none"></path></g><g stroke-linecap="round"><g transform="translate(159.42987615411926 170.57188554243612) rotate(0 33.18895316411823 -0.7856374726648596)"><path d="M-1.39 -1.78 C19.96 -2.33, 42.41 0.32, 67.76 -1.81 M-0.15 0.28 C16.01 -0.62, 29.54 -0.09, 66.64 -0.89" stroke="#1e1e1e" stroke-width="4" fill="none"></path></g><g transform="translate(159.42987615411926 170.57188554243612) rotate(0 33.18895316411823 -0.7856374726648596)"><path d="M37.23 8.03 C46.02 4.23, 55.91 3.37, 68.03 -2.7 M38.47 10.09 C45.84 7.09, 50.59 5.17, 66.91 -1.78" stroke="#1e1e1e" stroke-width="4" fill="none"></path></g><g transform="translate(159.42987615411926 170.57188554243612) rotate(0 33.18895316411823 -0.7856374726648596)"><path d="M36.91 -12.49 C45.81 -9.58, 55.81 -3.71, 68.03 -2.7 M38.15 -10.42 C45.58 -8.73, 50.4 -5.95, 66.91 -1.78" stroke="#1e1e1e" stroke-width="4" fill="none"></path></g></g><mask></mask><g stroke-linecap="round"><g transform="translate(161.87165231415713 289.3385314941406) rotate(0 31.077377838886946 -0.09377521835267544)"><path d="M1.4 -1.23 C15.65 0.04, 31.38 -0.66, 62.43 1.04 M-0.28 0.03 C11.86 0.85, 24.24 0.45, 61.03 -0.26" stroke="#1e1e1e" stroke-width="4" fill="none"></path></g><g transform="translate(161.87165231415713 289.3385314941406) rotate(0 31.077377838886946 -0.09377521835267544)"><path d="M34.44 9.32 C40.57 7.99, 48.2 4.66, 62.09 0.78 M32.77 10.58 C38.22 8.99, 43.89 6.42, 60.69 -0.53" stroke="#1e1e1e" stroke-width="4" fill="none"></path></g><g transform="translate(161.87165231415713 289.3385314941406) rotate(0 31.077377838886946 -0.09377521835267544)"><path d="M34.04 -11.19 C40.28 -7.54, 48 -5.89, 62.09 0.78 M32.37 -9.94 C37.87 -7.41, 43.61 -5.85, 60.69 -0.53" stroke="#1e1e1e" stroke-width="4" fill="none"></path></g></g><mask></mask><g stroke-linecap="round"><g transform="translate(162.82805471709275 418.6490931655421) rotate(0 30.84424530764136 0.4198520169593394)"><path d="M-1.57 1.25 C23.14 -1.44, 49.71 1.6, 62.43 0.99 M0.96 0.12 C14.89 0.88, 31.05 0.38, 63.26 -0.41" stroke="#1e1e1e" stroke-width="4" fill="none"></path></g><g transform="translate(162.82805471709275 418.6490931655421) rotate(0 30.84424530764136 0.4198520169593394)"><path d="M33.75 11.78 C44.88 4.7, 57.91 3.55, 62.41 0.58 M36.28 10.65 C41.65 8.56, 49.13 5.38, 63.24 -0.82" stroke="#1e1e1e" stroke-width="4" fill="none"></path></g><g transform="translate(162.82805471709275 418.6490931655421) rotate(0 30.84424530764136 0.4198520169593394)"><path d="M33.26 -8.73 C44.65 -7.95, 57.88 -1.24, 62.41 0.58 M35.78 -9.86 C41.1 -6.92, 48.71 -5.08, 63.24 -0.82" stroke="#1e1e1e" stroke-width="4" fill="none"></path></g></g><mask></mask><g stroke-linecap="round"><g transform="translate(159.23650568181813 644.2562080152106) rotate(0 32.56707255849898 0.10638369304319895)"><path d="M0.13 1.38 C23.13 2.31, 42.71 -1.21, 63.38 -1.32 M-0.78 0.63 C23.4 -0.24, 46.82 -1.12, 65.92 -0.04" stroke="#1e1e1e" stroke-width="4" fill="none"></path></g><g transform="translate(159.23650568181813 644.2562080152106) rotate(0 32.56707255849898 0.10638369304319895)"><path d="M37.59 10.83 C48.32 8.3, 55.63 1.6, 64.22 -1.36 M36.67 10.08 C47.88 5.97, 58.4 1.75, 66.76 -0.08" stroke="#1e1e1e" stroke-width="4" fill="none"></path></g><g transform="translate(159.23650568181813 644.2562080152106) rotate(0 32.56707255849898 0.10638369304319895)"><path d="M38.15 -9.69 C48.71 -5.35, 55.84 -5.18, 64.22 -1.36 M37.23 -10.44 C48.38 -7.3, 58.7 -4.3, 66.76 -0.08" stroke="#1e1e1e" stroke-width="4" fill="none"></path></g></g><mask></mask><g stroke-linecap="round"><g transform="translate(593.5458466500946 165.73910337505924) rotate(0 87.45318964377714 -0.04784860648214817)"><path d="M-1.02 1.11 C42.08 -0.25, 80.21 -0.67, 175.92 -1.2 M0.74 0.56 C41.53 0.02, 81.52 -0.79, 174.91 -0.92" stroke="#1e1e1e" stroke-width="4" fill="none"></path></g><g transform="translate(593.5458466500946 165.73910337505924) rotate(0 87.45318964377714 -0.04784860648214817)"><path d="M145.74 10.55 C155.24 6.97, 159.68 4.18, 175.36 -2.12 M147.5 10.01 C154.08 7.62, 159.79 4.39, 174.35 -1.84" stroke="#1e1e1e" stroke-width="4" fill="none"></path></g><g transform="translate(593.5458466500946 165.73910337505924) rotate(0 87.45318964377714 -0.04784860648214817)"><path d="M145.67 -9.97 C154.99 -8.86, 159.45 -6.95, 175.36 -2.12 M147.42 -10.51 C153.88 -8.13, 159.6 -6.58, 174.35 -1.84" stroke="#1e1e1e" stroke-width="4" fill="none"></path></g></g><mask></mask><g stroke-linecap="round"><g transform="translate(433.09302127722515 167.77758511629975) rotate(0 -89.32270353238061 -0.5653342064470053)"><path d="M-0.85 -1.51 C-50.94 0.35, -100.1 0.24, -178.68 0.38 M0.04 0.32 C-69.02 -0.82, -138.09 -0.49, -177.92 0.36" stroke="#1e1e1e" stroke-width="4" fill="none"></path></g><g transform="translate(433.09302127722515 167.77758511629975) rotate(0 -89.32270353238061 -0.5653342064470053)"><path d="M-150.73 -11.8 C-158.04 -5.81, -164.52 -2.87, -179.27 0.74 M-149.84 -9.97 C-161.1 -6.46, -172.37 -2.01, -178.51 0.72" stroke="#1e1e1e" stroke-width="4" fill="none"></path></g><g transform="translate(433.09302127722515 167.77758511629975) rotate(0 -89.32270353238061 -0.5653342064470053)"><path d="M-150.44 8.71 C-158.01 8.84, -164.58 5.91, -179.27 0.74 M-149.56 10.55 C-160.94 6.12, -172.33 2.62, -178.51 0.72" stroke="#1e1e1e" stroke-width="4" fill="none"></path></g></g><mask></mask><g stroke-linecap="round" transform="translate(395.1139877781724 518.2343315355706) rotate(0 14.19677734375 14.19677734375)"><path d="M17.35 0.66 C20.1 0.85, 22.57 2.61, 24.36 4.84 C26.15 7.06, 28.1 10.89, 28.1 14.01 C28.09 17.13, 26.18 21.36, 24.33 23.56 C22.48 25.76, 19.71 26.82, 17 27.19 C14.28 27.57, 10.68 27.26, 8.04 25.81 C5.39 24.36, 2.44 21.28, 1.15 18.47 C-0.15 15.65, -0.84 11.68, 0.28 8.91 C1.4 6.14, 4.71 3.3, 7.88 1.85 C11.06 0.39, 17.34 0.23, 19.32 0.17 C21.31 0.11, 20.07 1.11, 19.8 1.49 M19.46 1.81 C22.18 2.97, 24.96 5.61, 26.58 8.41 C28.2 11.21, 29.65 15.88, 29.17 18.63 C28.68 21.38, 26.42 23.04, 23.68 24.91 C20.94 26.78, 16.04 29.85, 12.72 29.87 C9.4 29.88, 5.96 27.53, 3.75 25.01 C1.53 22.48, -0.2 17.66, -0.56 14.74 C-0.93 11.83, 0.07 9.76, 1.55 7.51 C3.04 5.27, 5.13 2.47, 8.33 1.28 C11.52 0.09, 18.75 0.36, 20.74 0.35 C22.72 0.33, 20.49 0.61, 20.25 1.19" stroke="#1e1e1e" stroke-width="4" fill="none"></path></g><g stroke-linecap="round" transform="translate(461.6008781664299 518.4281643954191) rotate(0 14.19677734375 14.19677734375)"><path d="M11.48 -0.15 C14.2 -0.93, 18.37 0.64, 21.02 2.28 C23.66 3.92, 26.12 6.75, 27.34 9.66 C28.56 12.58, 29.24 17.05, 28.35 19.78 C27.47 22.5, 24.86 24.46, 22.03 26.03 C19.2 27.6, 14.55 29.6, 11.35 29.21 C8.16 28.82, 4.84 26.32, 2.87 23.71 C0.9 21.09, -0.44 16.5, -0.46 13.52 C-0.49 10.55, 0.67 8.03, 2.74 5.85 C4.82 3.67, 9.9 1.45, 12 0.44 C14.09 -0.56, 15.06 -0.33, 15.33 -0.17 M14.5 -0.71 C16.91 -0.3, 20.64 2.33, 22.9 4.62 C25.16 6.91, 27.33 10, 28.05 13.02 C28.77 16.04, 29.07 20.4, 27.22 22.74 C25.38 25.08, 20.1 26.41, 16.99 27.07 C13.88 27.74, 11.15 28.09, 8.56 26.74 C5.97 25.39, 2.84 21.65, 1.45 18.96 C0.05 16.28, -0.62 13.52, 0.19 10.62 C1 7.72, 3.67 3.53, 6.3 1.58 C8.93 -0.37, 14.53 -0.67, 15.97 -1.06 C17.4 -1.44, 15 -0.96, 14.89 -0.73" stroke="#1e1e1e" stroke-width="4" fill="none"></path></g><g stroke-linecap="round" transform="translate(531.5153549656721 518.4281643954191) rotate(0 14.19677734375 14.19677734375)"><path d="M14.81 -0.1 C17.86 -0.14, 21.58 2.04, 23.98 4.11 C26.37 6.18, 28.82 9.56, 29.18 12.33 C29.53 15.1, 27.66 18.3, 26.12 20.73 C24.58 23.17, 22.73 25.89, 19.95 26.94 C17.17 27.99, 12.6 28.06, 9.43 27.04 C6.25 26.01, 2.34 23.54, 0.91 20.81 C-0.53 18.07, 0.03 13.43, 0.8 10.64 C1.57 7.85, 2.76 5.67, 5.54 4.07 C8.31 2.47, 14.87 1.34, 17.46 1.05 C20.05 0.76, 20.9 2.37, 21.08 2.34 M9.62 0.59 C12.39 -0.1, 16.04 1.36, 18.89 2.3 C21.74 3.25, 25.33 3.81, 26.74 6.27 C28.14 8.73, 27.92 13.91, 27.32 17.06 C26.72 20.22, 25.48 23.35, 23.13 25.19 C20.77 27.02, 16.14 28.05, 13.18 28.06 C10.22 28.08, 7.68 27.08, 5.37 25.26 C3.06 23.45, 0.1 20.27, -0.68 17.15 C-1.45 14.02, -0.74 9.26, 0.73 6.52 C2.21 3.78, 6.93 1.77, 8.18 0.72 C9.42 -0.32, 7.7 -0.27, 8.2 0.22" stroke="#1e1e1e" stroke-width="4" fill="none"></path></g><g transform="translate(825.5680338541664 381.50970921371913) rotate(0 74.45197296142578 17.5)"><text x="0" y="0" font-family="Virgil, Segoe UI Emoji" font-size="28px" fill="#1e1e1e" text-anchor="start" style="white-space: pre;" direction="ltr" dominant-baseline="text-before-edge">1024 items</text></g><g stroke-linecap="round"><g transform="translate(894.8769679214014 355.5140038692589) rotate(0 -0.13195728844249288 -126.92334429692238)"><path d="M-1.07 -0.63 C0.97 -65.24, 1.51 -127.44, -0.28 -252.61 M-0.5 -0.13 C-0.95 -58.3, -1.05 -115.52, -0.3 -253.71" stroke="#1e1e1e" stroke-width="4" fill="none"></path></g><g transform="translate(894.8769679214014 355.5140038692589) rotate(0 -0.13195728844249288 -126.92334429692238)"><path d="M8.52 -226.25 C7.54 -234.13, 5.65 -238.95, -0.65 -252.22 M9.22 -225.64 C7 -232.42, 4.57 -238.12, -0.66 -253.58" stroke="#1e1e1e" stroke-width="4" fill="none"></path></g><g transform="translate(894.8769679214014 355.5140038692589) rotate(0 -0.13195728844249288 -126.92334429692238)"><path d="M-12 -226.34 C-7.8 -234.05, -4.52 -238.84, -0.65 -252.22 M-11.3 -225.73 C-8.84 -232.65, -6.6 -238.32, -0.66 -253.58" stroke="#1e1e1e" stroke-width="4" fill="none"></path></g></g><mask></mask><g stroke-linecap="round"><g transform="translate(895.9197443181816 429.63653102065587) rotate(0 0.22199857963261138 134.72341565960676)"><path d="M-0.17 -0.99 C1.57 83.05, 1.24 167.23, 0.1 270.44 M-0.3 -0.39 C-0.85 88.18, -0.54 174.74, -0.23 270.35" stroke="#1e1e1e" stroke-width="4" fill="none"></path></g><g transform="translate(895.9197443181816 429.63653102065587) rotate(0 0.22199857963261138 134.72341565960676)"><path d="M-10.8 240.92 C-6.14 250.46, -3.39 260.23, -0.11 269.63 M-10.96 241.7 C-8.01 252.06, -4.26 259.75, -0.53 269.52" stroke="#1e1e1e" stroke-width="4" fill="none"></path></g><g transform="translate(895.9197443181816 429.63653102065587) rotate(0 0.22199857963261138 134.72341565960676)"><path d="M9.72 240.86 C8.07 250.51, 4.51 260.3, -0.11 269.63 M9.56 241.64 C5.88 251.84, 2.98 259.54, -0.53 269.52" stroke="#1e1e1e" stroke-width="4" fill="none"></path></g></g><mask></mask><g transform="translate(419.5325816761364 10) rotate(0 50.92198944091797 22.5)"><text x="0" y="0" font-family="Virgil, Segoe UI Emoji" font-size="36px" fill="#1e1e1e" text-anchor="start" style="white-space: pre;" direction="ltr" dominant-baseline="text-before-edge">Stack</text></g></svg>