<svg version="1.1" xmlns="http://www.w3.org/2000/svg" viewBox="0 0 813.0883102151882 247.15278428648497" width="813.0883102151882" height="247.15278428648497">
  <!-- svg-source:excalidraw -->
  <rect x="0" y="0" width="100%" height="100%" fill="white" />

  <defs>
    <style>
      @font-face {
        font-family: "Virgil";
        src: url("https://excalidraw.com/Virgil.woff2");
      }
      @font-face {
        font-family: "Cascadia";
        src: url("https://excalidraw.com/Cascadia.woff2");
      }
    </style>
  </defs> 
  <g stroke-opacity="0.9" fill-opacity="0.9" stroke-linecap="round" transform="translate(10 149.0144770844571) rotate(0 65.62635509977355 32.503619271114275)"><path d="M3.14 -2.42 C51.15 -2.02, 96.6 -0.18, 132.99 -1.07 M0.89 1.28 C27.14 -1.74, 59.69 0.06, 131.57 0.81 M128.38 -1.02 C130.59 26.78, 132.05 47.42, 131.68 65.48 M129.6 1.37 C130.33 23.4, 132.52 46.08, 132.24 63.59 M130.81 67.3 C82.19 63.8, 31.39 60.62, -1.28 62.44 M133.08 64.21 C82.99 64.54, 36.38 65.21, -1.15 64.17 M-2.2 65.85 C-3.28 44.89, -0.63 25.21, 3.35 -0.48 M-0.78 63.58 C0.36 49.94, -1.29 37.21, -1.25 1.52" stroke="#000000" stroke-width="1" fill="none"></path></g><g stroke-opacity="0.9" fill-opacity="0.9" transform="translate(45.12635509977349 169.0180963555714) rotate(0 30.5 12.5)"><text x="30.5" y="18" font-family="Virgil, Segoe UI Emoji" font-size="20px" fill="#000000" text-anchor="middle" style="white-space: pre;" direction="ltr">State</text></g><g stroke-opacity="0.9" fill-opacity="0.9" stroke-linecap="round" transform="translate(329.46414369323736 108.15278428648492) rotate(0 87 64.50000000000003)"><path d="M-2.44 -1.28 C61.77 -1.18, 124.73 -3.18, 177.66 -1.59 M0.1 -1.15 C35.95 3.38, 75.04 2.77, 172.9 0.42 M173.78 3.35 C173.31 27.74, 172.57 64.89, 172.45 126.15 M174.12 -1.25 C174.09 39.7, 172.51 77.94, 172.12 129.37 M174.29 128.53 C117.68 124.89, 56.23 126.44, -0.84 131.56 M174.67 130.94 C119.88 126.07, 65.85 127.04, -1.15 128.68 M1.58 125.47 C-5.65 88.48, -2.2 54.27, -3.34 3.69 M-0.04 128.27 C0.66 87.96, -0.17 50.33, 0.51 1.9" stroke="#000000" stroke-width="1" fill="none"></path></g><g stroke-opacity="0.9" fill-opacity="0.9" transform="translate(351.96414369323736 135.15278428648492) rotate(0 64.5 37.5)"><text x="64.5" y="18" font-family="Virgil, Segoe UI Emoji" font-size="20px" fill="#000000" text-anchor="middle" style="white-space: pre;" direction="ltr">Transaction </text><text x="64.5" y="43" font-family="Virgil, Segoe UI Emoji" font-size="20px" fill="#000000" text-anchor="middle" style="white-space: pre;" direction="ltr">transition </text><text x="64.5" y="68" font-family="Virgil, Segoe UI Emoji" font-size="20px" fill="#000000" text-anchor="middle" style="white-space: pre;" direction="ltr">function</text></g><g stroke-opacity="0.9" fill-opacity="0.9" stroke-linecap="round" transform="translate(671.835600015641 144.99021946041438) rotate(0 65.6263550997736 32.503619271114275)"><path d="M2.61 -1.99 C33 -0.36, 72.17 -1.26, 133.48 -2.08 M0.63 0.31 C47.43 1.86, 95.91 0.09, 132.26 -0.25 M133.38 0.87 C129.65 21.84, 128.89 42.95, 127.3 64.73 M132.03 0.62 C131.57 14.03, 131.71 30.38, 131.88 65.29 M129.49 63.88 C103.57 67.39, 66.29 64.1, 3.35 65.41 M132.67 63.51 C102.1 63.45, 76.66 63.87, 1.05 65.34 M-1.93 66.6 C2.89 54.55, 3.47 39.57, 2.64 1.95 M-1.4 64.63 C-1.27 40.8, 0.34 17.93, -0.74 0.73" stroke="#000000" stroke-width="1" fill="none"></path></g><g stroke-opacity="0.9" fill-opacity="0.9" transform="translate(683.9619551154145 164.99383873152863) rotate(0 53.5 12.5)"><text x="53.5" y="18" font-family="Virgil, Segoe UI Emoji" font-size="20px" fill="#000000" text-anchor="middle" style="white-space: pre;" direction="ltr">New State</text></g><g stroke-linecap="round"><g stroke-opacity="0.9" fill-opacity="0.9" transform="translate(142.2527101995471 181.4432508732499) rotate(0 90.09469430513388 0.8219160271150656)"><path d="M-1.37 2.66 C29.18 3.54, 150.64 3.13, 181.56 3.07 M3.09 1.64 C33.35 1.83, 148.89 -2.14, 178.94 -1.5" stroke="#000000" stroke-width="1" fill="none"></path></g><g stroke-opacity="0.9" fill-opacity="0.9" transform="translate(142.2527101995471 181.4432508732499) rotate(0 90.09469430513388 0.8219160271150656)"><path d="M154.65 8.02 C158.87 9.48, 164.48 2.74, 181.83 0.66 M151.98 9.7 C161.12 4.09, 173.46 0.88, 178.47 -1.93" stroke="#000000" stroke-width="1" fill="none"></path></g><g stroke-opacity="0.9" fill-opacity="0.9" transform="translate(142.2527101995471 181.4432508732499) rotate(0 90.09469430513388 0.8219160271150656)"><path d="M154.45 -12.5 C158.4 -6.14, 164.06 -7.99, 181.83 0.66 M151.78 -10.82 C160.96 -8.37, 173.38 -3.53, 178.47 -1.93" stroke="#000000" stroke-width="1" fill="none"></path></g></g><g stroke-opacity="0.9" fill-opacity="0.9" transform="translate(172.82765463434362 140.01447708445704) rotate(0 60 12.5)"><text x="0" y="18" font-family="Virgil, Segoe UI Emoji" font-size="20px" fill="#000000" text-anchor="start" style="white-space: pre;" direction="ltr">Transaction</text></g><g stroke-linecap="round"><g stroke-opacity="0.9" fill-opacity="0.9" transform="translate(505.29324603602697 177.49383873152863) rotate(0 81.71102910417841 0.7685639758547893)"><path d="M2.23 0.98 C29.59 1.35, 136.56 3.29, 163.42 3.04 M0 -0.95 C27.16 -1.51, 134.8 -1.71, 161.84 -1.33" stroke="#000000" stroke-width="1" fill="none"></path></g><g stroke-opacity="0.9" fill-opacity="0.9" transform="translate(505.29324603602697 177.49383873152863) rotate(0 81.71102910417841 0.7685639758547893)"><path d="M135.01 10.54 C143 7.27, 145.72 5.67, 159.79 -2.99 M134.28 9.22 C142.17 7.19, 152.38 3.73, 163.49 -1.25" stroke="#000000" stroke-width="1" fill="none"></path></g><g stroke-opacity="0.9" fill-opacity="0.9" transform="translate(505.29324603602697 177.49383873152863) rotate(0 81.71102910417841 0.7685639758547893)"><path d="M135.1 -9.98 C143.18 -7.61, 145.88 -3.57, 159.79 -2.99 M134.37 -11.3 C142.11 -6.3, 152.29 -2.73, 163.49 -1.25" stroke="#000000" stroke-width="1" fill="none"></path></g></g><g stroke-opacity="0.9" fill-opacity="0.9" transform="translate(570.9196011358005 136.29977773918688) rotate(0 23.5 12.5)"><text x="0" y="18" font-family="Virgil, Segoe UI Emoji" font-size="20px" fill="#000000" text-anchor="start" style="white-space: pre;" direction="ltr">Valid</text></g><g stroke-linecap="round"><g stroke-opacity="0.9" fill-opacity="0.9" transform="translate(547.3931719490892 172.54090627116835) rotate(0 1.2331670199693008 -63.648338664991826)"><path d="M-1.13 -0.32 C-1.11 -21.04, -1.93 -105.76, -1.65 -126.98 M3.46 -2.96 C4.49 -22.97, 4.31 -103.06, 3.52 -123.38" stroke="#000000" stroke-width="1" fill="none"></path></g></g><g stroke-linecap="round"><g stroke-opacity="0.9" fill-opacity="0.9" transform="translate(547.3931719490892 42.526429186711255) rotate(0 -240.74841111445062 -1.1357925068716668)"><path d="M0.16 0.07 C-79.88 0.22, -399.91 0.58, -480.65 0.81 M-3.2 -2.36 C-83.37 -2.97, -401.06 -3.04, -481.66 -3.08" stroke="#000000" stroke-width="1" fill="none"></path></g></g><g stroke-linecap="round"><g stroke-opacity="0.9" fill-opacity="0.9" transform="translate(60.76755771869273 39.43084639898615) rotate(0 -0.30367317202853883 48.00897432020204)"><path d="M0.46 0.46 C-0.32 16.07, -3.16 78.58, -2.88 94.79 M-2.74 -1.77 C-2.82 14.12, 1.53 81.97, 2.29 97.78" stroke="#000000" stroke-width="1" fill="none"></path></g><g stroke-opacity="0.9" fill-opacity="0.9" transform="translate(60.76755771869273 39.43084639898615) rotate(0 -0.30367317202853883 48.00897432020204)"><path d="M-8.89 66.99 C-6.69 84.18, 1.8 89.53, 5.61 101.04 M-10.49 69.67 C-5.19 75.88, -5.77 83.1, 2.37 98.03" stroke="#000000" stroke-width="1" fill="none"></path></g><g stroke-opacity="0.9" fill-opacity="0.9" transform="translate(60.76755771869273 39.43084639898615) rotate(0 -0.30367317202853883 48.00897432020204)"><path d="M11.6 65.83 C6.35 83.51, 7.37 89.29, 5.61 101.04 M9.99 68.51 C10.37 74.75, 4.86 82.25, 2.37 98.03" stroke="#000000" stroke-width="1" fill="none"></path></g></g><g stroke-opacity="0.9" fill-opacity="0.9" transform="translate(268.171604496279 10) rotate(0 33.5 12.5)"><text x="0" y="18" font-family="Virgil, Segoe UI Emoji" font-size="20px" fill="#000000" text-anchor="start" style="white-space: pre;" direction="ltr">Invalid</text></g></svg>