<svg version="1.1" xmlns="http://www.w3.org/2000/svg" viewBox="0 0 759.3627775068153 449.99274941316537" width="759.3627775068153" height="449.99274941316537">
  <!-- svg-source:excalidraw -->
  <rect x="0" y="0" width="100%" height="100%" fill="white" />
  <defs>
    <style>
      @font-face {
        font-family: "Virgil";
        src: url("https://excalidraw.com/Virgil.woff2");
      }
      @font-face {
        font-family: "Cascadia";
        src: url("https://excalidraw.com/Cascadia.woff2");
      }
    </style>
  </defs>
  <g stroke-opacity="0.9" fill-opacity="0.9" stroke-linecap="round" transform="translate(13.060497243399368 47.49109123164237) rotate(0 84.16367419348288 51.645890982364506)"><path d="M-3.58 1.42 C63.19 0.79, 128.6 1.44, 165.35 -1.44 M1.75 1.51 C56 -1.73, 112.95 -1.6, 170.24 0.06 M171.13 -2.18 C168.52 24.71, 168.17 41.9, 172.17 101.34 M167.35 0.62 C170.23 24.64, 168.13 49.95, 168.6 104.59 M165.53 100.91 C113.97 105.13, 56.49 108.15, 0.36 105.84 M169.74 103.96 C108.71 105.94, 48.48 104.35, -1.94 103.94 M-3.55 104.8 C3.83 67.97, 1.42 33.36, 2.78 3.48 M-0.2 102.05 C0.3 81.84, -1.5 58.19, 0.31 -0.51" stroke="#000000" stroke-width="1" fill="none"></path></g><g stroke-opacity="0.9" fill-opacity="0.9" stroke-linecap="round" transform="translate(10 152.31312181807107) rotate(0 87.22417143688224 31.752658900268557)"><path d="M0.21 1.3 C57.54 1.58, 117.22 4.47, 174.93 1.06 M0.07 -0.81 C37 -1.95, 73.28 -2.04, 176.02 -1.66 M176.21 -1.14 C171.86 11.39, 177.65 26.42, 174.24 62.58 M172.56 -0.99 C173.63 20.37, 173.25 42.26, 174.49 63.57 M171.13 60.87 C124.29 61.48, 75.22 62.25, -0.52 62.75 M173.3 63.93 C118.37 60.7, 63.11 61.43, -1.75 65.39 M-2.86 60.9 C1.63 42.31, 1.28 13.88, -1.82 -1.37 M1.73 63.19 C-2.47 47.69, -0.81 30.32, 0.03 -1.35" stroke="#000000" stroke-width="1" fill="none"></path></g><g stroke-opacity="0.9" fill-opacity="0.9" stroke-linecap="round" transform="translate(10.765124310849785 217.7312503957328) rotate(0 87.22417143688227 31.752658900268557)"><path d="M-2.67 1.85 C50.76 1.76, 105.71 -0.83, 171.32 1.13 M1.72 -1.36 C58.08 0.86, 118.47 3.12, 175.57 -0.58 M170.76 -3.52 C176.95 10.52, 171.91 22.07, 174.33 62.23 M175.84 -0.85 C174.35 12.17, 174.62 28.4, 172.67 65.1 M173.37 60.1 C119.78 65.09, 70.42 58.77, 2.61 62.38 M174.42 64.68 C124.89 62.36, 72.38 61.55, 1.37 63.2 M1.82 61.23 C3.4 41.29, -1.79 18.35, 0.57 3.2 M-0.96 63.07 C-2.16 47.06, -1.1 32.65, -0.62 1.38" stroke="#000000" stroke-width="1" fill="none"></path></g><g stroke-opacity="0.9" fill-opacity="0.9" transform="translate(56.489295747732 239.48390929600134) rotate(0 41.5 10)"><text x="41.5" y="14" font-family="Virgil, Segoe UI Emoji" font-size="16px" fill="#000000" text-anchor="middle" style="white-space: pre;" direction="ltr">Ommer list</text></g><g stroke-opacity="0.9" fill-opacity="0.9" transform="translate(32.22417143688227 174.06578071833962) rotate(0 65 10)"><text x="65" y="14" font-family="Virgil, Segoe UI Emoji" font-size="16px" fill="#000000" text-anchor="middle" style="white-space: pre;" direction="ltr">Transaction list</text></g><g stroke-opacity="0.9" fill-opacity="0.9" transform="translate(45.72417143688227 79.13698221400688) rotate(0 51.5 20)"><text x="51.5" y="14" font-family="Virgil, Segoe UI Emoji" font-size="16px" fill="#000000" text-anchor="middle" style="white-space: pre;" direction="ltr">Block header</text><text x="51.5" y="34" font-family="Virgil, Segoe UI Emoji" font-size="16px" fill="#000000" text-anchor="middle" style="white-space: pre;" direction="ltr">Ht = 0xffaa</text></g><g stroke-opacity="0.9" fill-opacity="0.9" stroke-linecap="round" transform="translate(405.56926870936974 10) rotate(0 37.87365338706729 28.69216165686916)"><path d="M51.14 2.72 C57.62 4.05, 64.37 8.28, 68.27 13.05 C72.16 17.83, 74.46 26, 74.52 31.37 C74.58 36.74, 73.17 40.78, 68.62 45.26 C64.07 49.73, 54.19 56.75, 47.22 58.24 C40.26 59.72, 33.7 56.11, 26.83 54.17 C19.95 52.23, 10.29 50.86, 5.98 46.61 C1.66 42.36, 0.59 34.55, 0.94 28.69 C1.3 22.82, 3.92 16.34, 8.08 11.44 C12.25 6.54, 17.03 -0.3, 25.94 -0.72 C34.86 -1.15, 54.31 6.46, 61.59 8.89 C68.86 11.32, 69.51 13.58, 69.59 13.85 M13.95 4.66 C19.13 0.82, 27.33 0.91, 34.6 0.74 C41.86 0.57, 50.98 0.17, 57.53 3.66 C64.09 7.14, 71.25 16.24, 73.92 21.64 C76.59 27.04, 75.58 30.82, 73.56 36.03 C71.53 41.25, 68.13 49.55, 61.77 52.95 C55.41 56.36, 43.41 56.24, 35.4 56.46 C27.39 56.68, 19.76 57.82, 13.7 54.28 C7.63 50.74, 1.22 41.27, -1 35.21 C-3.21 29.15, -2.03 22.88, 0.4 17.94 C2.83 13, 11.32 7.1, 13.58 5.56 C15.84 4.02, 13.06 8.28, 13.97 8.71" stroke="#000000" stroke-width="1" fill="none"></path></g><g stroke-opacity="0.9" fill-opacity="0.9" stroke-linecap="round" transform="translate(321.7881566713118 107.5533496333552) rotate(0 37.87365338706729 28.69216165686916)"><path d="M4.78 11.79 C8.5 7.06, 16.96 2.29, 24.43 0.66 C31.9 -0.97, 42.42 0.03, 49.6 2.01 C56.78 4, 62.99 8.34, 67.53 12.55 C72.06 16.76, 76.51 22.22, 76.82 27.25 C77.12 32.28, 73.39 38, 69.35 42.73 C65.31 47.45, 59.52 53.57, 52.56 55.59 C45.59 57.61, 35.06 56.21, 27.58 54.87 C20.1 53.54, 11.96 51.93, 7.66 47.59 C3.37 43.24, -0.21 36.36, 1.82 28.78 C3.85 21.21, 13.48 6.93, 19.85 2.13 C26.21 -2.68, 39.58 -0.33, 40 -0.06 M37.09 2.58 C44.21 2.25, 52.93 2.74, 59.19 5.87 C65.45 9, 72.16 16.02, 74.63 21.35 C77.11 26.69, 76.73 32.79, 74.05 37.87 C71.37 42.96, 64.8 48.26, 58.54 51.87 C52.27 55.48, 43.67 59.61, 36.45 59.56 C29.22 59.51, 21.12 54.95, 15.21 51.57 C9.3 48.19, 3.3 45.12, 0.97 39.26 C-1.36 33.41, -0.92 21.85, 1.25 16.44 C3.41 11.03, 7.6 9.54, 13.96 6.79 C20.32 4.04, 35.2 1.15, 39.42 -0.07 C43.64 -1.28, 39.4 -0.59, 39.29 -0.52" stroke="#2b8a3e" stroke-width="1" fill="none"></path></g><g stroke-opacity="0.9" fill-opacity="0.9" stroke-linecap="round" transform="translate(495.47137523422685 104.49285238995583) rotate(0 37.87365338706729 28.69216165686916)"><path d="M66.73 10.31 C72.01 14.05, 75.44 20.37, 75.97 25.84 C76.5 31.3, 73.83 37.98, 69.92 43.11 C66.01 48.23, 59.21 54.29, 52.51 56.57 C45.81 58.85, 36.98 58.01, 29.71 56.79 C22.45 55.57, 13.97 53.78, 8.93 49.23 C3.89 44.68, 0.36 35.18, -0.52 29.5 C-1.4 23.82, -0.32 19.68, 3.66 15.13 C7.63 10.58, 16.16 4.74, 23.31 2.22 C30.46 -0.3, 38.63 -1.82, 46.56 0 C54.49 1.82, 66.08 9.78, 70.88 13.15 C75.68 16.51, 75.56 19.66, 75.36 20.19 M7.4 10.26 C11.34 6.02, 20.72 3.36, 28.06 1.58 C35.39 -0.2, 44.34 -2.59, 51.4 -0.41 C58.45 1.77, 65.92 9.63, 70.38 14.66 C74.83 19.69, 78.82 24.87, 78.13 29.77 C77.43 34.67, 71.2 39.99, 66.21 44.06 C61.22 48.12, 55.22 52.07, 48.17 54.17 C41.13 56.27, 31.04 57.97, 23.94 56.65 C16.85 55.33, 10 51.06, 5.61 46.23 C1.22 41.4, -3.23 33.53, -2.41 27.68 C-1.59 21.82, 8.95 13.45, 10.55 11.11 C12.15 8.77, 7.22 13.21, 7.2 13.63" stroke="#000000" stroke-width="1" fill="none"></path></g><g stroke-opacity="0.9" fill-opacity="0.9" stroke-linecap="round" transform="translate(425.8450629468908 207.019510043835) rotate(0 37.87365338706729 28.69216165686919)"><path d="M29.55 -1.32 C36.31 -2.49, 48.69 0.33, 55.64 3.1 C62.59 5.88, 68.06 10.43, 71.23 15.33 C74.4 20.22, 75.94 26.6, 74.65 32.46 C73.35 38.33, 68.55 46.12, 63.46 50.52 C58.37 54.93, 51.1 58.55, 44.09 58.92 C37.09 59.28, 27.97 55.56, 21.43 52.69 C14.89 49.83, 8.44 46.46, 4.85 41.72 C1.26 36.98, -1.11 29.7, -0.09 24.27 C0.93 18.83, 2.34 13.09, 10.96 9.12 C19.58 5.15, 42.19 -0.14, 51.65 0.43 C61.1 1, 67.71 11.87, 67.7 12.56 M17.93 2.46 C24.47 -0.52, 36.14 -1.08, 44.1 -0.56 C52.06 -0.04, 60.49 1.14, 65.67 5.59 C70.85 10.04, 74.13 20.45, 75.19 26.15 C76.26 31.84, 74.92 35.23, 72.06 39.77 C69.19 44.31, 64.41 50.29, 57.99 53.38 C51.56 56.48, 40.93 59.1, 33.51 58.36 C26.09 57.62, 18.63 52.62, 13.47 48.95 C8.32 45.29, 4.12 41.82, 2.58 36.36 C1.04 30.9, 1.03 21.63, 4.24 16.2 C7.46 10.76, 19.49 5.84, 21.88 3.77 C24.27 1.69, 18.31 3.09, 18.59 3.76" stroke="#2b8a3e" stroke-width="1" fill="none"></path></g><g stroke-opacity="0.9" fill-opacity="0.9" stroke-linecap="round" transform="translate(581.930422360259 203.95901280043563) rotate(0 37.87365338706729 28.69216165686919)"><path d="M37.31 1.52 C44.02 1.28, 53.8 2.93, 60.05 6.23 C66.31 9.54, 72.61 15.88, 74.85 21.37 C77.09 26.86, 75.7 34.01, 73.49 39.18 C71.28 44.35, 67.56 49.14, 61.56 52.38 C55.56 55.61, 45.16 58.92, 37.49 58.61 C29.82 58.3, 21.51 53.88, 15.54 50.51 C9.56 47.15, 3.7 43.26, 1.64 38.42 C-0.41 33.57, 1.11 27.29, 3.21 21.44 C5.31 15.6, 7.71 6.54, 14.22 3.35 C20.73 0.15, 36.44 2.66, 42.28 2.26 C48.13 1.86, 49.29 0.8, 49.27 0.93 M25.57 0.32 C31.98 -1.98, 39.16 -3.02, 46.23 -1.26 C53.29 0.51, 63.34 6.08, 67.99 10.89 C72.64 15.7, 74.04 22.11, 74.14 27.61 C74.23 33.1, 72.62 38.99, 68.57 43.88 C64.52 48.77, 56.59 55.04, 49.84 56.93 C43.08 58.82, 35.18 57.1, 28.06 55.24 C20.94 53.37, 11.94 50.2, 7.12 45.72 C2.3 41.25, -0.78 33.6, -0.86 28.39 C-0.95 23.17, 1.94 18.43, 6.6 14.44 C11.27 10.45, 23.53 6.79, 27.13 4.43 C30.73 2.07, 28.69 0.57, 28.2 0.29" stroke="#000000" stroke-width="1" fill="none"></path></g><g stroke-opacity="0.9" fill-opacity="0.9" stroke-linecap="round" transform="translate(521.4856018031214 327.14402684726065) rotate(0 37.87365338706729 28.69216165686919)"><path d="M5.28 11.26 C8.44 6.58, 17.73 2.94, 24.65 1.09 C31.57 -0.76, 39.62 -1.36, 46.81 0.14 C53.99 1.65, 63.22 5.81, 67.75 10.11 C72.28 14.42, 73.73 20.25, 73.99 25.95 C74.25 31.66, 73.32 39.48, 69.3 44.37 C65.28 49.26, 56.86 53.45, 49.86 55.3 C42.86 57.16, 34.28 56.86, 27.27 55.5 C20.25 54.15, 12.18 51.57, 7.77 47.18 C3.35 42.79, 0.82 35.21, 0.78 29.16 C0.75 23.11, 6.08 14.2, 7.55 10.9 C9.02 7.61, 9.05 8.81, 9.59 9.38 M56.44 2.05 C61.92 4.24, 68.72 12.77, 71.6 18.55 C74.47 24.34, 75.75 31.68, 73.69 36.74 C71.63 41.81, 64.96 45.47, 59.24 48.95 C53.52 52.44, 46.16 57.39, 39.36 57.66 C32.57 57.93, 24.25 53.93, 18.49 50.58 C12.73 47.22, 7.97 42.18, 4.81 37.52 C1.66 32.86, -2.05 27.5, -0.45 22.63 C1.14 17.76, 8.66 11.82, 14.37 8.3 C20.08 4.78, 26.1 1.97, 33.82 1.51 C41.55 1.04, 56.24 5.33, 60.72 5.51 C65.2 5.7, 61.63 1.9, 60.68 2.63" stroke="#2b8a3e" stroke-width="1" fill="none"></path></g><g stroke-opacity="0.9" fill-opacity="0.9" stroke-linecap="round" transform="translate(665.3289722428922 323.31840529301144) rotate(0 37.87365338706729 28.69216165686919)"><path d="M12.88 6.3 C17.69 2.55, 27.86 0.61, 34.89 -0.1 C41.93 -0.81, 49.14 -0.5, 55.09 2.06 C61.04 4.62, 67.22 9.7, 70.61 15.26 C73.99 20.82, 76.56 29.68, 75.39 35.45 C74.21 41.21, 69.3 46.18, 63.54 49.88 C57.78 53.58, 48.08 57.31, 40.82 57.64 C33.57 57.96, 26 54.33, 20 51.82 C14.01 49.31, 8.22 47.12, 4.86 42.56 C1.5 38, -3.14 31.05, -0.15 24.45 C2.84 17.85, 16.36 6.97, 22.8 2.95 C29.23 -1.08, 38.07 -0.19, 38.47 0.33 M17.51 7.84 C23.1 4.45, 29.05 -0.82, 36.47 -1.56 C43.89 -2.29, 55.35 0.03, 62.04 3.43 C68.74 6.83, 74.41 13.17, 76.63 18.84 C78.84 24.5, 77.8 32.32, 75.34 37.41 C72.89 42.49, 67.89 45.83, 61.9 49.34 C55.91 52.85, 47.35 57.87, 39.4 58.44 C31.45 59.02, 20.51 56.36, 14.19 52.8 C7.87 49.25, 3.18 42.84, 1.5 37.1 C-0.19 31.36, 1.12 23.64, 4.08 18.36 C7.04 13.08, 17.13 7.73, 19.25 5.41 C21.36 3.1, 17.06 3.62, 16.79 4.45" stroke="#000000" stroke-width="1" fill="none"></path></g><g stroke-opacity="0.9" fill-opacity="0.9" transform="translate(413.94292209643703 28.69216165686919) rotate(0 29.5 10)"><text x="29.5" y="14" font-family="Virgil, Segoe UI Emoji" font-size="16px" fill="#000000" text-anchor="middle" style="white-space: pre;" direction="ltr">0xffaa</text></g><g stroke-opacity="0.9" fill-opacity="0.9" transform="translate(349.6618100583791 126.24551129022439) rotate(0 10 10)"><text x="10" y="14" font-family="Virgil, Segoe UI Emoji" font-size="16px" fill="#2b8a3e" text-anchor="middle" style="white-space: pre;" direction="ltr">h6</text></g><g stroke-opacity="0.9" fill-opacity="0.9" transform="translate(523.3450286212942 123.18501404682502) rotate(0 10 10)"><text x="10" y="14" font-family="Virgil, Segoe UI Emoji" font-size="16px" fill="#000000" text-anchor="middle" style="white-space: pre;" direction="ltr">h5</text></g><g stroke-opacity="0.9" fill-opacity="0.9" transform="translate(453.71871633395807 225.7116717007042) rotate(0 10 10)"><text x="10" y="14" font-family="Virgil, Segoe UI Emoji" font-size="16px" fill="#2b8a3e" text-anchor="middle" style="white-space: pre;" direction="ltr">h4</text></g><g stroke-opacity="0.9" fill-opacity="0.9" transform="translate(609.3040757473261 222.65117445730482) rotate(0 10.5 10)"><text x="10.5" y="14" font-family="Virgil, Segoe UI Emoji" font-size="16px" fill="#000000" text-anchor="middle" style="white-space: pre;" direction="ltr">h3</text></g><g stroke-opacity="0.9" fill-opacity="0.9" transform="translate(548.8592551901886 345.83618850412984) rotate(0 10.5 10)"><text x="10.5" y="14" font-family="Virgil, Segoe UI Emoji" font-size="16px" fill="#2b8a3e" text-anchor="middle" style="white-space: pre;" direction="ltr">h2</text></g><g stroke-opacity="0.9" fill-opacity="0.9" transform="translate(696.2026256299596 342.0105669498806) rotate(0 7 10)"><text x="7" y="14" font-family="Virgil, Segoe UI Emoji" font-size="16px" fill="#000000" text-anchor="middle" style="white-space: pre;" direction="ltr">h1</text></g><g stroke-linecap="round"><g stroke-opacity="0.9" fill-opacity="0.9" transform="translate(439.99986269761285 71.20994486798759) rotate(0 -31.806252732112682 13.16218516992015)"><path d="M-0.4 -2.32 C-10.83 1.77, -51.75 20.7, -62.13 25.91 M-4.07 2.59 C-14.71 6.89, -53.27 25.05, -63.21 28.65" stroke="#000000" stroke-width="1" fill="none"></path></g><g stroke-opacity="0.9" fill-opacity="0.9" transform="translate(439.99986269761285 71.20994486798759) rotate(0 -31.806252732112682 13.16218516992015)"><path d="M-44.56 11.28 C-50.29 16.8, -52.88 22.4, -61.61 31.33 M-39.46 9.31 C-45.02 13.51, -52.55 17.3, -64.44 29.48" stroke="#000000" stroke-width="1" fill="none"></path></g><g stroke-opacity="0.9" fill-opacity="0.9" transform="translate(439.99986269761285 71.20994486798759) rotate(0 -31.806252732112682 13.16218516992015)"><path d="M-36.57 30.18 C-45 29.73, -50.1 29.38, -61.61 31.33 M-31.47 28.21 C-39.06 28.04, -48.46 27.41, -64.44 29.48" stroke="#000000" stroke-width="1" fill="none"></path></g></g><g stroke-linecap="round"><g stroke-opacity="0.9" fill-opacity="0.9" transform="translate(442.2952356301624 71.20994486798759) rotate(0 39.24431767666226 13.623769665933963)"><path d="M2.5 0.34 C14.88 4.53, 60.8 21.78, 72.57 26.25 M0.41 -1.94 C13.86 2.5, 66.36 23.84, 78.08 29.18" stroke="#000000" stroke-width="1" fill="none"></path></g><g stroke-opacity="0.9" fill-opacity="0.9" transform="translate(442.2952356301624 71.20994486798759) rotate(0 39.24431767666226 13.623769665933963)"><path d="M48.61 25.26 C53.44 25.89, 61.93 28.92, 75.49 30.32 M46.45 26.1 C59.31 29.09, 68.58 28.15, 78.38 30.03" stroke="#000000" stroke-width="1" fill="none"></path></g><g stroke-opacity="0.9" fill-opacity="0.9" transform="translate(442.2952356301624 71.20994486798759) rotate(0 39.24431767666226 13.623769665933963)"><path d="M56.63 6.37 C59.71 11.65, 66.28 19.19, 75.49 30.32 M54.47 7.21 C64.17 17.25, 70.44 23.38, 78.38 30.03" stroke="#000000" stroke-width="1" fill="none"></path></g></g><g stroke-linecap="round"><g stroke-opacity="0.9" fill-opacity="0.9" transform="translate(536.4055258646931 168.38073234591786) rotate(0 -32.429537333677956 16.241200851658732)"><path d="M2.78 -0.75 C-8.34 5.01, -54.76 30.7, -66.62 36.11 M0.84 -3.63 C-10.46 1.26, -55.85 26.2, -67.64 32.43" stroke="#000000" stroke-width="1" fill="none"></path></g><g stroke-opacity="0.9" fill-opacity="0.9" transform="translate(536.4055258646931 168.38073234591786) rotate(0 -32.429537333677956 16.241200851658732)"><path d="M-48.76 13.24 C-50 17.94, -62.33 25.5, -69.77 32.88 M-48.54 9.01 C-50.71 17.09, -56.87 21.28, -68.85 34.11" stroke="#000000" stroke-width="1" fill="none"></path></g><g stroke-opacity="0.9" fill-opacity="0.9" transform="translate(536.4055258646931 168.38073234591786) rotate(0 -32.429537333677956 16.241200851658732)"><path d="M-39.03 31.3 C-43.42 30.72, -58.71 32.79, -69.77 32.88 M-38.81 27.08 C-43.22 30.85, -51.75 30.64, -68.85 34.11" stroke="#000000" stroke-width="1" fill="none"></path></g></g><g stroke-linecap="round"><g stroke-opacity="0.9" fill-opacity="0.9" transform="translate(535.6404015538433 167.61560803506802) rotate(0 37.70461833124301 15.192421091062101)"><path d="M0.64 -2.65 C13.16 2.03, 65.65 23.92, 77.86 29.83 M-2.45 2.08 C9.56 7.02, 62.73 28.64, 76.36 33.04" stroke="#000000" stroke-width="1" fill="none"></path></g><g stroke-opacity="0.9" fill-opacity="0.9" transform="translate(535.6404015538433 167.61560803506802) rotate(0 37.70461833124301 15.192421091062101)"><path d="M42.57 34.79 C57.21 29.08, 73.44 33.66, 79.12 36.69 M46.99 34.55 C52.4 33.36, 62.99 31.44, 76.53 31.17" stroke="#000000" stroke-width="1" fill="none"></path></g><g stroke-opacity="0.9" fill-opacity="0.9" transform="translate(535.6404015538433 167.61560803506802) rotate(0 37.70461833124301 15.192421091062101)"><path d="M49.7 15.55 C61.74 17.54, 75.12 29.79, 79.12 36.69 M54.12 15.3 C57.67 19.25, 66.37 22.43, 76.53 31.17" stroke="#000000" stroke-width="1" fill="none"></path></g></g><g stroke-linecap="round"><g stroke-opacity="0.9" fill-opacity="0.9" transform="translate(623.6296973015753 267.0817684455478) rotate(0 -29.87072671624719 25.39501273795429)"><path d="M1.08 0.26 C-9.34 8.84, -50.76 43.82, -60.82 52.85 M-1.78 -2.06 C-11.52 5.51, -45.88 39.56, -55.87 48.29" stroke="#000000" stroke-width="1" fill="none"></path></g><g stroke-opacity="0.9" fill-opacity="0.9" transform="translate(623.6296973015753 267.0817684455478) rotate(0 -29.87072671624719 25.39501273795429)"><path d="M-41.88 17.74 C-45.72 29.66, -48.28 41.19, -54.9 50.32 M-41.69 21.94 C-44.87 30.07, -51.51 37.07, -56.16 46.73" stroke="#000000" stroke-width="1" fill="none"></path></g><g stroke-opacity="0.9" fill-opacity="0.9" transform="translate(623.6296973015753 267.0817684455478) rotate(0 -29.87072671624719 25.39501273795429)"><path d="M-27.88 32.74 C-36.91 39.37, -44.51 45.49, -54.9 50.32 M-27.69 36.95 C-35.23 40.72, -45.95 43.36, -56.16 46.73" stroke="#000000" stroke-width="1" fill="none"></path></g></g><g stroke-linecap="round"><g stroke-opacity="0.9" fill-opacity="0.9" transform="translate(622.0994486798756 267.84689275639766) rotate(0 39.320015296798374 24.290898353305636)"><path d="M-1.18 0.81 C12.35 9.3, 66.37 41.4, 79.82 49.79 M3.38 -1.21 C16.88 6.5, 66.38 37.22, 78.95 45.23" stroke="#000000" stroke-width="1" fill="none"></path></g><g stroke-opacity="0.9" fill-opacity="0.9" transform="translate(622.0994486798756 267.84689275639766) rotate(0 39.320015296798374 24.290898353305636)"><path d="M50.78 42.58 C58.16 43.92, 67.58 46.08, 81.68 43.07 M47.68 39.41 C58.77 38.74, 68.53 42.5, 80.62 43.68" stroke="#000000" stroke-width="1" fill="none"></path></g><g stroke-opacity="0.9" fill-opacity="0.9" transform="translate(622.0994486798756 267.84689275639766) rotate(0 39.320015296798374 24.290898353305636)"><path d="M61.68 25.19 C66.17 30.83, 72.83 37.39, 81.68 43.07 M58.58 22.02 C66.28 26.89, 72.69 35.99, 80.62 43.68" stroke="#000000" stroke-width="1" fill="none"></path></g></g><g stroke-opacity="0.9" fill-opacity="0.9" transform="translate(673.3627775068153 419.99274941316537) rotate(0 38 10)"><text x="0" y="14" font-family="Virgil, Segoe UI Emoji" font-size="16px" fill="#000000" text-anchor="start" style="white-space: pre;" direction="ltr">Alice's tx</text></g><g stroke-linecap="round"><g stroke-opacity="0.9" fill-opacity="0.9" transform="translate(710.0887444276079 381.0852907621746) rotate(0 -0.49364459343200906 16.007245492089282)"><path d="M2.41 -2.31 C1.68 3.81, -2.68 28.56, -3.4 34.33 M0.28 2.6 C0.29 8.19, 2.34 25.03, 1.57 30.51" stroke="#000000" stroke-width="1" fill="none"></path></g><g stroke-opacity="0.9" fill-opacity="0.9" transform="translate(710.0887444276079 381.0852907621746) rotate(0 -0.49364459343200906 16.007245492089282)"><path d="M-6.46 12.34 C0.25 19.05, -0.28 23.84, 1.1 31.04 M-4.2 14.63 C-1.06 18.62, -1.11 20.84, 3.13 30.05" stroke="#000000" stroke-width="1" fill="none"></path></g><g stroke-opacity="0.9" fill-opacity="0.9" transform="translate(710.0887444276079 381.0852907621746) rotate(0 -0.49364459343200906 16.007245492089282)"><path d="M4.53 12.42 C7.56 19.3, 3.35 24.06, 1.1 31.04 M6.8 14.72 C7.38 18.79, 4.78 20.98, 3.13 30.05" stroke="#000000" stroke-width="1" fill="none"></path></g></g><g stroke-linecap="round"><g stroke-opacity="0.9" fill-opacity="0.9" transform="translate(194.39495891481266 94.1636741934829) rotate(0 99.06663020408325 -27.09645286488805)"><path d="M-2.38 -0.42 C31.4 -9.17, 166.95 -45.6, 200.52 -53.77 M1.52 -3.11 C35.34 -11.5, 166.86 -43.03, 199.55 -51.51" stroke="#000000" stroke-width="1" fill="none"></path></g><g stroke-opacity="0.9" fill-opacity="0.9" transform="translate(194.39495891481266 94.1636741934829) rotate(0 99.06663020408325 -27.09645286488805)"><path d="M174.07 -31.4 C176.75 -36.85, 188.45 -39.94, 201.8 -51.11 M173.12 -33.9 C183.44 -38.25, 189.33 -44.09, 199.32 -50.89" stroke="#000000" stroke-width="1" fill="none"></path></g><g stroke-opacity="0.9" fill-opacity="0.9" transform="translate(194.39495891481266 94.1636741934829) rotate(0 99.06663020408325 -27.09645286488805)"><path d="M169.12 -51.32 C172.72 -52.26, 185.52 -50.94, 201.8 -51.11 M168.18 -53.82 C180.02 -51.79, 187.49 -51.28, 199.32 -50.89" stroke="#000000" stroke-width="1" fill="none"></path></g></g></svg>