<svg version="1.1" xmlns="http://www.w3.org/2000/svg" viewBox="0 0 639.2987846605702 539.6022727272725" width="1917.8963539817105" height="1618.8068181818176">
  <!-- svg-source:excalidraw -->
  
  <defs>
    <style class="style-fonts">
      @font-face {
        font-family: "Virgil";
        src: url("https://excalidraw.com/Virgil.woff2");
      }
      @font-face {
        font-family: "Cascadia";
        src: url("https://excalidraw.com/Cascadia.woff2");
      }
    </style>
    
  </defs>
  <rect x="0" y="0" width="639.2987846605702" height="539.6022727272725" fill="#ffffff"></rect><g stroke-linecap="round" transform="translate(10 12.028540408972503) rotate(0 88.44609116062963 68.27073530717325)"><path d="M0.83 -0.24 C47.01 1.27, 90.8 2.6, 175.36 1.72 M0.37 0.73 C35.88 2.1, 70.87 2.33, 176.56 -0.78 M176.5 0.41 C178.37 32.71, 177.45 66.75, 177.31 136.2 M177.01 -0.86 C176.32 41.24, 176.21 81.11, 176.46 136.92 M175.81 137.96 C118.84 137.48, 59.94 137.04, -1.76 135.91 M177.04 136.08 C113.63 137.53, 51.98 137.53, 0.36 136.28 M-0.57 137.93 C-1.36 102.17, 0.1 64.99, 0.87 -1.41 M0.47 135.61 C0.59 89.85, 0.59 43.62, -0.09 0.65" stroke="#1e1e1e" stroke-width="4" fill="none"></path></g><g transform="translate(22.91811417088354 57.79927571614576) rotate(0 75.5279769897461 22.5)"><text x="75.5279769897461" y="0" font-family="Virgil, Segoe UI Emoji" font-size="36px" fill="#1e1e1e" text-anchor="middle" style="white-space: pre;" direction="ltr" dominant-baseline="text-before-edge">Ommer B</text></g><g stroke-linecap="round" transform="translate(224.78220621744765 10.456885135535003) rotate(0 88.44609116062963 68.27073530717325)"><path d="M-0.57 1.39 C44.57 0.87, 91.29 -1.37, 177.76 -1.41 M0.47 -0.94 C60.34 0.49, 120.19 0.45, 176.8 0.65 M175.09 1.7 C176.37 39.9, 176.58 84.09, 177.06 136.82 M176.42 0.58 C177.02 37.93, 177 76.84, 177.63 135.99 M177.58 136 C110.22 140.04, 46.89 137.71, 0.99 136.11 M176.54 137.29 C128.29 137.29, 79.73 135.82, 0.46 137.08 M-1.14 134.97 C1.71 93.05, 1.52 52.03, 1.25 0.69 M-0.48 135.57 C1.28 85, 1.25 35.81, -0.72 0.43" stroke="#1e1e1e" stroke-width="4" fill="none"></path></g><g stroke-linecap="round" transform="translate(451.56471021247637 10) rotate(0 88.44609116062963 68.27073530717325)"><path d="M-1.1 1.42 C38.36 0.57, 81.13 -1.84, 175.87 1.85 M-0.21 -0.23 C65.45 -0.94, 128.99 -0.12, 177.21 0.86 M177.97 0.23 C174.42 51.9, 174.92 99.02, 177.47 135.6 M177.24 0.7 C177.01 44.42, 176.81 86.3, 177.78 135.59 M177.75 137.97 C109.45 134.01, 39.59 137.24, -0.71 136.01 M176.85 137.35 C123.07 138.88, 68.66 138.03, -0.45 137.19 M1.45 137.43 C1.1 100.09, 0.6 65.7, -1.97 1.67 M-0.77 137.47 C-0.51 82.92, 0.78 31.95, -0.46 0.43" stroke="#1e1e1e" stroke-width="4" fill="none"></path></g><g stroke-linecap="round" transform="translate(10.84189212683441 204.59438901958993) rotate(0 88.44609116062963 68.27073530717325)"><path d="M0.59 0.9 C46.51 1.6, 91.62 -0.31, 177.89 0.02 M0.12 -0.28 C34.91 -0.6, 71.01 -2.36, 177.83 1 M176.04 -0.49 C177.9 33.06, 178.23 70.1, 176.82 138.46 M177.54 -0.49 C177.99 32.24, 176.5 63.49, 176.79 137.49 M176.91 136.43 C135.67 136.67, 94.61 136.02, -1.4 136.02 M176.03 136.3 C107.29 136.92, 39.42 137.09, -0.61 137.11 M-1.15 137.01 C0.79 97.46, 0.68 57, -1.59 -0.17 M0.49 136.08 C-0.11 86.39, -1.31 37.57, -0.06 -0.15" stroke="#1e1e1e" stroke-width="4" fill="none"></path></g><g transform="translate(25.038006175647638 250.36512432676318) rotate(0 74.2499771118164 22.5)"><text x="74.2499771118164" y="0" font-family="Virgil, Segoe UI Emoji" font-size="36px" fill="#1e1e1e" text-anchor="middle" style="white-space: pre;" direction="ltr" dominant-baseline="text-before-edge">Ommer A</text></g><g stroke-linecap="round" transform="translate(225.62409834428217 203.02273374615243) rotate(0 88.44609116062963 68.27073530717325)"><path d="M1.45 0.89 C47.4 -1.82, 92.79 -0.78, 174.93 1.67 M-0.77 0.93 C68.05 -0.32, 137.73 1.5, 176.44 0.43 M177.32 -1.68 C177.07 52.4, 176.24 105.49, 175.52 137.07 M177.63 0.63 C177.03 52.45, 177.68 105.29, 176.21 136.69 M176.58 136.78 C124.44 136.03, 71.49 135.92, 1.81 136.67 M176.39 135.77 C113.06 135.51, 47.17 136.69, -0.07 137.13 M1.6 137.41 C2.26 88.16, -0.81 38.86, 1.32 0.72 M0.39 136.34 C-1.49 100.91, -0.73 63.27, -0.43 0.59" stroke="#1e1e1e" stroke-width="4" fill="none"></path></g><g stroke-linecap="round" transform="translate(452.4066023393109 202.56584861061765) rotate(0 88.44609116062963 68.27073530717325)"><path d="M1.5 -1.03 C62.06 -0.77, 120.17 0.89, 178.63 0.24 M-0.34 -0.82 C48.97 -0.65, 95.61 -1.22, 177.68 -0.42 M177.65 0.61 C177.11 39.53, 175.81 75.75, 178.53 137.84 M176.14 0.28 C177.8 35.19, 177.22 68.64, 176.83 136.55 M176.44 136.13 C123.42 136.23, 74.55 136.88, 1.3 134.82 M177.62 135.94 C127.47 135.74, 79.21 135.76, 0.57 135.97 M1.48 136.92 C-2.68 92.19, 0.23 48.89, -0.64 0.98 M-0.82 137.47 C-0.59 101.77, -0.96 67.87, -0.26 -0.18" stroke="#1e1e1e" stroke-width="4" fill="none"></path></g><g stroke-linecap="round" transform="translate(224.22595399798763 393.060802112926) rotate(0 88.44609116062963 68.27073530717325)"><path d="M-0.49 -0.15 C34.99 -2.95, 72.25 -1.06, 177.98 1.01 M-0.54 -0.75 C61.87 -0.45, 124.51 0.97, 177.3 0.9 M178.75 -0.97 C175.9 43.36, 177.86 85.54, 176.46 137.49 M176.24 -0.81 C175.78 49.29, 175.57 100.2, 177.66 137.33 M178.05 137.93 C109.33 133.15, 44.53 134.66, 1.21 135.4 M176.87 135.65 C125.78 137.2, 76.46 138.29, 0.84 135.69 M-1.62 134.78 C0.5 80.99, 1.5 29.14, 0.56 0.91 M-0.88 137.15 C1.41 85.08, 1.48 34.35, -0.89 0.4" stroke="#1e1e1e" stroke-width="4" fill="none"></path></g><g stroke-linecap="round"><g transform="translate(314.819835316051 155.87157278349878) rotate(0 -115.4107844151571 19.292938492457665)"><path d="M0.47 0.77 C-55.98 10.04, -116.21 18.47, -230.21 38.25 M-0.75 0.34 C-71.53 13.54, -145.26 24.88, -231.29 37.06" stroke="#1e1e1e" stroke-width="4" fill="none"></path></g><g transform="translate(314.819835316051 155.87157278349878) rotate(0 -115.4107844151571 19.292938492457665)"><path d="M-204.31 23.76 C-209.8 25.72, -219.63 28.38, -230.07 38.68 M-205.76 23.25 C-212.35 27.63, -222.25 31.84, -231.35 37.27" stroke="#1e1e1e" stroke-width="4" fill="none"></path></g><g transform="translate(314.819835316051 155.87157278349878) rotate(0 -115.4107844151571 19.292938492457665)"><path d="M-201.36 44.06 C-207.69 41.01, -218.26 38.62, -230.07 38.68 M-202.81 43.56 C-210.5 41.61, -221.32 39.46, -231.35 37.27" stroke="#1e1e1e" stroke-width="4" fill="none"></path></g></g><mask></mask><g stroke-linecap="round"><g transform="translate(320.605968128551 158.48739161635876) rotate(0 -0.023347027337308646 23.860154190707476)"><path d="M-1.48 1.01 C2.17 11.61, 2.03 20.81, 0.05 47.92 M0.48 -0.2 C-0.22 16.13, 0.59 29.97, -0.44 45.97" stroke="#1e1e1e" stroke-width="4" fill="none"></path></g><g transform="translate(320.605968128551 158.48739161635876) rotate(0 -0.023347027337308646 23.860154190707476)"><path d="M-9 24.99 C-3.92 30.02, -2.42 33.59, -0.39 47.69 M-7.05 23.78 C-5.47 32.06, -2.3 37.86, -0.89 45.74" stroke="#1e1e1e" stroke-width="4" fill="none"></path></g><g transform="translate(320.605968128551 158.48739161635876) rotate(0 -0.023347027337308646 23.860154190707476)"><path d="M6.79 25.58 C8.19 30.35, 6.02 33.79, -0.39 47.69 M8.74 24.38 C5.08 32.49, 3 38.1, -0.89 45.74" stroke="#1e1e1e" stroke-width="4" fill="none"></path></g></g><mask></mask><g stroke-linecap="round"><g transform="translate(324.907374526515 158.38557387843275) rotate(0 115.97153641173227 15.573366211121765)"><path d="M0.04 -0.78 C78.51 10.29, 159.95 22.28, 231.45 31.93 M-0.11 -0.75 C72.37 10.4, 146.56 20.41, 232.05 31.44" stroke="#1e1e1e" stroke-width="4" fill="none"></path></g><g transform="translate(324.907374526515 158.38557387843275) rotate(0 115.97153641173227 15.573366211121765)"><path d="M202.82 37.02 C211.14 34.59, 222.78 33.99, 230.47 32.76 M202.64 37.06 C211.35 36.04, 222.09 34.44, 231.18 32.17" stroke="#1e1e1e" stroke-width="4" fill="none"></path></g><g transform="translate(324.907374526515 158.38557387843275) rotate(0 115.97153641173227 15.573366211121765)"><path d="M205.48 16.67 C212.77 21.24, 223.5 27.64, 230.47 32.76 M205.3 16.71 C213.18 22.05, 223.08 26.82, 231.18 32.17" stroke="#1e1e1e" stroke-width="4" fill="none"></path></g></g><mask></mask><g stroke-linecap="round"><g transform="translate(317.75192723129726 346.1773404208095) rotate(0 0.34902472757943315 20.288747091453047)"><path d="M0.24 -1.55 C-0.45 12.64, 1.48 28.96, 1.47 41.26 M-0.77 -0.82 C0.48 8.9, -0.54 19.11, 0.15 42.12" stroke="#1e1e1e" stroke-width="4" fill="none"></path></g><g transform="translate(317.75192723129726 346.1773404208095) rotate(0 0.34902472757943315 20.288747091453047)"><path d="M-7.14 20.82 C-5.06 27.56, -0.57 36.37, 1.76 41.09 M-8.16 21.54 C-5.29 26.39, -4.64 31.68, 0.44 41.96" stroke="#1e1e1e" stroke-width="4" fill="none"></path></g><g transform="translate(317.75192723129726 346.1773404208095) rotate(0 0.34902472757943315 20.288747091453047)"><path d="M7.32 20.6 C4.58 27.3, 4.25 36.19, 1.76 41.09 M6.31 21.32 C6.02 26.14, 3.51 31.48, 0.44 41.96" stroke="#1e1e1e" stroke-width="4" fill="none"></path></g></g><mask></mask></svg>