<svg version="1.1" xmlns="http://www.w3.org/2000/svg" viewBox="0 0 572.4197524335877 292.85691193486343" width="572.4197524335877" height="292.85691193486343">
  <!-- svg-source:excalidraw -->
  <rect x="0" y="0" width="100%" height="100%" fill="white" />
  <defs>
    <style>
      @font-face {
        font-family: "Virgil";
        src: url("https://excalidraw.com/Virgil.woff2");
      }
      @font-face {
        font-family: "Cascadia";
        src: url("https://excalidraw.com/Cascadia.woff2");
      }
    </style>
  </defs>
  <g stroke-opacity="0.9" fill-opacity="0.9" stroke-linecap="round" transform="translate(165.32023510251838 12.00280589401848) rotate(0 198.16719651010976 37.10852907621745)"><path d="M1.14 -1.43 C132.28 2.87, 265.87 2.5, 397.77 -1.92 M0.77 0.22 C115.43 -3.13, 230.87 -2.56, 395.59 -0.69 M396.46 -2.8 C398.85 14.19, 399.34 30.83, 395.75 73.72 M395.25 1.46 C395.73 25.39, 399.17 54.87, 398.06 75.98 M394.68 72.19 C303.62 68.56, 212.16 68.56, 1.88 74.63 M396.19 73.89 C283.4 76.07, 168.06 76.46, 0.02 73.22 M1.63 72.96 C-0.73 47.27, -2.07 24.32, -3.59 0.27 M-1.78 75.79 C-0.05 53.6, -1.79 30.76, 1.07 -1.02" stroke="#000000" stroke-width="1" fill="none"></path></g><g stroke-opacity="0.9" fill-opacity="0.9" stroke-linecap="round" transform="translate(166.08535941336822 148.57749538071585) rotate(0 198.16719651010976 37.10852907621745)"><path d="M1.1 -0.56 C90.86 1.66, 183.76 4.09, 397.34 -1.24 M0.83 0.88 C148.79 3.91, 294.81 1.87, 395.36 -0.83 M395.69 -3.11 C399.1 16.42, 395.32 35.32, 398.62 73.7 M396.06 -0.61 C397.83 18.43, 398.69 38.67, 396.65 75.03 M394.44 74.99 C287.81 72.86, 183.31 74.79, 0.8 72.18 M396.08 74.47 C246.81 76.66, 95.24 77.61, 0.31 73.38 M1.87 77.81 C1.89 50.52, 2.77 26.58, 3.97 -1.02 M-0.6 75.13 C0.64 57.33, -0.38 42.27, -0.2 -0.92" stroke="#000000" stroke-width="1" fill="none"></path></g><g stroke-opacity="0.9" fill-opacity="0.9" transform="translate(10 42.49389712566085) rotate(0 38.5 10)"><text x="0" y="14" font-family="Virgil, Segoe UI Emoji" font-size="16px" fill="#000000" text-anchor="start" style="white-space: pre;" direction="ltr">index = 0</text></g><g stroke-linecap="round"><g stroke-opacity="0.9" fill-opacity="0.9" transform="translate(100.28466868028158 51.024145747360535) rotate(0 23.54179666973556 1.0239690647829889)"><path d="M0.73 2.24 C9.26 3.18, 41.81 3.26, 49.4 2.85 M-2.31 0.99 C6.25 1.42, 40.88 -1.26, 48.64 -1.02" stroke="#000000" stroke-width="1" fill="none"></path></g><g stroke-opacity="0.9" fill-opacity="0.9" transform="translate(100.28466868028158 51.024145747360535) rotate(0 23.54179666973556 1.0239690647829889)"><path d="M30.18 11.55 C35.27 4.88, 36.06 1.49, 47.53 -1.62 M25.2 5.98 C32.86 7.15, 34.65 3.93, 50.5 -2.13" stroke="#000000" stroke-width="1" fill="none"></path></g><g stroke-opacity="0.9" fill-opacity="0.9" transform="translate(100.28466868028158 51.024145747360535) rotate(0 23.54179666973556 1.0239690647829889)"><path d="M29.66 -4.41 C34.56 -7.3, 35.47 -6.9, 47.53 -1.62 M24.68 -9.97 C32.44 -5.59, 34.33 -5.6, 50.5 -2.13" stroke="#000000" stroke-width="1" fill="none"></path></g></g><g stroke-opacity="0.9" fill-opacity="0.9" transform="translate(16.886118797648578 180.98139738948282) rotate(0 35 10)"><text x="0" y="14" font-family="Virgil, Segoe UI Emoji" font-size="16px" fill="#000000" text-anchor="start" style="white-space: pre;" direction="ltr">index = 1</text></g><g stroke-linecap="round"><g stroke-opacity="0.9" fill-opacity="0.9" transform="translate(105.64053885623048 187.98139738948282) rotate(0 24.97783214307981 1.0150093805764868)"><path d="M-2.44 1.11 C5.39 1.64, 38.9 -0.12, 47.31 0.53 M1.42 -0.76 C10.08 0.27, 43.64 2.58, 52.4 2.79" stroke="#000000" stroke-width="1" fill="none"></path></g><g stroke-opacity="0.9" fill-opacity="0.9" transform="translate(105.64053885623048 187.98139738948282) rotate(0 24.97783214307981 1.0150093805764868)"><path d="M30.17 6.66 C32.53 5.84, 46.32 6.78, 49.67 2.17 M27.83 10.35 C34.4 8.1, 45.84 6.54, 54.3 1.39" stroke="#000000" stroke-width="1" fill="none"></path></g><g stroke-opacity="0.9" fill-opacity="0.9" transform="translate(105.64053885623048 187.98139738948282) rotate(0 24.97783214307981 1.0150093805764868)"><path d="M31.03 -10.36 C32.8 -5.89, 46.32 0.34, 49.67 2.17 M28.69 -6.67 C35.18 -3.38, 46.33 0.61, 54.3 1.39" stroke="#000000" stroke-width="1" fill="none"></path></g></g><g stroke-linecap="round"><g stroke-opacity="0.9" fill-opacity="0.9" transform="translate(371.13867472112656 12.767930204868321) rotate(0 0.17083164206758283 33.877073349485926)"><path d="M2.15 -0.19 C2.3 11.23, 0.33 58.46, 0.28 70.52 M-0.13 -2.77 C-0.26 7.6, -2 54.2, -1.8 66" stroke="#000000" stroke-width="1" fill="none"></path></g></g><g stroke-linecap="round"><g stroke-opacity="0.9" fill-opacity="0.9" transform="translate(469.83971082075664 14.298178826568005) rotate(0 1.1738695758667177 31.43663363984183)"><path d="M2.21 -2.68 C2.76 7.6, 1.77 51.58, 1.7 62.75 M-0.03 2.04 C0.44 12.56, 0.21 54.64, 0.39 65.55" stroke="#000000" stroke-width="1" fill="none"></path></g></g><g stroke-opacity="0.9" fill-opacity="0.9" transform="translate(255.6049037828002 39.43339988226148) rotate(0 25 10)"><text x="0" y="14" font-family="Virgil, Segoe UI Emoji" font-size="16px" fill="#000000" text-anchor="start" style="white-space: pre;" direction="ltr">int128</text></g><g stroke-opacity="0.9" fill-opacity="0.9" transform="translate(414.7507604395678 42.49389712566085) rotate(0 21.5 10)"><text x="0" y="14" font-family="Virgil, Segoe UI Emoji" font-size="16px" fill="#000000" text-anchor="start" style="white-space: pre;" direction="ltr">int64</text></g><g stroke-linecap="round"><g stroke-opacity="0.9" fill-opacity="0.9" transform="translate(368.84330178857704 154.31592771208966) rotate(0 1.024598663662232 30.39221746517984)"><path d="M2.72 -2.32 C2.88 8.09, 1.71 49.62, 1 59.82 M0.76 2.58 C0.63 13.67, 0.12 53.35, -0.69 63.11" stroke="#000000" stroke-width="1" fill="none"></path></g></g><g stroke-opacity="0.9" fill-opacity="0.9" transform="translate(260.9607739587491 179.45114876778314) rotate(0 25 10)"><text x="0" y="14" font-family="Virgil, Segoe UI Emoji" font-size="16px" fill="#000000" text-anchor="start" style="white-space: pre;" direction="ltr">int128</text></g><g stroke-opacity="0.9" fill-opacity="0.9" transform="translate(262.49102258044877 282.85681193486346) rotate(0 0.00004999999998744897 0.00004999999998744897)" stroke="none"><path fill="#000000" d="M 1.57,-1.57 Q 1.57,-1.57 1.77,-1.27 1.98,-0.98 2.09,-0.64 2.20,-0.29 2.19,0.05 2.18,0.41 2.05,0.75 1.93,1.09 1.70,1.37 1.48,1.65 1.18,1.84 0.87,2.04 0.52,2.12 0.18,2.21 -0.17,2.18 -0.53,2.15 -0.86,2.01 -1.19,1.87 -1.46,1.63 -1.73,1.39 -1.90,1.07 -2.08,0.76 -2.15,0.41 -2.21,0.05 -2.17,-0.29 -2.12,-0.65 -1.96,-0.97 -1.80,-1.29 -1.54,-1.54 -1.29,-1.80 -0.97,-1.96 -0.65,-2.12 -0.29,-2.17 0.06,-2.21 0.41,-2.15 0.76,-2.08 1.07,-1.90 1.39,-1.73 1.63,-1.46 1.87,-1.19 2.01,-0.86 2.15,-0.53 2.18,-0.17 2.21,0.18 2.12,0.52 2.03,0.87 1.84,1.18 1.65,1.48 1.37,1.70 1.09,1.93 0.75,2.05 0.41,2.18 0.05,2.19 -0.30,2.20 -0.64,2.09 -0.98,1.98 -1.27,1.77 -1.57,1.56 -1.57,1.57 -1.57,1.57 -1.73,1.35 -1.90,1.14 -2.01,0.90 -2.12,0.66 -2.16,0.39 -2.21,0.13 -2.20,-0.13 -2.18,-0.40 -2.10,-0.65 -2.02,-0.91 -1.88,-1.14 -1.74,-1.36 -1.55,-1.55 -1.36,-1.74 -1.14,-1.88 -0.91,-2.02 -0.65,-2.10 -0.40,-2.18 -0.13,-2.20 0.13,-2.21 0.39,-2.16 0.66,-2.12 0.90,-2.01 1.14,-1.90 1.35,-1.73 1.57,-1.57 1.57,-1.57 L 1.57,-1.57 Z"></path></g><g stroke-opacity="0.9" fill-opacity="0.9" transform="translate(311.45897847483866 281.3265633131638) rotate(0 0.00004999999998744897 0.00004999999998744897)" stroke="none"><path fill="#000000" d="M 1.57,-1.57 Q 1.57,-1.57 1.77,-1.27 1.98,-0.98 2.09,-0.64 2.20,-0.29 2.19,0.05 2.18,0.41 2.05,0.75 1.93,1.09 1.70,1.37 1.48,1.65 1.18,1.84 0.87,2.04 0.52,2.12 0.18,2.21 -0.17,2.18 -0.53,2.15 -0.86,2.01 -1.19,1.87 -1.46,1.63 -1.73,1.39 -1.90,1.07 -2.08,0.76 -2.15,0.41 -2.21,0.05 -2.17,-0.29 -2.12,-0.65 -1.96,-0.97 -1.80,-1.29 -1.54,-1.54 -1.29,-1.80 -0.97,-1.96 -0.65,-2.12 -0.29,-2.17 0.06,-2.21 0.41,-2.15 0.76,-2.08 1.07,-1.90 1.39,-1.73 1.63,-1.46 1.87,-1.19 2.01,-0.86 2.15,-0.53 2.18,-0.17 2.21,0.18 2.12,0.52 2.03,0.87 1.84,1.18 1.65,1.48 1.37,1.70 1.09,1.93 0.75,2.05 0.41,2.18 0.05,2.19 -0.30,2.20 -0.64,2.09 -0.98,1.98 -1.27,1.77 -1.57,1.56 -1.57,1.57 -1.57,1.57 -1.73,1.35 -1.90,1.14 -2.01,0.90 -2.12,0.66 -2.16,0.39 -2.21,0.13 -2.20,-0.13 -2.18,-0.40 -2.10,-0.65 -2.02,-0.91 -1.88,-1.14 -1.74,-1.36 -1.55,-1.55 -1.36,-1.74 -1.14,-1.88 -0.91,-2.02 -0.65,-2.10 -0.40,-2.18 -0.13,-2.20 0.13,-2.21 0.39,-2.16 0.66,-2.12 0.90,-2.01 1.14,-1.90 1.35,-1.73 1.57,-1.57 1.57,-1.57 L 1.57,-1.57 Z"></path></g><g stroke-opacity="0.9" fill-opacity="0.9" transform="translate(367.31305316687735 280.56143900231393) rotate(0 -0.382562155424921 -0.382562155424921)" stroke="none"><path fill="#000000" d="M 2.12,-0.66 Q 2.12,-0.66 2.15,-0.13 2.18,0.40 1.96,0.88 1.74,1.36 1.32,1.69 0.91,2.02 0.38,2.12 -0.13,2.21 -0.64,2.05 -1.14,1.90 -1.52,1.52 -1.90,1.14 -2.05,0.64 -2.21,0.13 -2.12,-0.38 -2.02,-0.91 -1.69,-1.32 -1.36,-1.74 -0.88,-1.96 -0.39,-2.18 0.13,-2.15 0.66,-2.11 1.11,-1.84 1.57,-1.56 1.84,-1.11 L 2.12,-0.66 Z"></path></g></svg>