<svg version="1.1" xmlns="http://www.w3.org/2000/svg" viewBox="0 0 1030.1857503255205 178.77735484730113" width="3090.5572509765616" height="536.3320645419034">
  <!-- svg-source:excalidraw -->
  
  <defs>
    <style class="style-fonts">
      @font-face {
        font-family: "Virgil";
        src: url("https://excalidraw.com/Virgil.woff2");
      }
      @font-face {
        font-family: "Cascadia";
        src: url("https://excalidraw.com/Cascadia.woff2");
      }
    </style>
    
  </defs>
  <rect x="0" y="0" width="1030.1857503255205" height="178.77735484730113" fill="#ffffff"></rect><g stroke-linecap="round" transform="translate(10 61.27368349017513) rotate(0 75.724746241714 53.43142422762787)"><path d="M0.79 -0.62 C40.15 1.16, 80.46 0.75, 150.7 1.67 M0.23 0.14 C45.91 -0.63, 93.44 -0.16, 150.92 0.46 M150.47 0.41 C152.15 36.6, 151.94 76.25, 152.5 105.78 M151.87 0.11 C150.64 32.87, 150.75 65.13, 152.24 107.65 M150.1 108.22 C111.33 108.62, 70.15 106.9, 1.57 107.53 M151.76 106.65 C105.24 106.35, 60.49 105.44, -0.95 106.46 M1.06 105.86 C0.98 70.99, 0.63 33.45, -1.45 -0.25 M0.79 106.57 C1 79.52, 1.04 52, 0.45 -0.33" stroke="#1e1e1e" stroke-width="4" fill="none"></path></g><g transform="translate(65.19475509181166 102.205107717803) rotate(0 20.529991149902344 12.5)"><text x="20.529991149902344" y="0" font-family="Virgil, Segoe UI Emoji" font-size="20px" fill="#1e1e1e" text-anchor="middle" style="white-space: pre;" direction="ltr" dominant-baseline="text-before-edge">GAS</text></g><g stroke-linecap="round" transform="translate(163.303389115767 61.84685909386826) rotate(0 75.724746241714 53.431424227627815)"><path d="M-1.93 0.7 C56.12 1.74, 116.38 1.61, 153.28 -0.5 M-0.88 -0.33 C57.66 -0.24, 114.17 -0.03, 151.84 -0.92 M150.38 1.33 C152.09 20.95, 151.43 45.19, 151.51 107.77 M150.81 0.34 C152.1 24.01, 151.64 48.38, 151.82 106.26 M152.74 108.71 C100.8 105.89, 46.39 105.49, -0.69 107.03 M151.5 106.28 C104.47 106.94, 58.52 106.53, -0.57 106.78 M-0.87 105.16 C-1.04 81.11, -0.84 54.19, 1.3 1 M-0.33 107.03 C-0.57 68.24, 1.08 29.82, 0.18 -0.12" stroke="#1e1e1e" stroke-width="4" fill="none"></path></g><g transform="translate(216.8681469541607 102.77828332149613) rotate(0 22.159988403320312 12.5)"><text x="22.159988403320312" y="0" font-family="Virgil, Segoe UI Emoji" font-size="20px" fill="#1e1e1e" text-anchor="middle" style="white-space: pre;" direction="ltr" dominant-baseline="text-before-edge">ADD</text></g><g stroke-linecap="round" transform="translate(315.84642814867425 61.914506392045496) rotate(0 75.724746241714 53.431424227627815)"><path d="M-0.38 1.65 C54.63 -0.62, 109.02 -0.55, 153.21 1.24 M0.8 0.21 C47.31 -2.14, 95.56 -0.75, 151.93 -0.64 M152.64 -1.26 C150.65 21.2, 150.98 44.2, 149.61 108.73 M152.02 0.18 C150.93 33.45, 150.47 67.09, 151.81 107.83 M152.96 107.02 C117.11 105.52, 79.01 107.18, -0.3 105.25 M151.58 105.98 C106.06 107.26, 58.46 107.38, 0.62 107.75 M0.14 105.75 C2.25 77.11, -1.19 42.25, 0.12 1.66 M0.61 106.84 C0.33 78.55, 0.62 49.69, 0.57 0.12" stroke="#1e1e1e" stroke-width="4" fill="none"></path></g><g transform="translate(335.16120887525153 102.84593061967337) rotate(0 56.40996551513672 12.5)"><text x="56.40996551513672" y="0" font-family="Virgil, Segoe UI Emoji" font-size="20px" fill="#1e1e1e" text-anchor="middle" style="white-space: pre;" direction="ltr" dominant-baseline="text-before-edge">JUMPDEST</text></g><g transform="translate(79.47761304450762 18.667029178503753) rotate(0 12.383995056152344 22.5)"><text x="0" y="0" font-family="Virgil, Segoe UI Emoji" font-size="36px" fill="#1e1e1e" text-anchor="start" style="white-space: pre;" direction="ltr" dominant-baseline="text-before-edge">0</text></g><g transform="translate(234.118504379735 11.578396883877758) rotate(0 4.877998352050781 22.5)"><text x="0" y="0" font-family="Virgil, Segoe UI Emoji" font-size="36px" fill="#1e1e1e" text-anchor="start" style="white-space: pre;" direction="ltr" dominant-baseline="text-before-edge">1</text></g><g transform="translate(383.94177985913825 12.016185413707376) rotate(0 12.815994262695312 22.5)"><text x="0" y="0" font-family="Virgil, Segoe UI Emoji" font-size="36px" fill="#1e1e1e" text-anchor="start" style="white-space: pre;" direction="ltr" dominant-baseline="text-before-edge">2</text></g><g stroke-linecap="round" transform="translate(471.260616418087 60.61626087535524) rotate(0 75.724746241714 53.431424227627815)"><path d="M-1.04 -1.36 C57.69 0.19, 116.96 -1.8, 152.74 -0.19 M0.15 -0.88 C35.96 0.08, 72.82 -0.49, 152.01 -0.34 M152.12 1.38 C153.19 31.49, 151.79 64.06, 151.76 106.32 M152.18 -0.44 C151.5 26.02, 151.23 51.92, 152.4 106.82 M149.71 105.13 C106.37 106.3, 56.25 109.25, 1.38 105.52 M150.7 106.31 C103.29 105.1, 57.83 105.19, -0.07 106.04 M1.5 107.55 C-0.55 76.06, 1.29 44.68, -1.29 0.42 M0.16 105.95 C-0.04 76.81, -0.5 46.09, 0.97 0.82" stroke="#1e1e1e" stroke-width="4" fill="none"></path></g><g transform="translate(525.4353748668323 101.54768510298311) rotate(0 21.54998779296875 12.5)"><text x="21.54998779296875" y="0" font-family="Virgil, Segoe UI Emoji" font-size="20px" fill="#1e1e1e" text-anchor="middle" style="white-space: pre;" direction="ltr" dominant-baseline="text-before-edge">DUP</text></g><g stroke-linecap="round" transform="translate(714.2144775390623 58.79602605646323) rotate(0 75.724746241714 53.431424227627815)"><path d="M-0.16 -1.77 C34.02 2.74, 68.47 -0.26, 151.85 0.35 M-0.18 -0.17 C46.89 -0.16, 93.5 -0.54, 151.51 -0.68 M149.78 -1.22 C152.7 25.88, 153.27 51.19, 152.64 106.22 M151.67 -0.31 C151.16 31.41, 150.72 61.44, 151.19 106.63 M153.02 107.7 C115.98 107.52, 83.54 106.18, 0.45 105.97 M151.39 106.5 C117.02 105.83, 83.95 105.55, -0.89 106.79 M-0.04 107.61 C-1.02 82.17, -0.41 57.98, 0.56 -1.62 M0.95 107.24 C1.3 74.65, 0.71 43.14, 0.64 0.52" stroke="#1e1e1e" stroke-width="4" fill="none"></path></g><g transform="translate(733.5292582656396 99.7274502840911) rotate(0 56.40996551513672 12.5)"><text x="56.40996551513672" y="0" font-family="Virgil, Segoe UI Emoji" font-size="20px" fill="#1e1e1e" text-anchor="middle" style="white-space: pre;" direction="ltr" dominant-baseline="text-before-edge">JUMPDEST</text></g><g stroke-linecap="round" transform="translate(868.7362578420928 58.57116699218727) rotate(0 75.72474624171394 53.43142422762793)"><path d="M-1.79 -0.14 C47.61 1.92, 95.83 0.02, 152.19 -0.03 M0.28 -0.81 C48.65 -1.65, 96.99 -0.08, 151.82 0.63 M152.73 1.05 C150.66 27.43, 152.82 57.07, 151.88 104.9 M151.94 -1 C151.28 31.2, 150.14 64.25, 151.85 106.27 M153.2 107.63 C120.98 108.51, 91.76 107.55, -1.64 106.65 M150.63 107.76 C100.53 106.56, 48.37 106.73, -0.87 106.33 M-0.27 107.87 C0.93 81.87, -1.07 57.41, -1.52 1.47 M0.3 106.58 C1.26 83.78, -0.03 60.67, 0.84 0.53" stroke="#1e1e1e" stroke-width="4" fill="none"></path></g><g transform="translate(916.4710291082208 99.50259121981514) rotate(0 27.989974975585938 12.5)"><text x="27.989974975585938" y="0" font-family="Virgil, Segoe UI Emoji" font-size="20px" fill="#1e1e1e" text-anchor="middle" style="white-space: pre;" direction="ltr" dominant-baseline="text-before-edge">STOP</text></g><g stroke-linecap="round" transform="translate(641.1192368016095 103.05705677379251) rotate(0 5.505602287523743 4.758037220348058)"><path d="M8 0 C8.9 0.25, 9.78 0.75, 10.12 1.75 C10.45 2.74, 10.12 4.66, 10.01 5.96 C9.89 7.26, 10.13 8.94, 9.41 9.55 C8.69 10.16, 7.05 9.77, 5.68 9.63 C4.32 9.5, 2.24 9.59, 1.22 8.76 C0.21 7.94, -0.32 5.71, -0.4 4.69 C-0.49 3.68, 0.09 3.4, 0.7 2.7 C1.32 2, 2.15 0.88, 3.29 0.5 C4.43 0.11, 6.66 0.19, 7.53 0.38 C8.39 0.57, 8.42 1.52, 8.47 1.64 M4.44 0.02 C5.9 -0.05, 8.69 0.23, 9.78 0.79 C10.88 1.34, 10.85 2.51, 11.01 3.35 C11.17 4.19, 11.04 4.86, 10.77 5.84 C10.5 6.82, 10.48 8.72, 9.41 9.26 C8.34 9.79, 5.52 9.1, 4.35 9.06 C3.17 9.02, 3.05 10.01, 2.36 9.04 C1.67 8.08, 0.13 4.6, 0.2 3.29 C0.27 1.97, 2.1 1.78, 2.78 1.13 C3.46 0.48, 4.12 -0.5, 4.29 -0.64 C4.46 -0.78, 3.55 0.25, 3.79 0.28" stroke="#1e1e1e" stroke-width="4" fill="none"></path></g><g stroke-linecap="round" transform="translate(661.7519401781483 102.07163955226076) rotate(0 5.505602287523743 4.758037220348058)"><path d="M7.25 -0.22 C8.26 0.02, 9.29 1.1, 9.9 2.23 C10.51 3.36, 11.05 5.49, 10.89 6.56 C10.74 7.63, 9.89 8.12, 8.97 8.64 C8.06 9.15, 6.66 9.53, 5.39 9.64 C4.13 9.74, 2.23 9.94, 1.37 9.25 C0.52 8.56, 0.38 6.53, 0.25 5.51 C0.11 4.49, -0.16 3.96, 0.57 3.11 C1.31 2.25, 3.55 0.66, 4.67 0.38 C5.79 0.11, 6.67 1.41, 7.28 1.45 C7.89 1.49, 8.33 0.8, 8.35 0.61 M6.57 0.9 C7.67 1.17, 9.15 1.5, 9.93 2.01 C10.7 2.51, 11.24 3.15, 11.2 3.92 C11.16 4.69, 10.37 5.87, 9.7 6.64 C9.02 7.41, 8.11 7.99, 7.14 8.54 C6.18 9.09, 5.23 10.38, 3.92 9.93 C2.6 9.47, 0.1 6.84, -0.74 5.82 C-1.58 4.79, -1.78 4.62, -1.12 3.78 C-0.47 2.94, 1.89 1.35, 3.18 0.79 C4.47 0.23, 6.4 0.49, 6.62 0.41 C6.84 0.34, 4.71 0.38, 4.49 0.36" stroke="#1e1e1e" stroke-width="4" fill="none"></path></g><g stroke-linecap="round" transform="translate(685.9315721916425 102.64134724934888) rotate(0 5.505602287523743 4.758037220348058)"><path d="M4.82 -0.54 C6.1 -0.74, 7.5 0.46, 8.54 1.11 C9.57 1.77, 10.63 2.58, 11.03 3.39 C11.43 4.21, 11.4 5.17, 10.93 5.99 C10.46 6.81, 9.23 7.79, 8.21 8.29 C7.2 8.78, 5.9 8.93, 4.84 8.97 C3.78 9.01, 2.79 9.31, 1.84 8.52 C0.88 7.74, -0.63 5.36, -0.89 4.26 C-1.15 3.17, -0.79 2.67, 0.27 1.94 C1.33 1.22, 4.52 0.19, 5.45 -0.08 C6.39 -0.34, 6.11 0.24, 5.87 0.37 M4.73 -0.68 C5.65 -0.52, 6.37 1.05, 7.17 1.59 C7.97 2.12, 8.75 1.86, 9.53 2.54 C10.32 3.21, 11.92 4.33, 11.87 5.63 C11.81 6.93, 10.61 9.49, 9.18 10.33 C7.76 11.17, 4.73 11.19, 3.3 10.69 C1.87 10.18, 1.3 8.2, 0.6 7.29 C-0.09 6.38, -0.96 6.25, -0.85 5.22 C-0.74 4.18, 0.43 1.75, 1.27 1.07 C2.12 0.4, 3.74 1.58, 4.23 1.19 C4.71 0.8, 3.85 -1.31, 4.18 -1.25" stroke="#1e1e1e" stroke-width="4" fill="none"></path></g><g transform="translate(538.663220492276 11.982486609256512) rotate(0 12.25799560546875 22.5)"><text x="0" y="0" font-family="Virgil, Segoe UI Emoji" font-size="36px" fill="#1e1e1e" text-anchor="start" style="white-space: pre;" direction="ltr" dominant-baseline="text-before-edge">3</text></g><g transform="translate(769.7793116714015 11.14019220525563) rotate(0 28.22399139404297 22.5)"><text x="0" y="0" font-family="Virgil, Segoe UI Emoji" font-size="36px" fill="#1e1e1e" text-anchor="start" style="white-space: pre;" direction="ltr" dominant-baseline="text-before-edge">190</text></g><g transform="translate(921.4852963071878 10) rotate(0 20.717994689941406 22.5)"><text x="0" y="0" font-family="Virgil, Segoe UI Emoji" font-size="36px" fill="#1e1e1e" text-anchor="start" style="white-space: pre;" direction="ltr" dominant-baseline="text-before-edge">191</text></g></svg>