<svg version="1.1" xmlns="http://www.w3.org/2000/svg" viewBox="0 0 976.4053885623065 739.2631228733587" width="976.4053885623065" height="739.2631228733587">
  <!-- svg-source:excalidraw -->
  <rect x="0" y="0" width="100%" height="100%" fill="white" />

  <defs>
    <style>
      @font-face {
        font-family: "Virgil";
        src: url("https://excalidraw.com/Virgil.woff2");
      }
      @font-face {
        font-family: "Cascadia";
        src: url("https://excalidraw.com/Cascadia.woff2");
      }
    </style>
  </defs>
  <g stroke-opacity="0.9" fill-opacity="0.9" stroke-linecap="round" transform="translate(369.2258639440023 39.953729325495345) rotate(0 65 52.5)"><path d="M32.8 8.11 C41.27 3.59, 54.89 -1.03, 65.29 -1.54 C75.7 -2.04, 86.63 0.81, 95.25 5.06 C103.87 9.32, 111.34 17.45, 116.99 23.97 C122.64 30.5, 127.49 36.45, 129.16 44.24 C130.83 52.02, 130.52 62.54, 127 70.67 C123.49 78.8, 115.39 87.26, 108.06 93.02 C100.74 98.79, 92.39 103.67, 83.05 105.24 C73.71 106.82, 62.2 104.75, 52.01 102.5 C41.83 100.25, 29.58 96.87, 21.96 91.73 C14.34 86.6, 10.22 79.27, 6.29 71.66 C2.37 64.06, -2.51 54.24, -1.59 46.08 C-0.67 37.93, 5.04 29.7, 11.81 22.75 C18.57 15.8, 33.72 7.52, 39 4.37 C44.28 1.22, 43.01 2.72, 43.46 3.84 M121.18 24.15 C127.52 30.14, 128.85 36.25, 129.14 44.24 C129.44 52.23, 126.39 64.5, 122.95 72.1 C119.51 79.69, 116.09 84.44, 108.51 89.81 C100.92 95.18, 87.52 101.77, 77.46 104.31 C67.41 106.85, 57.89 107.4, 48.18 105.07 C38.47 102.73, 26.64 95.88, 19.18 90.27 C11.72 84.67, 6.65 79.09, 3.42 71.43 C0.18 63.77, -1.33 52.47, -0.24 44.31 C0.85 36.15, 4.03 28.6, 9.97 22.47 C15.91 16.34, 26.15 11.51, 35.42 7.52 C44.69 3.52, 55.8 -1.01, 65.61 -1.5 C75.43 -1.98, 85.07 0.12, 94.31 4.62 C103.54 9.11, 116.79 22.24, 121.01 25.5 C125.24 28.76, 121.37 24.1, 119.65 24.17" stroke="#000000" stroke-width="1" fill="none"></path></g><g stroke-opacity="0.9" fill-opacity="0.9" stroke-linecap="round" transform="translate(164.5551107916691 189.12268699391862) rotate(0 61 53)"><path d="M49 -1.06 C57.36 -3.32, 70.47 -0.46, 79.56 2.06 C88.65 4.57, 96.91 7.76, 103.52 14.01 C110.13 20.25, 116.41 31.09, 119.23 39.5 C122.05 47.9, 122.14 57, 120.45 64.44 C118.76 71.89, 114.96 77.94, 109.08 84.16 C103.2 90.39, 93.64 98.4, 85.16 101.79 C76.67 105.19, 67.74 105.24, 58.17 104.53 C48.6 103.83, 35.76 101.76, 27.75 97.55 C19.75 93.33, 15 86.51, 10.16 79.23 C5.31 71.95, -0.72 62.12, -1.32 53.88 C-1.91 45.64, 2.28 36.93, 6.58 29.8 C10.89 22.67, 13.88 16.14, 24.52 11.09 C35.17 6.05, 59.12 0.06, 70.45 -0.47 C81.78 -1, 92.13 7.1, 92.48 7.91 M15.97 15.65 C21.59 8.64, 31.09 2.61, 40.02 0.44 C48.95 -1.74, 60.44 1.21, 69.57 2.61 C78.69 4.02, 86.85 4.27, 94.77 8.85 C102.7 13.43, 112.51 22.58, 117.1 30.09 C121.7 37.6, 122.49 45.85, 122.34 53.92 C122.18 62, 120.54 71.54, 116.15 78.55 C111.77 85.56, 104.15 91.04, 96.03 95.99 C87.92 100.93, 77.05 106.86, 67.45 108.22 C57.84 109.58, 46.88 107.7, 38.39 104.13 C29.91 100.56, 22.39 93.95, 16.55 86.8 C10.71 79.65, 5.55 69.62, 3.35 61.22 C1.15 52.83, 0.71 43.6, 3.34 36.43 C5.97 29.26, 16.28 21.09, 19.11 18.2 C21.93 15.32, 19.98 18.39, 20.28 19.12" stroke="#000000" stroke-width="1" fill="none"></path></g><g stroke-opacity="0.9" fill-opacity="0.9" stroke-linecap="round" transform="translate(580.7827358939845 180.3540403664418) rotate(0 64.5 52.5)"><path d="M21.79 11.99 C27.84 6.28, 38.41 2.91, 48.18 1.17 C57.96 -0.57, 70.6 -0.42, 80.46 1.55 C90.33 3.52, 100.17 7.8, 107.37 12.98 C114.57 18.16, 120.13 24.87, 123.68 32.63 C127.22 40.38, 129.59 51.36, 128.66 59.53 C127.73 67.69, 123.96 75.38, 118.11 81.63 C112.26 87.87, 102.45 93.09, 93.58 97 C84.71 100.9, 74.82 104.65, 64.88 105.03 C54.94 105.4, 42.71 103.16, 33.93 99.24 C25.16 95.33, 17.84 88.44, 12.26 81.54 C6.67 74.63, 1.48 65.56, 0.45 57.81 C-0.58 50.07, 0.34 44.02, 6.06 35.06 C11.78 26.09, 27.02 9.82, 34.76 4 C42.51 -1.82, 51.7 -0.77, 52.52 0.14 M102.81 9.38 C111.06 13.72, 116.96 22.72, 121.71 29.42 C126.47 36.12, 131.14 41.69, 131.33 49.57 C131.53 57.45, 127.88 68.77, 122.89 76.7 C117.9 84.62, 109.17 92.65, 101.39 97.12 C93.6 101.58, 86.11 102.94, 76.18 103.48 C66.25 104.03, 51.94 102.9, 41.82 100.39 C31.7 97.89, 21.58 93.73, 15.47 88.46 C9.37 83.19, 7.85 76.22, 5.19 68.78 C2.52 61.33, -2.06 51.8, -0.52 43.79 C1.02 35.79, 7.25 27.06, 14.44 20.75 C21.62 14.44, 33.07 9.04, 42.59 5.94 C52.12 2.84, 61.96 1.56, 71.57 2.14 C81.19 2.73, 95.41 7.79, 100.29 9.44 C105.17 11.09, 101.11 11.63, 100.83 12.04" stroke="#000000" stroke-width="1" fill="none"></path></g><g stroke-opacity="0.9" fill-opacity="0.9" stroke-linecap="round" transform="translate(436.1742411433637 353.2721346185067) rotate(0 57.7668854691633 52.411015293214405)"><path d="M11.19 22.32 C15.68 15.56, 24.05 9.13, 32.71 5.62 C41.37 2.11, 53.42 0.37, 63.16 1.25 C72.9 2.13, 83.11 6.27, 91.17 10.9 C99.22 15.54, 107.52 21.09, 111.5 29.05 C115.47 37.02, 116.26 49.88, 115 58.69 C113.74 67.49, 109.72 74.87, 103.92 81.88 C98.13 88.9, 89.08 97.01, 80.21 100.78 C71.33 104.54, 59.82 105.71, 50.68 104.46 C41.53 103.21, 32.92 97.99, 25.33 93.29 C17.75 88.59, 9.38 83.57, 5.17 76.26 C0.96 68.95, -2.55 60.06, 0.09 49.42 C2.74 38.78, 14.84 19.93, 21.05 12.42 C27.26 4.92, 36.86 4.24, 37.34 4.41 M14.22 16.34 C19.21 9.48, 29.5 2.19, 38.89 -0.35 C48.28 -2.88, 61.05 -0.9, 70.53 1.13 C80.02 3.16, 89.14 5.66, 95.8 11.83 C102.46 18.01, 107.45 29.52, 110.51 38.17 C113.57 46.82, 115.8 55.62, 114.16 63.72 C112.53 71.82, 107.2 80.53, 100.7 86.76 C94.21 92.99, 83.9 98.27, 75.19 101.11 C66.48 103.95, 57.34 105.15, 48.43 103.79 C39.52 102.44, 29.07 98.96, 21.73 92.99 C14.39 87.03, 8.29 76.3, 4.4 68.03 C0.5 59.76, -3.68 51.89, -1.62 43.38 C0.43 34.87, 13.83 21.45, 16.73 16.96 C19.62 12.46, 15.8 15.58, 15.75 16.42" stroke="#000000" stroke-width="1" fill="none"></path></g><g stroke-opacity="0.9" fill-opacity="0.9" stroke-linecap="round" transform="translate(725.3912306446051 342.5603942666088) rotate(0 63 52.5)"><path d="M80.24 2.4 C89.47 4.21, 98.95 9.89, 105.81 15.66 C112.67 21.43, 118.27 29.54, 121.39 37.04 C124.52 44.53, 125.51 52.6, 124.57 60.63 C123.63 68.66, 121.13 78.55, 115.74 85.23 C110.35 91.91, 101.58 97.53, 92.21 100.69 C82.83 103.86, 69.51 104.62, 59.49 104.22 C49.47 103.82, 40.03 101.99, 32.08 98.28 C24.12 94.56, 17.1 89.05, 11.78 81.92 C6.46 74.79, 1.24 64.02, 0.17 55.51 C-0.9 47.01, 1.49 38.28, 5.37 30.88 C9.25 23.48, 15.9 16.21, 23.44 11.13 C30.98 6.05, 38.63 0.54, 50.6 0.4 C62.57 0.27, 85.44 7.15, 95.26 10.32 C105.08 13.5, 109.52 18.78, 109.51 19.46 M106.79 14.75 C114 18.95, 119.75 25.71, 122.88 32.77 C126.02 39.82, 127.41 48.84, 125.6 57.08 C123.79 65.33, 118.3 75.41, 112.02 82.24 C105.75 89.07, 96.63 94.14, 87.96 98.04 C79.28 101.95, 69.67 105.27, 59.98 105.66 C50.29 106.05, 38.24 104.53, 29.8 100.39 C21.35 96.26, 13.83 87.5, 9.3 80.86 C4.78 74.22, 3.58 68.38, 2.64 60.55 C1.69 52.72, 0.59 42.17, 3.63 33.86 C6.67 25.56, 13.72 16.33, 20.86 10.73 C28 5.13, 37.16 1.45, 46.48 0.25 C55.79 -0.96, 66.82 0.89, 76.74 3.49 C86.67 6.1, 101.05 14.32, 106.02 15.87 C110.99 17.41, 106.94 12.38, 106.56 12.77" stroke="#000000" stroke-width="1" fill="none"></path></g><g stroke-opacity="0.9" fill-opacity="0.9" stroke-linecap="round" transform="translate(10 353.2721346185069) rotate(0 57.7668854691633 52.411015293214405)"><path d="M19.5 12.28 C25.76 6.45, 38.63 2.09, 48.19 0.78 C57.75 -0.52, 67.89 1.2, 76.86 4.45 C85.83 7.69, 95.77 13.45, 102 20.24 C108.22 27.04, 112.7 36.66, 114.22 45.19 C115.74 53.72, 114.3 63.64, 111.11 71.44 C107.92 79.24, 102.22 86.47, 95.09 91.98 C87.96 97.5, 78.09 103.03, 68.32 104.54 C58.55 106.06, 45.56 104.08, 36.48 101.07 C27.4 98.06, 19.55 92.92, 13.85 86.48 C8.15 80.04, 3.84 71.5, 2.28 62.41 C0.71 53.33, -4.86 42.67, 4.47 31.98 C13.81 21.29, 42.89 1.5, 58.29 -1.72 C73.68 -4.94, 96.53 11.56, 96.85 12.65 M95.12 13.17 C102.74 18.49, 110 27.27, 112.84 35.69 C115.67 44.11, 114.68 54.63, 112.13 63.68 C109.58 72.74, 103.65 83.4, 97.54 90.03 C91.43 96.66, 84.36 101.14, 75.47 103.46 C66.58 105.79, 54.12 106.15, 44.18 103.96 C34.23 101.77, 22.31 96.34, 15.8 90.34 C9.29 84.33, 7.16 76.27, 5.14 67.94 C3.12 59.6, 1.64 49.11, 3.67 40.33 C5.7 31.55, 10.89 21.77, 17.3 15.27 C23.71 8.76, 33.62 3.57, 42.16 1.31 C50.69 -0.95, 59.79 -0.07, 68.51 1.71 C77.23 3.48, 89.85 9.38, 94.47 11.96 C99.09 14.54, 96.51 15.84, 96.23 17.19" stroke="#000000" stroke-width="1" fill="none"></path></g><g stroke-opacity="0.9" fill-opacity="0.9" stroke-linecap="round" transform="translate(278.5586331082959 348.6813887534079) rotate(0 57.7668854691633 52.411015293214405)"><path d="M98.87 17.14 C106.11 22.3, 113.57 30.87, 115.74 39.34 C117.91 47.82, 115.13 59.41, 111.88 68 C108.64 76.59, 103.02 85.12, 96.3 90.88 C89.57 96.65, 80.5 100.53, 71.53 102.58 C62.55 104.63, 51.98 105.22, 42.46 103.17 C32.94 101.11, 21.34 96.79, 14.41 90.24 C7.48 83.7, 2.99 72.81, 0.86 63.9 C-1.28 54.99, -1.53 45.2, 1.6 36.8 C4.73 28.39, 12.38 19.7, 19.65 13.49 C26.92 7.28, 36.04 1.63, 45.24 -0.45 C54.44 -2.54, 63.2 -6.02, 74.86 0.98 C86.52 7.97, 109.11 30.79, 115.18 41.52 C121.26 52.26, 112.54 65.79, 111.3 65.36 M26.51 9.66 C34.56 4.66, 49.01 2.46, 59.25 1.58 C69.48 0.7, 79.83 0.19, 87.92 4.38 C96.01 8.57, 103.42 18.5, 107.79 26.7 C112.16 34.9, 113.53 45.08, 114.14 53.6 C114.76 62.12, 115.72 70.33, 111.48 77.83 C107.24 85.34, 96.91 94.03, 88.71 98.64 C80.5 103.25, 71.85 105.19, 62.25 105.5 C52.65 105.81, 40.41 104.63, 31.12 100.51 C21.83 96.39, 11.32 88.72, 6.51 80.8 C1.69 72.87, 2.52 62.15, 2.24 52.98 C1.97 43.81, 0.97 33.76, 4.85 25.75 C8.74 17.74, 21.99 8.2, 25.56 4.89 C29.13 1.59, 25.65 4.66, 26.27 5.91" stroke="#000000" stroke-width="1" fill="none"></path></g><g stroke-opacity="0.9" fill-opacity="0.9" stroke-linecap="round" transform="translate(616.7435785039274 553.7347040611663) rotate(0 57.76688546916324 52.41101529321435)"><path d="M69.74 2.09 C78.98 2.95, 91.89 8.06, 98.88 13.76 C105.87 19.45, 109.38 28.13, 111.67 36.28 C113.96 44.42, 114.81 54.22, 112.62 62.61 C110.43 70.99, 105.03 79.88, 98.5 86.57 C91.98 93.25, 82.37 99.81, 73.46 102.72 C64.56 105.63, 54.39 106.35, 45.07 104.03 C35.74 101.71, 24.6 94.69, 17.53 88.81 C10.46 82.92, 5.41 76.55, 2.66 68.72 C-0.1 60.89, -0.86 50.8, 0.99 41.8 C2.83 32.8, 6.93 21.23, 13.74 14.73 C20.55 8.23, 25.67 0.51, 41.83 2.81 C57.99 5.12, 99.53 16.85, 110.7 28.56 C121.86 40.28, 109.8 72.34, 108.81 73.1 M47.71 3.27 C56.22 0.57, 67.12 0, 75.79 2.8 C84.47 5.6, 92.89 13.57, 99.76 20.1 C106.63 26.63, 115.06 33.45, 117.03 42 C119 50.55, 115.46 62.63, 111.58 71.41 C107.71 80.18, 100.7 88.88, 93.8 94.65 C86.91 100.41, 79.31 105.29, 70.19 106.01 C61.07 106.72, 48.68 102.69, 39.08 98.93 C29.48 95.17, 19.2 89.33, 12.58 83.45 C5.95 77.57, 0.98 71.7, -0.66 63.63 C-2.3 55.56, -1.17 43.21, 2.74 35.04 C6.65 26.87, 14.87 20.25, 22.79 14.62 C30.71 8.99, 46.2 2.92, 50.28 1.29 C54.35 -0.34, 47.38 3.9, 47.25 4.85" stroke="#000000" stroke-width="1" fill="none"></path></g><g stroke-opacity="0.9" fill-opacity="0.9" stroke-linecap="round" transform="translate(850.8716176239799 551.4393311286167) rotate(0 57.7668854691633 52.411015293214405)"><path d="M9.18 23.63 C13.98 16.33, 24.61 10.8, 33.62 6.92 C42.63 3.04, 53.94 -0.25, 63.24 0.38 C72.55 1, 81.62 5.78, 89.45 10.65 C97.28 15.53, 106.12 22.06, 110.22 29.62 C114.32 37.18, 114.87 47.62, 114.07 56.03 C113.27 64.43, 110.6 73.01, 105.4 80.04 C100.21 87.07, 91.34 93.82, 82.91 98.21 C74.47 102.6, 64.08 106.41, 54.78 106.38 C45.48 106.34, 35.29 103.13, 27.08 98.02 C18.88 92.91, 10.15 84.12, 5.57 75.72 C0.98 67.32, -1.9 57.2, -0.43 47.61 C1.04 38.02, 10.54 24.19, 14.4 18.18 C18.26 12.18, 22.08 10.93, 22.72 11.57 M27.88 10.01 C35.39 4.89, 43.68 3.15, 53.3 2.45 C62.92 1.75, 76.96 2.57, 85.6 5.81 C94.25 9.05, 100.25 14.86, 105.17 21.89 C110.09 28.92, 114.56 38.63, 115.14 47.99 C115.71 57.35, 112.47 70.14, 108.61 78.06 C104.75 85.97, 99.72 91.01, 91.96 95.47 C84.2 99.93, 71.81 104.01, 62.05 104.82 C52.28 105.62, 42.43 103.73, 33.37 100.32 C24.3 96.91, 13.16 91.4, 7.65 84.35 C2.15 77.29, 0.87 66.77, 0.35 57.98 C-0.16 49.2, 0.47 39.95, 4.59 31.65 C8.7 23.34, 21.08 12.01, 25.04 8.16 C29.01 4.32, 28.1 7.48, 28.39 8.57" stroke="#000000" stroke-width="1" fill="none"></path></g><g stroke-linecap="round"><g stroke-opacity="0.9" fill-opacity="0.9" transform="translate(391.81307926655495 141.76317519760428) rotate(0 -59.98821278046262 18.46859945934986)"><path d="M2.54 -1.01 C-17.52 5.53, -100.77 34.43, -121.24 40.96 M0.47 -4.02 C-19.72 1.63, -102.33 29.77, -122.51 37.29" stroke="#000000" stroke-width="1" fill="none"></path></g><g stroke-opacity="0.9" fill-opacity="0.9" transform="translate(391.81307926655495 141.76317519760428) rotate(0 -59.98821278046262 18.46859945934986)"><path d="M-100.78 20.77 C-101.78 27.63, -111.98 29.75, -122.16 39.07 M-97.74 19.06 C-106.96 21.78, -111.96 28.33, -122.88 38.05" stroke="#000000" stroke-width="1" fill="none"></path></g><g stroke-opacity="0.9" fill-opacity="0.9" transform="translate(391.81307926655495 141.76317519760428) rotate(0 -59.98821278046262 18.46859945934986)"><path d="M-93.95 40.12 C-97.01 41.93, -109.04 38.87, -122.16 39.07 M-90.91 38.42 C-102.04 35.69, -108.97 36.76, -122.88 38.05" stroke="#000000" stroke-width="1" fill="none"></path></g></g><g stroke-linecap="round"><g stroke-opacity="0.9" fill-opacity="0.9" transform="translate(485.3377501498678 130.15400550005373) rotate(0 64.8913481573133 24.889622461194733)"><path d="M2.14 1.89 C23.84 10.24, 109.19 42.27, 129.93 49.34 M-0.15 0.44 C21.36 8.15, 106.45 38.17, 128.55 45.79" stroke="#c92a2a" stroke-width="1" fill="none"></path></g><g stroke-opacity="0.9" fill-opacity="0.9" transform="translate(485.3377501498678 130.15400550005373) rotate(0 64.8913481573133 24.889622461194733)"><path d="M101.25 48.44 C111.06 43.07, 112.54 46.69, 132.32 43.91 M97.61 45.44 C108.25 47.26, 118.21 45.97, 129.13 44.18" stroke="#c92a2a" stroke-width="1" fill="none"></path></g><g stroke-opacity="0.9" fill-opacity="0.9" transform="translate(485.3377501498678 130.15400550005373) rotate(0 64.8913481573133 24.889622461194733)"><path d="M108.02 29.07 C115.77 29.4, 115.29 38.62, 132.32 43.91 M104.38 26.07 C112.31 34.71, 119.86 40.33, 129.13 44.18" stroke="#c92a2a" stroke-width="1" fill="none"></path></g></g><g stroke-linecap="round"><g stroke-opacity="0.9" fill-opacity="0.9" transform="translate(199.10304193775062 294.13098521456845) rotate(0 -52.42607229261688 24.349401165401787)"><path d="M2.5 0.85 C-15.15 9.1, -87.28 38.54, -105.77 46.88 M0.42 -1.16 C-17.52 7.71, -88.78 41.86, -107.36 49.85" stroke="#000000" stroke-width="1" fill="none"></path></g><g stroke-opacity="0.9" fill-opacity="0.9" transform="translate(199.10304193775062 294.13098521456845) rotate(0 -52.42607229261688 24.349401165401787)"><path d="M-84.79 30.5 C-94.66 33.53, -95.5 42.38, -106.86 51.67 M-87.66 30.38 C-93.75 36.35, -102.41 43.52, -107.32 51.45" stroke="#000000" stroke-width="1" fill="none"></path></g><g stroke-opacity="0.9" fill-opacity="0.9" transform="translate(199.10304193775062 294.13098521456845) rotate(0 -52.42607229261688 24.349401165401787)"><path d="M-76.24 49.15 C-88.37 46.63, -91.83 49.77, -106.86 51.67 M-79.1 49.04 C-88.54 48.36, -100.16 49.04, -107.32 51.45" stroke="#000000" stroke-width="1" fill="none"></path></g></g><g stroke-linecap="round"><g stroke-opacity="0.9" fill-opacity="0.9" transform="translate(243.65051437523437 298.9699894613657) rotate(0 34.70920255429786 20.483340026726466)"><path d="M-0.37 -0.99 C10.62 6.14, 56.03 33.75, 67.79 41.11 M-4.01 -4 C7.74 3.8, 61.28 37.8, 73.43 44.97" stroke="#000000" stroke-width="1" fill="none"></path></g><g stroke-opacity="0.9" fill-opacity="0.9" transform="translate(243.65051437523437 298.9699894613657) rotate(0 34.70920255429786 20.483340026726466)"><path d="M42.63 36.89 C55.37 42.57, 69.1 41.65, 75.77 47.51 M45.92 37.68 C54.91 41.27, 63.23 42.12, 74.91 45.26" stroke="#000000" stroke-width="1" fill="none"></path></g><g stroke-opacity="0.9" fill-opacity="0.9" transform="translate(243.65051437523437 298.9699894613657) rotate(0 34.70920255429786 20.483340026726466)"><path d="M53.41 19.43 C61.98 31.49, 71.75 36.98, 75.77 47.51 M56.7 20.22 C62.3 29.49, 67.09 36.05, 74.91 45.26" stroke="#000000" stroke-width="1" fill="none"></path></g></g><g stroke-linecap="round"><g stroke-opacity="0.9" fill-opacity="0.9" transform="translate(625.3440974026767 288.43633962681247) rotate(0 -52.3162975075557 26.564432586403683)"><path d="M1.71 0 C-16.02 9.27, -86.71 44.24, -104.66 53 M-0.8 -2.46 C-18.97 7.35, -88.48 46.12, -106.35 55.59" stroke="#000000" stroke-width="1" fill="none"></path></g><g stroke-opacity="0.9" fill-opacity="0.9" transform="translate(625.3440974026767 288.43633962681247) rotate(0 -52.3162975075557 26.564432586403683)"><path d="M-86.5 34.54 C-96.83 40.99, -104.65 51.13, -104.15 54.9 M-88.18 32.13 C-92.74 41.98, -101.65 46.61, -107.15 57.03" stroke="#000000" stroke-width="1" fill="none"></path></g><g stroke-opacity="0.9" fill-opacity="0.9" transform="translate(625.3440974026767 288.43633962681247) rotate(0 -52.3162975075557 26.564432586403683)"><path d="M-76.68 52.56 C-90.21 52.62, -101.59 56.26, -104.15 54.9 M-78.35 50.15 C-86.07 53.73, -98.35 52.18, -107.15 57.03" stroke="#000000" stroke-width="1" fill="none"></path></g></g><g stroke-linecap="round"><g stroke-opacity="0.9" fill-opacity="0.9" transform="translate(648.5495798840712 288.93587265176484) rotate(0 61.756704823994085 25.75540754662697)"><path d="M-2.51 -2.1 C18.61 6.01, 104.79 41.45, 126.02 50.76 M1.33 2.92 C22.02 11.21, 101.57 45.92, 123.09 53.62" stroke="#c92a2a" stroke-width="1" fill="none"></path></g><g stroke-opacity="0.9" fill-opacity="0.9" transform="translate(648.5495798840712 288.93587265176484) rotate(0 61.756704823994085 25.75540754662697)"><path d="M90.1 50.83 C99.33 50.03, 111.86 51.3, 122.07 52.57 M93.98 52.71 C103.99 53.8, 112.05 53.07, 121.1 51.99" stroke="#c92a2a" stroke-width="1" fill="none"></path></g><g stroke-opacity="0.9" fill-opacity="0.9" transform="translate(648.5495798840712 288.93587265176484) rotate(0 61.756704823994085 25.75540754662697)"><path d="M97.74 31.79 C105.14 36.09, 115.57 42.6, 122.07 52.57 M101.61 33.66 C108.62 41.3, 114.02 47.22, 121.1 51.99" stroke="#c92a2a" stroke-width="1" fill="none"></path></g></g><g stroke-linecap="round"><g stroke-opacity="0.9" fill-opacity="0.9" transform="translate(786.7519041568215 454.10455063080644) rotate(0 -50.36291680758444 45.99761511689303)"><path d="M2.01 -2.42 C-14.58 13.73, -84.2 79.16, -101.48 94.42 M-0.34 2.43 C-16.97 18.1, -85.69 76.13, -102.74 90.87" stroke="#000000" stroke-width="1" fill="none"></path></g><g stroke-opacity="0.9" fill-opacity="0.9" transform="translate(786.7519041568215 454.10455063080644) rotate(0 -50.36291680758444 45.99761511689303)"><path d="M-91.44 67.34 C-88.03 73.31, -98.98 79.26, -104.69 93.77 M-89.85 63.37 C-93.9 76.27, -98.82 85.86, -101.22 89.69" stroke="#000000" stroke-width="1" fill="none"></path></g><g stroke-opacity="0.9" fill-opacity="0.9" transform="translate(786.7519041568215 454.10455063080644) rotate(0 -50.36291680758444 45.99761511689303)"><path d="M-78.1 82.94 C-77.51 85.48, -91.56 87.82, -104.69 93.77 M-76.52 78.97 C-85.6 85.93, -95.57 89.61, -101.22 89.69" stroke="#000000" stroke-width="1" fill="none"></path></g></g><g stroke-linecap="round"><g stroke-opacity="0.9" fill-opacity="0.9" transform="translate(790.5209771535557 456.46797896181545) rotate(0 50.9194760807444 44.83429121915202)"><path d="M-0.97 2.4 C16.18 16.72, 85.72 74.56, 102.81 88.44 M3.7 1.23 C20.66 15.95, 85.55 69.82, 101.61 84.3" stroke="#c92a2a" stroke-width="1" fill="none"></path></g><g stroke-opacity="0.9" fill-opacity="0.9" transform="translate(790.5209771535557 456.46797896181545) rotate(0 50.9194760807444 44.83429121915202)"><path d="M76.98 76.42 C84.36 77.97, 88.7 76.99, 102.85 80.96 M74.89 72.29 C83 76.67, 96.2 83.52, 100.8 84.01" stroke="#c92a2a" stroke-width="1" fill="none"></path></g><g stroke-opacity="0.9" fill-opacity="0.9" transform="translate(790.5209771535557 456.46797896181545) rotate(0 50.9194760807444 44.83429121915202)"><path d="M90.37 60.87 C94.06 66.94, 94.42 70.57, 102.85 80.96 M88.28 56.74 C91.59 66.7, 99.88 79.25, 100.8 84.01" stroke="#c92a2a" stroke-width="1" fill="none"></path></g></g><g stroke-opacity="0.9" fill-opacity="0.9" transform="translate(59.350518049815264 516.8076667151466) rotate(0 3.5 12.5)"><text x="0" y="18" font-family="Virgil, Segoe UI Emoji" font-size="20px" fill="#000000" text-anchor="start" style="white-space: pre;" direction="ltr">1</text></g><g stroke-opacity="0.9" fill-opacity="0.9" transform="translate(332.8255185774591 512.5425424042968) rotate(0 8 12.5)"><text x="0" y="18" font-family="Virgil, Segoe UI Emoji" font-size="20px" fill="#000000" text-anchor="start" style="white-space: pre;" direction="ltr">2</text></g><g stroke-opacity="0.9" fill-opacity="0.9" transform="translate(489.3503807474277 512.2169208500477) rotate(0 8 12.5)"><text x="0" y="18" font-family="Virgil, Segoe UI Emoji" font-size="20px" fill="#000000" text-anchor="start" style="white-space: pre;" direction="ltr">3</text></g><g stroke-opacity="0.9" fill-opacity="0.9" transform="translate(663.7987236211926 702.732874251659) rotate(0 7.5 12.5)"><text x="0" y="18" font-family="Virgil, Segoe UI Emoji" font-size="20px" fill="#000000" text-anchor="start" style="white-space: pre;" direction="ltr">4</text></g><g stroke-opacity="0.9" fill-opacity="0.9" transform="translate(911.6990003365423 704.2631228733587) rotate(0 10.5 12.5)"><text x="0" y="18" font-family="Virgil, Segoe UI Emoji" font-size="20px" fill="#c92a2a" text-anchor="start" style="white-space: pre;" direction="ltr">10</text></g><g stroke-linecap="round"><g stroke-opacity="0.9" fill-opacity="0.9" transform="translate(62.41101529321463 463.8325975363093) rotate(0 0.346265407275979 20.37146963827655)"><path d="M-2.32 0.22 C-1.81 7.45, 2.23 36.12, 3.02 42.88 M1.61 -2.13 C1.69 4.32, 0.64 31.09, 0.34 38.71" stroke="#000000" stroke-width="1" fill="none"></path></g><g stroke-opacity="0.9" fill-opacity="0.9" transform="translate(62.41101529321463 463.8325975363093) rotate(0 0.346265407275979 20.37146963827655)"><path d="M-5.69 17.8 C-1.96 22.85, -3.1 28.84, 1.64 36.75 M-6.51 18.09 C-3.16 25.3, -1.74 29.07, 1.23 37.24" stroke="#000000" stroke-width="1" fill="none"></path></g><g stroke-opacity="0.9" fill-opacity="0.9" transform="translate(62.41101529321463 463.8325975363093) rotate(0 0.346265407275979 20.37146963827655)"><path d="M8.49 18.35 C8.02 23, 2.67 28.83, 1.64 36.75 M7.68 18.64 C7.36 25.68, 5.12 29.31, 1.23 37.24" stroke="#000000" stroke-width="1" fill="none"></path></g></g><g stroke-linecap="round"><g stroke-opacity="0.9" fill-opacity="0.9" transform="translate(343.21163737510767 462.30234891460964) rotate(0 0.9519166454691117 21.21086546376631)"><path d="M-0.73 -1.89 C-1.18 4.63, -0.23 34.18, -0.76 41.18 M4.07 3.25 C3.21 10, -0.39 37.83, -2.16 44.32" stroke="#000000" stroke-width="1" fill="none"></path></g><g stroke-opacity="0.9" fill-opacity="0.9" transform="translate(343.21163737510767 462.30234891460964) rotate(0 0.9519166454691117 21.21086546376631)"><path d="M-8.29 25.72 C-5.32 28.93, -5.59 39.51, 1.26 48.09 M-4.42 23.19 C-2.58 29.45, -1.54 40.83, -1.86 42.43" stroke="#000000" stroke-width="1" fill="none"></path></g><g stroke-opacity="0.9" fill-opacity="0.9" transform="translate(343.21163737510767 462.30234891460964) rotate(0 0.9519166454691117 21.21086546376631)"><path d="M5.87 28.38 C3.58 30.54, -1.93 40.14, 1.26 48.09 M9.74 25.86 C6.24 31.29, 1.95 41.67, -1.86 42.43" stroke="#000000" stroke-width="1" fill="none"></path></g></g><g stroke-linecap="round"><g stroke-opacity="0.9" fill-opacity="0.9" transform="translate(495.4713752342267 463.8325975363093) rotate(0 0.7949361568705626 20.39009772651241)"><path d="M1.8 -1.93 C2.38 4.8, 1.85 32.99, 2.29 39.87 M-0.67 3.19 C-0.43 10.33, -1.04 36.34, -0.37 42.71" stroke="#000000" stroke-width="1" fill="none"></path></g><g stroke-opacity="0.9" fill-opacity="0.9" transform="translate(495.4713752342267 463.8325975363093) rotate(0 0.7949361568705626 20.39009772651241)"><path d="M-10.82 22.37 C-8.23 30.28, -6.97 36.53, -1.72 43.91 M-7.97 25.08 C-5.24 28.37, -1.73 36.64, -0.93 41.3" stroke="#000000" stroke-width="1" fill="none"></path></g><g stroke-opacity="0.9" fill-opacity="0.9" transform="translate(495.4713752342267 463.8325975363093) rotate(0 0.7949361568705626 20.39009772651241)"><path d="M3.34 21.93 C2.29 30.14, -0.09 36.49, -1.72 43.91 M6.2 24.63 C4.22 28.05, 3.03 36.46, -0.93 41.3" stroke="#000000" stroke-width="1" fill="none"></path></g></g><g stroke-linecap="round"><g stroke-opacity="0.9" fill-opacity="0.9" transform="translate(669.1545937971415 665.0602912898185) rotate(0 1.3716988952850784 16.315948699313935)"><path d="M1.84 -1.36 C2.14 4.05, 3.65 28.48, 3.29 34 M-0.6 4.07 C-0.58 8.56, 2.77 24.9, 2.42 29.99" stroke="#000000" stroke-width="1" fill="none"></path></g><g stroke-opacity="0.9" fill-opacity="0.9" transform="translate(669.1545937971415 665.0602912898185) rotate(0 1.3716988952850784 16.315948699313935)"><path d="M-5.69 18.22 C0.48 19.2, 0.2 23.88, 3.34 29.72 M-2.73 16.75 C-2.87 20.69, 0.65 26.03, 2.17 31.44" stroke="#000000" stroke-width="1" fill="none"></path></g><g stroke-opacity="0.9" fill-opacity="0.9" transform="translate(669.1545937971415 665.0602912898185) rotate(0 1.3716988952850784 16.315948699313935)"><path d="M5.27 17.44 C7.58 18.84, 3.43 23.79, 3.34 29.72 M8.23 15.97 C4.37 20.39, 4.14 25.99, 2.17 31.44" stroke="#000000" stroke-width="1" fill="none"></path></g></g><g stroke-linecap="round"><g stroke-opacity="0.9" fill-opacity="0.9" transform="translate(919.0913070454943 662.1610967183956) rotate(0 0.5487620787903325 14.94749097742175)"><path d="M0.39 -2.49 C1.35 3.35, 3.65 26.51, 3.94 32.39 M-2.84 2.32 C-1.96 7.56, 1.97 23.73, 2.46 28.02" stroke="#c92a2a" stroke-width="1" fill="none"></path></g><g stroke-opacity="0.9" fill-opacity="0.9" transform="translate(919.0913070454943 662.1610967183956) rotate(0 0.5487620787903325 14.94749097742175)"><path d="M-8.27 16.09 C-2.55 17.2, -0.27 19.23, 3.56 29.72 M-6.2 14.9 C-2.18 19.23, -0.28 19.65, 3 28.51" stroke="#c92a2a" stroke-width="1" fill="none"></path></g><g stroke-opacity="0.9" fill-opacity="0.9" transform="translate(919.0913070454943 662.1610967183956) rotate(0 0.5487620787903325 14.94749097742175)"><path d="M2.26 14.14 C5.47 15.74, 5.28 18.22, 3.56 29.72 M4.33 12.96 C5.82 17.92, 5.14 18.82, 3 28.51" stroke="#c92a2a" stroke-width="1" fill="none"></path></g></g><g stroke-opacity="0.9" fill-opacity="0.9" transform="translate(864.6385030931432 593.8503464218311) rotate(0 44 10)"><text x="44" y="14" font-family="Virgil, Segoe UI Emoji" font-size="16px" fill="#c92a2a" text-anchor="middle" style="white-space: pre;" direction="ltr">h5=Hash(5)</text></g><g stroke-opacity="0.9" fill-opacity="0.9" transform="translate(630.5104639730909 596.1457193543807) rotate(0 44 10)"><text x="44" y="14" font-family="Virgil, Segoe UI Emoji" font-size="16px" fill="#000000" text-anchor="middle" style="white-space: pre;" direction="ltr">h4=Hash(4)</text></g><g stroke-opacity="0.9" fill-opacity="0.9" transform="translate(448.941126612527 395.6831499117211) rotate(0 45 10)"><text x="45" y="14" font-family="Virgil, Segoe UI Emoji" font-size="16px" fill="#000000" text-anchor="middle" style="white-space: pre;" direction="ltr">h3=Hash(3)</text></g><g stroke-opacity="0.9" fill-opacity="0.9" transform="translate(290.8255185774592 391.0924040466223) rotate(0 45.5 10)"><text x="45.5" y="14" font-family="Virgil, Segoe UI Emoji" font-size="16px" fill="#000000" text-anchor="middle" style="white-space: pre;" direction="ltr">h2=Hash(2)</text></g><g stroke-opacity="0.9" fill-opacity="0.9" transform="translate(29.2668854691633 395.68314991172133) rotate(0 38.5 10)"><text x="38.5" y="14" font-family="Virgil, Segoe UI Emoji" font-size="16px" fill="#000000" text-anchor="middle" style="white-space: pre;" direction="ltr">h1=Hash(1)</text></g><g stroke-opacity="0.9" fill-opacity="0.9" transform="translate(168.5551107916691 232.12268699391862) rotate(0 57 10)"><text x="57" y="14" font-family="Virgil, Segoe UI Emoji" font-size="16px" fill="#000000" text-anchor="middle" style="white-space: pre;" direction="ltr">h6=Hash(h1,h2)</text></g><g stroke-opacity="0.9" fill-opacity="0.9" transform="translate(729.8912306446051 385.0603942666088) rotate(0 58.5 10)"><text x="58.5" y="14" font-family="Virgil, Segoe UI Emoji" font-size="16px" fill="#000000" text-anchor="middle" style="white-space: pre;" direction="ltr">h7=Hash(h4,h5)</text></g><g stroke-opacity="0.9" fill-opacity="0.9" transform="translate(585.2827358939845 222.8540403664418) rotate(0 60 10)"><text x="60" y="14" font-family="Virgil, Segoe UI Emoji" font-size="16px" fill="#000000" text-anchor="middle" style="white-space: pre;" direction="ltr">h8=Hash(h3,h7)</text></g><g stroke-opacity="0.9" fill-opacity="0.9" transform="translate(373.7258639440023 82.45372932549535) rotate(0 60 20)"><text x="60" y="34" font-family="Virgil, Segoe UI Emoji" font-size="16px" fill="#000000" text-anchor="middle" style="white-space: pre;" direction="ltr">h9=Hash(h6,h8)</text></g><g stroke-opacity="0.9" fill-opacity="0.9" transform="translate(419.7240684600921 10) rotate(0 20 10)"><text x="0" y="14" font-family="Virgil, Segoe UI Emoji" font-size="16px" fill="#c92a2a" text-anchor="start" style="white-space: pre;" direction="ltr">Root</text></g><g stroke-opacity="0.9" fill-opacity="0.9" transform="translate(314.9020378736635 122.3291438708761) rotate(0 10 17.5)"><text x="0" y="25" font-family="Virgil, Segoe UI Emoji" font-size="28px" fill="#000000" text-anchor="start" style="white-space: pre;" direction="ltr">A</text></g><g stroke-opacity="0.9" fill-opacity="0.9" transform="translate(545.2044554394666 113.91277645152783) rotate(0 10 17.5)"><text x="0" y="25" font-family="Virgil, Segoe UI Emoji" font-size="28px" fill="#000000" text-anchor="start" style="white-space: pre;" direction="ltr">C</text></g><g stroke-opacity="0.9" fill-opacity="0.9" transform="translate(124.38608447205206 285.30062208189304) rotate(0 15.5 17.5)"><text x="0" y="25" font-family="Virgil, Segoe UI Emoji" font-size="28px" fill="#000000" text-anchor="start" style="white-space: pre;" direction="ltr">nt</text></g><g stroke-opacity="0.9" fill-opacity="0.9" transform="translate(295.77393010241724 289.12624363614225) rotate(0 26 17.5)"><text x="0" y="25" font-family="Virgil, Segoe UI Emoji" font-size="28px" fill="#000000" text-anchor="start" style="white-space: pre;" direction="ltr">pple</text></g><g stroke-opacity="0.9" fill-opacity="0.9" transform="translate(547.4998283720162 282.24012483849367) rotate(0 20.5 17.5)"><text x="0" y="25" font-family="Virgil, Segoe UI Emoji" font-size="28px" fill="#000000" text-anchor="start" style="white-space: pre;" direction="ltr">old</text></g><g stroke-opacity="0.9" fill-opacity="0.9" transform="translate(715.0620524481322 281.47500052764383) rotate(0 10.5 17.5)"><text x="0" y="25" font-family="Virgil, Segoe UI Emoji" font-size="28px" fill="#000000" text-anchor="start" style="white-space: pre;" direction="ltr">a</text></g><g stroke-opacity="0.9" fill-opacity="0.9" transform="translate(861.9659201313026 467.4002080641561) rotate(0 9 17.5)"><text x="0" y="25" font-family="Virgil, Segoe UI Emoji" font-size="28px" fill="#000000" text-anchor="start" style="white-space: pre;" direction="ltr">t</text></g><g stroke-opacity="0.9" fill-opacity="0.9" transform="translate(715.8271767589821 471.2258296184053) rotate(0 7 17.5)"><text x="0" y="25" font-family="Virgil, Segoe UI Emoji" font-size="28px" fill="#000000" text-anchor="start" style="white-space: pre;" direction="ltr">r</text></g><g stroke-opacity="0.9" fill-opacity="0.9" transform="translate(469.45714866533206 101.16367419348293) rotate(0 8.416367419348262 0)" stroke="none"><path fill="#c92a2a" d="M 0,-2.65 Q 0,-2.65 0.87,-2.69 1.75,-2.72 3.13,-2.79 4.51,-2.86 5.61,-2.91 6.71,-2.97 8.03,-3.04 9.35,-3.11 10.73,-3.16 12.11,-3.21 13.41,-3.26 14.71,-3.30 16.53,-3.31 18.36,-3.32 18.89,-3.24 19.42,-3.15 19.90,-2.90 20.37,-2.65 20.74,-2.25 21.11,-1.86 21.34,-1.37 21.57,-0.89 21.62,-0.35 21.68,0.18 21.57,0.70 21.45,1.23 21.17,1.69 20.90,2.15 20.48,2.50 20.07,2.85 19.57,3.05 19.07,3.25 18.54,3.28 18.00,3.31 17.48,3.16 16.96,3.02 16.51,2.71 16.07,2.41 15.74,1.98 15.42,1.55 15.24,1.04 15.07,0.53 15.07,-0.00 15.07,-0.53 15.24,-1.04 15.42,-1.56 15.74,-1.98 16.07,-2.41 16.51,-2.71 16.96,-3.02 17.48,-3.16 18.00,-3.31 18.54,-3.28 19.07,-3.25 19.57,-3.05 20.08,-2.85 20.49,-2.50 20.90,-2.15 21.17,-1.69 21.45,-1.23 21.57,-0.70 21.68,-0.17 21.62,0.35 21.57,0.89 21.34,1.38 21.11,1.86 20.74,2.26 20.37,2.65 19.90,2.90 19.42,3.15 18.89,3.24 18.36,3.32 18.36,3.32 18.36,3.32 16.53,3.31 14.71,3.30 13.41,3.26 12.11,3.21 10.73,3.16 9.35,3.11 8.03,3.04 6.71,2.97 5.61,2.91 4.51,2.86 3.13,2.79 1.75,2.72 0.87,2.69 0,2.65 -0.31,2.61 -0.63,2.57 -0.93,2.46 -1.23,2.35 -1.49,2.17 -1.76,1.98 -1.97,1.74 -2.18,1.50 -2.33,1.22 -2.48,0.94 -2.56,0.63 -2.63,0.32 -2.63,-0.00 -2.63,-0.32 -2.56,-0.63 -2.48,-0.94 -2.33,-1.22 -2.18,-1.50 -1.97,-1.74 -1.76,-1.98 -1.49,-2.17 -1.23,-2.35 -0.93,-2.46 -0.63,-2.57 -0.31,-2.61 0.00,-2.65 0.00,-2.65 L 0,-2.65 Z"></path></g><g stroke-opacity="0.9" fill-opacity="0.9" transform="translate(682.9268313924387 240.4162987681547) rotate(0 8.033805263923455 0.765124310849842)" stroke="none"><path fill="#c92a2a" d="M 0.64,-2.57 Q 0.64,-2.57 1.58,-2.35 2.52,-2.14 3.63,-1.79 4.74,-1.45 5.84,-1.47 6.94,-1.50 8.16,-1.55 9.37,-1.61 10.52,-1.66 11.67,-1.71 13.87,-1.74 16.06,-1.76 16.59,-1.68 17.12,-1.59 17.59,-1.34 18.06,-1.09 18.43,-0.70 18.79,-0.32 19.02,0.16 19.24,0.64 19.30,1.17 19.36,1.70 19.24,2.23 19.13,2.75 18.85,3.20 18.58,3.66 18.17,4.01 17.76,4.35 17.27,4.55 16.77,4.75 16.24,4.78 15.71,4.80 15.19,4.66 14.68,4.52 14.24,4.22 13.79,3.92 13.47,3.49 13.15,3.07 12.98,2.56 12.81,2.06 12.81,1.52 12.81,0.99 12.98,0.49 13.15,-0.01 13.47,-0.43 13.79,-0.86 14.24,-1.16 14.68,-1.46 15.19,-1.60 15.71,-1.74 16.24,-1.71 16.77,-1.69 17.27,-1.49 17.76,-1.29 18.17,-0.94 18.58,-0.60 18.85,-0.14 19.13,0.31 19.24,0.83 19.36,1.35 19.30,1.88 19.24,2.41 19.02,2.89 18.79,3.38 18.42,3.76 18.06,4.15 17.59,4.40 17.11,4.65 16.59,4.74 16.06,4.82 16.06,4.82 16.06,4.82 13.87,4.80 11.67,4.77 10.51,4.72 9.35,4.67 8.09,4.60 6.82,4.53 5.51,4.43 4.19,4.34 2.59,3.68 0.99,3.02 0.17,2.79 -0.64,2.57 -0.94,2.45 -1.23,2.34 -1.50,2.16 -1.76,1.97 -1.97,1.73 -2.18,1.49 -2.33,1.21 -2.48,0.93 -2.55,0.62 -2.63,0.31 -2.63,-0.00 -2.62,-0.32 -2.55,-0.63 -2.47,-0.94 -2.32,-1.23 -2.17,-1.51 -1.96,-1.75 -1.75,-1.98 -1.48,-2.17 -1.22,-2.35 -0.92,-2.46 -0.62,-2.57 -0.30,-2.61 0.00,-2.65 0.32,-2.61 0.64,-2.57 0.64,-2.57 L 0.64,-2.57 Z"></path></g><g stroke-opacity="0.9" fill-opacity="0.9" transform="translate(825.23995321051 404.91802560087126) rotate(0 7.268680953073499 0.382562155424921)" stroke="none"><path fill="#c92a2a" d="M 0.64,-2.57 Q 0.64,-2.57 1.53,-2.38 2.41,-2.20 3.63,-2.18 4.85,-2.17 6.32,-2.24 7.79,-2.30 9.28,-2.36 10.76,-2.41 12.65,-2.43 14.53,-2.44 15.05,-2.36 15.56,-2.28 16.02,-2.03 16.48,-1.79 16.83,-1.41 17.19,-1.03 17.41,-0.56 17.63,-0.09 17.69,0.42 17.74,0.93 17.63,1.44 17.52,1.95 17.25,2.40 16.98,2.84 16.59,3.18 16.19,3.51 15.71,3.71 15.22,3.90 14.70,3.93 14.18,3.95 13.68,3.82 13.18,3.68 12.75,3.38 12.32,3.09 12.01,2.68 11.69,2.27 11.53,1.77 11.36,1.28 11.36,0.76 11.36,0.24 11.53,-0.24 11.69,-0.74 12.01,-1.15 12.32,-1.56 12.75,-1.86 13.18,-2.15 13.68,-2.29 14.19,-2.42 14.70,-2.40 15.22,-2.37 15.71,-2.18 16.19,-1.98 16.59,-1.65 16.98,-1.31 17.25,-0.86 17.52,-0.42 17.63,0.08 17.74,0.59 17.69,1.10 17.63,1.62 17.41,2.09 17.19,2.56 16.83,2.94 16.48,3.32 16.02,3.56 15.56,3.81 15.04,3.89 14.53,3.97 14.53,3.97 14.53,3.97 12.65,3.96 10.76,3.94 9.67,3.91 8.58,3.87 7.26,3.80 5.93,3.72 4.79,3.64 3.65,3.55 2.37,3.32 1.10,3.08 0.22,2.82 -0.64,2.57 -0.94,2.46 -1.24,2.34 -1.50,2.16 -1.76,1.98 -1.97,1.74 -2.18,1.50 -2.33,1.21 -2.48,0.93 -2.56,0.62 -2.63,0.31 -2.63,-0.00 -2.63,-0.32 -2.55,-0.63 -2.47,-0.94 -2.32,-1.23 -2.17,-1.51 -1.96,-1.75 -1.75,-1.99 -1.48,-2.17 -1.22,-2.35 -0.92,-2.46 -0.62,-2.57 -0.30,-2.61 0.00,-2.65 0.32,-2.61 0.64,-2.57 0.64,-2.57 L 0.64,-2.57 Z"></path></g></svg>