<svg version="1.1" xmlns="http://www.w3.org/2000/svg" viewBox="0 0 347.4732050437333 410.2133985334208" width="347.4732050437333" height="410.2133985334208">
  <!-- svg-source:excalidraw -->
  <rect x="0" y="0" width="100%" height="100%" fill="white" />
  <defs>
    <style>
      @font-face {
        font-family: "Virgil";
        src: url("https://excalidraw.com/Virgil.woff2");
      }
      @font-face {
        font-family: "Cascadia";
        src: url("https://excalidraw.com/Cascadia.woff2");
      }
    </style>
  </defs>
  <g stroke-opacity="0.9" fill-opacity="0.9" stroke-linecap="round" transform="translate(13.060497243399368 11.530248621699684) rotate(0 161.0586674338923 194.34157495586055)"><path d="M-1.34 -2.28 C84.93 0.71, 166.24 -1.28, 323.44 -1.07 M-0.7 0.24 C105.74 -3.57, 211.6 -3.52, 320.99 0.91 M320.92 1.49 C324.07 147.72, 325.54 290.9, 323.94 390.99 M321.56 0.49 C322.38 117.86, 322.62 238.24, 322.34 387.98 M322.12 391.38 C198.14 391.06, 75.86 389.51, -0.38 389.36 M323.25 387.34 C257.36 385.58, 190.61 385.5, -1.15 387.77 M-1.84 388.59 C1.35 299.63, 4 204.92, -0.71 0.88 M0.72 388.03 C-3.71 299.52, -3.33 212.83, -1.16 0.05" stroke="#000000" stroke-width="1" fill="none"></path></g><g stroke-opacity="0.9" fill-opacity="0.9" stroke-linecap="round" transform="translate(10 10) rotate(0 161.44122958931723 50.880766671514664)"><path d="M-0.37 -1.94 C79.87 2.61, 160.84 3.75, 321.6 0.7 M0.4 0.07 C98.86 -1.65, 197.4 -2.31, 323.12 -0.88 M325.94 0.16 C322.15 31.55, 321.43 57.51, 326.77 101.52 M324.02 -0.54 C323.82 34.79, 320.64 73.99, 323.48 99.83 M320.37 100.99 C223.95 98.86, 120.66 100, 1.62 101.53 M323.24 102.58 C246.63 98.19, 170.73 98.48, 0.28 102.8 M-0.24 98.73 C1.5 76.37, 1.44 40.35, 3.48 1.56 M0.23 102.57 C3.54 60.85, 2.35 23.17, -1.89 0.79" stroke="#000000" stroke-width="1" fill="none"></path></g><g stroke-opacity="0.9" fill-opacity="0.9" stroke-linecap="round" transform="translate(14.590745865098825 297.3041787241168) rotate(0 161.44122958931723 50.880766671514664)"><path d="M-2.74 0.31 C110.54 6.31, 216.34 4.65, 322.38 -2.63 M0.29 0.55 C110.76 2.91, 219.32 2.7, 323.14 0.64 M323.81 -1.66 C322.91 32.35, 324.23 69.54, 321.62 98.14 M321.2 -0.11 C319.77 23.76, 322.05 42.69, 321.03 100.67 M320.79 104.38 C245.61 98.26, 168.2 100.13, -0.37 104 M322.53 101.46 C194.82 105.17, 68.85 104.49, 0.13 101.41 M-3.03 103.49 C2.65 74.49, 3.46 46.22, 2.65 -3.77 M0.59 100.08 C-3.03 67.28, -0.11 27.21, -1.43 0.81" stroke="#000000" stroke-width="1" fill="none"></path></g><g stroke-opacity="0.9" fill-opacity="0.9" transform="translate(87.94122958931723 48.380766671514664) rotate(0 83.5 12.5)"><text x="83.5" y="18" font-family="Virgil, Segoe UI Emoji" font-size="20px" fill="#000000" text-anchor="middle" style="white-space: pre;" direction="ltr">Block header - H</text></g><g stroke-opacity="0.9" fill-opacity="0.9" transform="translate(118.53197545441606 335.6849453956314) rotate(0 57.5 12.5)"><text x="57.5" y="18" font-family="Virgil, Segoe UI Emoji" font-size="20px" fill="#000000" text-anchor="middle" style="white-space: pre;" direction="ltr">Ommers - U</text></g><g stroke-opacity="0.9" fill-opacity="0.9" transform="translate(86.61916467729168 193.37182357756024) rotate(0 87.5 12.5)"><text x="87.5" y="18" font-family="Virgil, Segoe UI Emoji" font-size="20px" fill="#000000" text-anchor="middle" style="white-space: pre;" direction="ltr">Transactions - T</text></g></svg>