<svg version="1.1" xmlns="http://www.w3.org/2000/svg" viewBox="0 0 744.3343253858159 1361.9779459635422" width="2233.002976157448" height="4085.933837890627">
  <!-- svg-source:excalidraw -->
  
  <defs>
    <style class="style-fonts">
      @font-face {
        font-family: "Virgil";
        src: url("https://excalidraw.com/Virgil.woff2");
      }
      @font-face {
        font-family: "Cascadia";
        src: url("https://excalidraw.com/Cascadia.woff2");
      }
    </style>
    
  </defs>
  <rect x="0" y="0" width="744.3343253858159" height="1361.9779459635422" fill="#ffffff"></rect><g stroke-linecap="round" transform="translate(10 11.391532204368104) rotate(0 84.43057898319125 67.62901074958563)"><path d="M-0.05 0.68 L168.43 0.25 L168.87 135.77 L-0.05 133.92" stroke="none" stroke-width="0" fill="#ffc9c9"></path><path d="M1.06 -0.96 C47.41 0.67, 96.24 -1.65, 167.72 1.84 M-0.71 -0.99 C40.86 -1.64, 82.03 -0.98, 167.96 0.84 M166.98 -1.79 C169.7 33.01, 171.05 64.29, 170.4 135.13 M168.86 -0.8 C167.69 31.63, 167.89 63.27, 169.64 135.35 M170.34 134.11 C131.36 132.64, 91.92 134.62, 0.51 136.48 M169.51 136.14 C130.65 134.17, 92.41 134.79, -0.53 134.59 M-1.9 135.87 C2.56 89.35, 1.83 41.86, 1.43 1.27 M-0.74 135.03 C-0.78 100.41, 0.72 64.38, 0.3 -0.33" stroke="#1e1e1e" stroke-width="4" fill="none"></path></g><g stroke-linecap="round" transform="translate(225.70980187618363 11.123671098189106) rotate(0 84.43057898319125 67.62901074958563)"><path d="M-0.56 -0.57 C38.73 0.44, 72.9 -0.16, 167.11 1.48 M0.11 0.42 C41.22 1.58, 81.18 0.05, 168.31 0.65 M167.98 0.91 C167.52 51.22, 169.4 103.33, 169.99 133.36 M169.17 -0.58 C170.49 45.38, 169.42 89.44, 168.33 134.52 M170.15 136.51 C122.67 136.12, 75.22 137.47, -0.43 135.5 M168.19 135.27 C118.06 135.53, 67.52 136.07, 0.03 135.56 M0.91 134.58 C0.34 99.08, -1.15 59.19, 1.86 -0.44 M0.32 135.26 C1.75 84.96, 1.29 36.59, -0.12 -0.85" stroke="#1e1e1e" stroke-width="4" fill="none"></path></g><g stroke-linecap="round" transform="translate(442.34067974668574 10) rotate(0 84.43057898319125 67.62901074958563)"><path d="M-0.99 0.41 L170.57 0.02 L170.67 135.76 L0.22 135.85" stroke="none" stroke-width="0" fill="#ffc9c9"></path><path d="M-0.18 -0.82 C52.14 -0.3, 102.68 1.81, 167.58 -0.83 M-0.88 -0.6 C66.68 -1.1, 133.27 -2, 168.96 0.13 M168.47 -0.45 C166.12 37.83, 169.4 79.17, 169.84 136.32 M168.79 -0.49 C167.57 27.88, 167.65 56.1, 168.31 135.31 M169.5 134.68 C101.04 134.39, 36.08 132.02, -1.38 136.32 M169.02 135.92 C104.03 136.01, 37.75 135.49, 0.91 135.63 M0.44 135.37 C-0.53 90.09, 0.62 43.56, 0.5 -0.75 M-0.82 135.18 C0.16 100.69, 0.64 65.95, 0.45 0.76" stroke="#1e1e1e" stroke-width="4" fill="none"></path></g><g stroke-linecap="round" transform="translate(13.494077740293392 185.72184475985478) rotate(0 84.43057898319125 67.62901074958563)"><path d="M-0.65 0.73 L168.74 -0.86 L170.04 135.62 L1.41 135.37" stroke="none" stroke-width="0" fill="#b2f2bb"></path><path d="M1.13 -0.53 C38.65 2.16, 75 0.27, 169.27 1.71 M0.11 0.29 C50.4 -0.73, 102.24 -0.31, 168.13 0.2 M167.82 -0.12 C166.53 44.4, 168.78 88.11, 167.11 133.44 M169.21 0.68 C168.62 32.87, 168.44 64.84, 169.1 136.13 M168.28 136.92 C126.68 135.97, 81.34 132.92, -1.83 135.81 M168.17 135.64 C121.33 133.78, 75.4 134.77, -0.17 134.64 M0.25 134.45 C-1.4 88.3, -1.09 46.37, 1.76 1.45 M-0.88 134.33 C-0.02 98.86, -1.38 64.63, 0.51 0.24" stroke="#1e1e1e" stroke-width="4" fill="none"></path></g><g stroke-linecap="round" transform="translate(229.20387961647702 185.45398365367555) rotate(0 84.43057898319125 67.62901074958563)"><path d="M1.91 0.9 C39.57 -0.54, 76.54 2.16, 168.88 1.81 M-0.45 -0.3 C55.45 -0.38, 109.06 -0.29, 169.11 -0.47 M167.16 0.42 C168.71 28.28, 166.41 54.44, 167.65 134.88 M168.87 0.47 C169.18 42.59, 169.58 86, 168.44 135.64 M170.3 136.37 C121.88 134.72, 73.62 137.22, -0.48 136.91 M167.93 134.52 C125.4 136.17, 82.29 135.28, 0.34 135.72 M-0.77 133.44 C-0.63 104.93, 1.59 73.28, -0.74 1.07 M0.71 134.42 C0.54 82, 1.7 27.99, -0.32 0.36" stroke="#1e1e1e" stroke-width="4" fill="none"></path></g><g stroke-linecap="round" transform="translate(445.83475748697913 184.33031255548667) rotate(0 84.43057898319125 67.62901074958563)"><path d="M1.18 0.36 L170.27 0.11 L168.39 134.25 L-1.58 133.54" stroke="none" stroke-width="0" fill="#b2f2bb"></path><path d="M1.51 -0.99 C46.56 0.95, 92.31 1.05, 169.36 0.22 M0.56 0.12 C54.89 0.72, 111.49 0.04, 167.94 -0.52 M169.42 0.14 C165.96 37.92, 166.51 79.1, 169.15 135.97 M168.7 0.03 C169.12 50.68, 168.46 99.99, 168.63 134.97 M168.59 133.32 C102.33 136.75, 38.97 137.84, -0.88 133.88 M168.6 135.52 C111.55 133.39, 54.93 134.48, -0.66 135.38 M-0.46 136.65 C2.28 101.63, -0.22 66.17, 1.95 -1.76 M-0.65 135.75 C-0.45 107.53, -1.28 79.69, -0.06 -0.43" stroke="#1e1e1e" stroke-width="4" fill="none"></path></g><g stroke-linecap="round" transform="translate(13.121994480942476 355.3902215668652) rotate(0 84.43057898319125 67.62901074958563)"><path d="M1.6 -0.93 L169 -1.82 L169.05 136.31 L-1.91 136.16" stroke="none" stroke-width="0" fill="#b2f2bb"></path><path d="M-0.22 -0.37 C62.07 0.81, 126.01 -1.24, 167.15 -0.33 M0 -0.75 C49.29 -1.67, 100.15 -0.66, 168.3 0.16 M168.26 -1.6 C167.13 42.69, 170.57 81.25, 170.61 135.69 M168.51 0.04 C169.19 49.86, 169.38 99.45, 168.12 134.91 M167.88 134.02 C117.94 132.2, 64.28 136.13, -0.69 136.23 M168.92 135.63 C105.76 135.66, 41.01 135.92, 0.21 134.58 M-1.58 133.32 C-2.55 96.24, -1.38 54.22, -0.1 0.58 M0.25 134.5 C-1.03 85.61, -1 36.5, 0.52 -0.32" stroke="#1e1e1e" stroke-width="4" fill="none"></path></g><g stroke-linecap="round" transform="translate(228.831796357126 355.1223604606862) rotate(0 84.43057898319125 67.62901074958563)"><path d="M-0.38 0.16 C45.3 -1.58, 86.66 -0.02, 168.8 -0.88 M-0.83 -0.47 C62.59 1.82, 124.83 1.43, 168.92 0.07 M167.03 1.32 C170.06 47.48, 170.21 98.38, 170.2 135.97 M168.71 0.24 C168.42 38.06, 167.65 75.33, 168.98 135.28 M170.59 133.32 C130.09 136.2, 89.21 135.19, 1.53 136.93 M169.34 135.84 C119.37 136.73, 71.49 135.2, -0.03 136.17 M-1.31 136.41 C0.92 93.81, 0.97 54.36, 1.37 0.37 M-0.78 135.44 C-1.08 87.55, 0.18 37.71, 0.8 -0.47" stroke="#1e1e1e" stroke-width="4" fill="none"></path></g><g stroke-linecap="round" transform="translate(445.4626742276282 353.9986893624971) rotate(0 84.43057898319125 67.62901074958563)"><path d="M0.19 1.05 L166.95 0.9 L166.96 134.92 L1.65 137" stroke="none" stroke-width="0" fill="#b2f2bb"></path><path d="M1.11 -1.89 C45.81 -0.46, 94.99 -1.02, 170.29 0 M-0.1 0.54 C37.35 0.95, 75.88 0.86, 169.48 -0.3 M170.47 -1.49 C169.37 30.19, 168.96 60.22, 168.46 134.57 M168.89 0.21 C167.91 40.79, 168.77 82.3, 168.2 134.77 M169.57 137.25 C127.97 134.6, 89.98 135.29, -0.22 135.37 M168.16 136.11 C112.14 135.57, 54.98 137.16, 0.01 134.47 M-0.14 134.55 C0.79 108.38, 2.25 80.71, 1.19 0.5 M-0.75 136.16 C1.58 104.64, 1.86 74.18, 0.07 -0.91" stroke="#1e1e1e" stroke-width="4" fill="none"></path></g><g stroke-linecap="round" transform="translate(16.437775582978247 529.7205341223519) rotate(0 84.43057898319125 67.62901074958563)"><path d="M-1.91 0.9 L166.96 -0.34 L170.51 137 L-1.47 137.15" stroke="none" stroke-width="0" fill="#b2f2bb"></path><path d="M-1.72 -0.33 C51.93 0.71, 105.41 1.6, 167.35 -1.66 M-0.56 0.16 C42.83 -0.85, 86.15 -1.22, 168.06 -0.92 M170.61 0.44 C171.28 50.22, 169.54 98.32, 168.94 134.95 M168.12 -0.35 C169.02 43.88, 168.24 87.22, 168.24 136.12 M168.18 136.23 C136.09 138.61, 100.03 137.05, 0.74 136.21 M169.07 134.58 C108.29 137.6, 47.78 135.9, -0.97 134.6 M-0.1 135.84 C1.47 87.28, 1.29 39.06, -1.52 -1.56 M0.52 134.94 C1.81 91.69, 1.08 48.14, 0.1 0.53" stroke="#1e1e1e" stroke-width="4" fill="none"></path></g><g stroke-linecap="round" transform="translate(232.147577459162 529.4526730161726) rotate(0 84.43057898319125 67.62901074958563)"><path d="M-0.06 -0.88 C36.11 0.28, 67.87 -1.38, 167.93 -0.2 M0.06 0.07 C60.48 -0.57, 118.91 -1.19, 169.52 0.8 M170.2 0.72 C169.64 29.8, 170.13 60.69, 169.35 135.32 M168.98 0.03 C167.2 42.99, 167.24 87.82, 167.89 135.61 M170.39 136.93 C101.19 136.2, 34.7 137.04, 1.17 133.86 M168.83 136.17 C103.9 133.32, 37.95 133.45, 0.57 135.19 M1.37 135.63 C1.26 99.97, -1.45 62.12, 0.37 -1.49 M0.8 134.79 C-0.64 81.52, -0.61 30.14, -0.96 0.45" stroke="#1e1e1e" stroke-width="4" fill="none"></path></g><g stroke-linecap="round" transform="translate(448.778455329664 528.3290019179838) rotate(0 84.43057898319125 67.62901074958563)"><path d="M1.65 1.74 L167.39 1.89 L168.87 134.23 L-1.88 135.07" stroke="none" stroke-width="0" fill="#b2f2bb"></path><path d="M1.43 0 C46.36 -0.91, 94.8 0.55, 169.95 -1.11 M0.62 -0.3 C52.56 -1.04, 107.38 0.68, 168.12 0.88 M168.46 -0.69 C169.85 43.21, 170.25 87.11, 169.29 133.77 M168.2 -0.49 C168.4 36.71, 168.05 72.04, 169.86 134.92 M168.64 135.37 C110.72 137.62, 52.26 135.27, 1.7 135.68 M168.87 134.47 C128.73 136.15, 91.11 136.73, -0.35 135.21 M1.19 135.76 C-2.44 89.21, -0.55 44.8, 1.81 1.04 M0.07 134.35 C-0.99 99.48, -2.04 63.1, -0.95 -0.17" stroke="#1e1e1e" stroke-width="4" fill="none"></path></g><g stroke-linecap="round" transform="translate(13.884009158972617 702.6780411691384) rotate(0 84.43057898319125 67.62901074958563)"><path d="M-1.23 -1.28 L169.28 -0.3 L170.23 135.12 L-1.57 134.43" stroke="none" stroke-width="0" fill="#b2f2bb"></path><path d="M-1.84 1.22 C60.3 1.97, 120.34 1.63, 168.49 1.55 M0.29 0.25 C56.95 -0.56, 115.16 0.81, 168.06 0.19 M170.83 -0.98 C169.53 37.29, 166.91 68.89, 169.13 134.62 M168.11 -0.97 C168.21 53.37, 168.84 108.45, 167.98 135.79 M169.78 134.47 C106.4 133.12, 41.39 135.76, -0.89 135.96 M169.16 135.94 C132.97 136.97, 97.76 137.63, 0.71 135.78 M1.61 134.43 C1.25 83.54, 0.86 30.37, -0.8 0.91 M0.21 135.73 C-0.55 99.38, -0.64 64.09, -1 -0.27" stroke="#1e1e1e" stroke-width="4" fill="none"></path></g><g stroke-linecap="round" transform="translate(229.59381103515614 702.4101800629592) rotate(0 84.43057898319125 67.62901074958563)"><path d="M-0.02 1.42 C44.84 0.05, 89.95 0.53, 169.64 0.28 M-0.26 -0.69 C50.03 0.24, 97.8 -0.24, 168.48 -0.42 M170.1 1.87 C168.82 51.4, 170.46 106.07, 170.83 134.89 M168.46 -0.51 C168.07 43.61, 166.96 86.4, 169.64 135.62 M170.27 134.51 C132.36 136.49, 94.42 135.3, -1.76 134.45 M168.75 135.37 C102.75 137.18, 36.43 136.92, 0.86 134.36 M0.03 135.75 C-1.45 87.35, -1.89 41.29, -0.75 1.14 M0.23 134.88 C-0.15 85.84, -1.28 36.49, -0.62 -0.64" stroke="#1e1e1e" stroke-width="4" fill="none"></path></g><g stroke-linecap="round" transform="translate(446.22468890565835 701.2865089647698) rotate(0 84.43057898319125 67.62901074958563)"><path d="M1.37 -0.13 L167.29 -0.82 L167.45 136.49 L0.85 135.73" stroke="none" stroke-width="0" fill="#b2f2bb"></path><path d="M-0.32 1.08 C60.58 0.35, 122.66 -0.92, 168.7 0.59 M0.74 0.67 C54.13 1.36, 109.48 0.75, 169.81 0.99 M167.48 -1.95 C169.97 33.33, 171.66 67.56, 169.21 133.75 M169.09 0.68 C167.43 28.01, 169.1 55.31, 168.04 135.72 M169.13 137.15 C123.95 135.33, 79.06 133.81, 1.89 135.86 M169.32 136.04 C107.47 135.97, 45.52 134.56, 0.51 136.06 M-0.36 134.79 C-0.82 101.2, -0.77 66.46, 1.28 0.42 M0.13 135.09 C-1.31 87.99, -0.92 40.63, 0.21 -0.15" stroke="#1e1e1e" stroke-width="4" fill="none"></path></g><g stroke-linecap="round" transform="translate(17.378086899265895 877.0083537246251) rotate(0 84.43057898319125 67.62901074958563)"><path d="M-1.57 -0.82 L167.45 1.23 L169.71 135.73 L0.04 134.62" stroke="none" stroke-width="0" fill="#b2f2bb"></path><path d="M-0.37 1.55 C63.46 -0.63, 125.21 -0.32, 169.37 -0.52 M-0.8 0.19 C38.59 -1.55, 78.88 -0.15, 168.37 0.62 M169.13 -0.64 C169.9 52.86, 168.28 104.93, 166.92 134.45 M167.98 0.53 C169.95 34.02, 168.35 67.79, 168.47 135.96 M167.97 135.96 C122.78 136.04, 82.1 137.46, 1.36 135.03 M169.58 135.78 C117.1 135.68, 64.13 137.38, -0.41 135.27 M-0.8 136.17 C-0.51 92.51, 1.52 47.89, 0.95 0.45 M-1 134.98 C-0.79 99.19, 0.03 64.24, 0.69 -0.07" stroke="#1e1e1e" stroke-width="4" fill="none"></path></g><g stroke-linecap="round" transform="translate(233.08788877544964 876.7404926184458) rotate(0 84.43057898319125 67.62901074958563)"><path d="M0.78 0.28 C59.62 -0.72, 120.06 -1.83, 167.48 1.47 M-0.38 -0.42 C62.92 0.66, 123.47 0.29, 169.8 -0.69 M170.83 -0.37 C169.39 25.87, 167.11 53.95, 167.84 135.71 M169.64 0.36 C166.85 50.24, 167.27 100.26, 168.49 135.39 M167.1 134.45 C104.1 136.46, 36.93 135.63, 0.23 136.18 M169.72 134.36 C105.52 136.94, 40.75 136.15, 0.25 135.08 M-0.75 136.4 C1.82 98.29, 1.49 60.94, -0.76 0.26 M-0.62 134.62 C1.56 96.8, 2.04 58.57, -0.79 -0.41" stroke="#1e1e1e" stroke-width="4" fill="none"></path></g><g stroke-linecap="round" transform="translate(449.71876664595163 875.6168215202565) rotate(0 84.43057898319125 67.62901074958563)"><path d="M0.85 0.47 L168.9 -0.63 L169.46 134.85 L0.43 134.49" stroke="none" stroke-width="0" fill="#b2f2bb"></path><path d="M-0.16 0.59 C64.29 -0.76, 126.18 1.23, 170.2 -1.6 M0.94 0.99 C53.41 1.33, 108.73 0.02, 167.89 0.13 M169.21 -1.51 C168.25 35.48, 169.17 73.02, 170.22 133.49 M168.04 0.46 C169.53 48.48, 169.54 95.69, 169.81 134.81 M170.75 135.86 C113.61 134.35, 55.88 135.49, 1.56 136.69 M169.37 136.06 C109 133.76, 50.21 133.56, -0.24 134.86 M1.28 135.68 C1.46 88.98, -0.25 42.06, -0.34 -2 M0.21 135.11 C1.52 98.33, 0.05 61.12, -0.71 0.62" stroke="#1e1e1e" stroke-width="4" fill="none"></path></g><g stroke-linecap="round" transform="translate(18.77759528882541 1046.4457448323571) rotate(0 84.43057898319125 67.62901074958563)"><path d="M0.56 0.89 L169.34 -0.8 L166.95 133.61 L-0.82 135.42" stroke="none" stroke-width="0" fill="#b2f2bb"></path><path d="M0.97 -0.89 C49.93 -0.77, 104.96 0.15, 170.31 1.73 M-0.35 -0.69 C51.61 -0.84, 101.83 -0.93, 169.28 0.46 M169.65 1.14 C166.68 40.78, 168.3 81.38, 170.55 133.7 M168.85 0.39 C169.13 39.38, 170.61 79.59, 168.52 134.43 M168.74 134.86 C112.63 136.9, 55.25 136.4, -0.27 134.9 M169.69 134.99 C105.2 135.5, 40.46 136.17, -0.68 135.67 M-0.13 135.48 C0.76 103.83, 0.89 70.61, -0.61 -0.73 M0.99 135.16 C1 101.88, 2.17 67.48, -0.41 -0.11" stroke="#1e1e1e" stroke-width="4" fill="none"></path></g><g stroke-linecap="round" transform="translate(234.48739716500916 1046.177883726178) rotate(0 84.43057898319125 67.62901074958563)"><path d="M-1.93 -1.89 C40.72 -0.22, 80.43 2.47, 168.93 -1.62 M0.38 0.8 C66.35 1.87, 134.38 1.62, 168.86 -0.8 M167.76 0.26 C169.92 29.93, 171.09 57.62, 168.67 137.11 M167.88 0.07 C169.34 47.7, 168.5 92.66, 169.24 135.34 M169.72 136.7 C116.74 135.86, 63.21 134.56, 1.56 136.56 M169.01 134.74 C109.74 134.96, 51.53 135.22, -0.55 135.98 M1.74 136.94 C1.95 95.32, -0.52 51.49, -1.01 -1.75 M-0.19 135.6 C-0.34 107.67, -1.74 80.68, 0.28 0.44" stroke="#1e1e1e" stroke-width="4" fill="none"></path></g><g stroke-linecap="round" transform="translate(451.11827503551115 1045.054212627989) rotate(0 84.43057898319125 67.62901074958563)"><path d="M-1.92 -1.65 L168.04 0.17 L168.86 137.15 L1.05 134.6" stroke="none" stroke-width="0" fill="#b2f2bb"></path><path d="M1.23 -0.97 C44.62 3.32, 86.4 -0.02, 170.79 -0.69 M-0.63 0.71 C39.41 -0.89, 77.99 -2.15, 168.05 0.4 M169.39 0.34 C169.81 46.72, 167.93 98.42, 169.77 135.23 M169.36 0.96 C167.19 44.96, 167.91 91.66, 168.98 135.2 M169.42 136.19 C121.32 136.11, 75.88 137.77, 0.91 136.92 M168.07 135.41 C122 134.79, 75.95 135.1, 0.07 135.19 M1.87 136.84 C-1.79 92.45, -2.19 49.37, -1.97 1.97 M0.99 134.91 C-0.16 95.91, 0.53 57.22, 0.24 -0.4" stroke="#1e1e1e" stroke-width="4" fill="none"></path></g><g stroke-linecap="round" transform="translate(232.4270907315339 1216.7199244643707) rotate(0 84.43057898319125 67.62901074958575)"><path d="M1.26 -1.59 C64.89 -1.83, 133.35 0.46, 168.61 0.51 M0.84 0.88 C36.11 1.89, 72.61 1.13, 169.07 -0.16 M168.31 0.09 C167.62 42.48, 169.96 84.46, 169.47 133.42 M168.48 -0.09 C168.73 33.53, 167.99 67.79, 168.83 135.94 M167.07 134.55 C113.93 134.6, 56.46 135.73, 0.94 136.15 M167.94 134.76 C123.86 134.59, 79.81 134.37, -0.06 136.25 M1.41 135.21 C-0.46 99.41, -0.51 68.4, -1.39 -0.25 M0.51 134.82 C0.26 104.96, 0.11 74.48, -0.86 0.64" stroke="#1e1e1e" stroke-width="4" fill="none"></path></g><g stroke-linecap="round"><g transform="translate(304.3170720880696 146.84731685754048) rotate(0 -112.07745540337588 13.417437443559322)"><path d="M0.87 0.65 C-82.6 9.86, -166.06 18.14, -223 26.45 M0.42 0.39 C-77.21 7.46, -153.73 15.56, -225.02 24.74" stroke="#1e1e1e" stroke-width="4" fill="none"></path></g><g transform="translate(304.3170720880696 146.84731685754048) rotate(0 -112.07745540337588 13.417437443559322)"><path d="M-197.27 11.9 C-208.53 15.35, -219.72 19.34, -223.22 26.55 M-197.79 11.6 C-207.9 16.06, -216.7 20.22, -225.58 24.56" stroke="#1e1e1e" stroke-width="4" fill="none"></path></g><g transform="translate(304.3170720880696 146.84731685754048) rotate(0 -112.07745540337588 13.417437443559322)"><path d="M-194.79 32.27 C-207.08 28.27, -219.18 24.81, -223.22 26.55 M-195.31 31.97 C-206.27 29.45, -215.92 26.64, -225.58 24.56" stroke="#1e1e1e" stroke-width="4" fill="none"></path></g></g><mask></mask><g stroke-linecap="round"><g transform="translate(307.9384913589031 149.30227106267785) rotate(0 -0.07413454074412584 15.272951477672905)"><path d="M-0.31 1.56 C-0.77 10.24, 1.52 20, -0.13 30.44 M0.64 0.11 C0.3 7.43, 0.45 15.34, -0.79 29.88" stroke="#1e1e1e" stroke-width="4" fill="none"></path></g><g transform="translate(307.9384913589031 149.30227106267785) rotate(0 -0.07413454074412584 15.272951477672905)"><path d="M-5.04 17.04 C-3.83 20.71, -0.69 25.17, -0.89 30.87 M-4.34 15.98 C-3.53 19.38, -2.33 23.19, -1.37 30.46" stroke="#1e1e1e" stroke-width="4" fill="none"></path></g><g transform="translate(307.9384913589031 149.30227106267785) rotate(0 -0.07413454074412584 15.272951477672905)"><path d="M4.89 17.73 C2.45 21.17, 1.95 25.38, -0.89 30.87 M5.58 16.67 C3.71 19.86, 2.22 23.48, -1.37 30.46" stroke="#1e1e1e" stroke-width="4" fill="none"></path></g></g><mask></mask><g stroke-linecap="round"><g transform="translate(309.41766912287085 145.98690610943436) rotate(0 115.88147496976475 13.532709871642737)"><path d="M-0.93 0.08 C53.36 6.39, 106.19 11.81, 232.69 26.99 M-0.52 0.54 C71.26 10.5, 142.33 17.48, 232.49 26.75" stroke="#1e1e1e" stroke-width="4" fill="none"></path></g><g transform="translate(309.41766912287085 145.98690610943436) rotate(0 115.88147496976475 13.532709871642737)"><path d="M202.3 34.16 C210.27 31.88, 216.27 29.5, 233.16 27.8 M202.78 34.71 C212.99 32.95, 222.03 29.53, 232.93 27.51" stroke="#1e1e1e" stroke-width="4" fill="none"></path></g><g transform="translate(309.41766912287085 145.98690610943436) rotate(0 115.88147496976475 13.532709871642737)"><path d="M204.4 13.75 C211.73 16.16, 217.25 18.47, 233.16 27.8 M204.88 14.3 C214.25 18.76, 222.64 21.58, 232.93 27.51" stroke="#1e1e1e" stroke-width="4" fill="none"></path></g></g><mask></mask><g stroke-linecap="round"><g transform="translate(300.306442414897 322.75883103294905) rotate(0 -112.26803488466541 11.890818010218936)"><path d="M-0.85 -1.19 C-83.83 11.99, -169.78 20.25, -223.83 24.98 M-0.2 0.19 C-45.57 3.28, -90.08 9.36, -224.33 24.61" stroke="#1e1e1e" stroke-width="4" fill="none"></path></g><g transform="translate(300.306442414897 322.75883103294905) rotate(0 -112.26803488466541 11.890818010218936)"><path d="M-198.5 9.8 C-206.35 17.57, -217.78 21.3, -223.5 24.71 M-197.74 11.42 C-203.4 13.09, -207.94 17.04, -224.09 24.28" stroke="#1e1e1e" stroke-width="4" fill="none"></path></g><g transform="translate(300.306442414897 322.75883103294905) rotate(0 -112.26803488466541 11.890818010218936)"><path d="M-196.15 30.18 C-204.69 30.27, -217.01 26.31, -223.5 24.71 M-195.39 31.8 C-201.7 29.36, -206.72 29.19, -224.09 24.28" stroke="#1e1e1e" stroke-width="4" fill="none"></path></g></g><mask></mask><g stroke-linecap="round"><g transform="translate(303.9278616857305 325.2137852380863) rotate(0 -0.2747528199106455 15.091490416321903)"><path d="M1.42 1.08 C-0.02 10.98, 0.69 22.58, -1.97 30.82 M-0.61 -0.64 C0.18 7.53, 0.18 13.52, -0.71 28.19" stroke="#1e1e1e" stroke-width="4" fill="none"></path></g><g transform="translate(303.9278616857305 325.2137852380863) rotate(0 -0.2747528199106455 15.091490416321903)"><path d="M-3.96 15.07 C-3.31 19.5, -1.14 25.13, -2.14 29.45 M-5.43 13.83 C-3.82 18.03, -2.81 20.66, -1.22 27.54" stroke="#1e1e1e" stroke-width="4" fill="none"></path></g><g transform="translate(303.9278616857305 325.2137852380863) rotate(0 -0.2747528199106455 15.091490416321903)"><path d="M5.98 15.57 C2.78 19.74, 1.11 25.18, -2.14 29.45 M4.51 14.33 C3.75 18.43, 2.4 20.94, -1.22 27.54" stroke="#1e1e1e" stroke-width="4" fill="none"></path></g></g><mask></mask><g stroke-linecap="round"><g transform="translate(305.40703944969823 321.8984202848426) rotate(0 116.50017400916548 13.011122214094371)"><path d="M0.1 -0.22 C54.32 5.04, 105.42 12.44, 231.07 25.7 M0.21 0.51 C74.95 9.39, 149.03 17.34, 232.9 26.24" stroke="#1e1e1e" stroke-width="4" fill="none"></path></g><g transform="translate(305.40703944969823 321.8984202848426) rotate(0 116.50017400916548 13.011122214094371)"><path d="M203.9 33.19 C211.26 31.73, 215.17 31.71, 231.66 25.77 M204.03 34.06 C213.46 30.98, 221.9 28.09, 233.82 26.41" stroke="#1e1e1e" stroke-width="4" fill="none"></path></g><g transform="translate(305.40703944969823 321.8984202848426) rotate(0 116.50017400916548 13.011122214094371)"><path d="M206.08 12.79 C213.09 16.04, 216.49 20.72, 231.66 25.77 M206.21 13.65 C214.81 17.15, 222.55 20.84, 233.82 26.41" stroke="#1e1e1e" stroke-width="4" fill="none"></path></g></g><mask></mask><g stroke-linecap="round"><g transform="translate(314.6046675865359 492.2600258423706) rotate(0 -111.79535071304934 13.04277064105213)"><path d="M1.7 1.19 C-85.37 9.07, -170.77 18.91, -222.97 24.12 M0.65 0.55 C-80.35 8.96, -161.84 17.09, -225.29 25.54" stroke="#1e1e1e" stroke-width="4" fill="none"></path></g><g transform="translate(314.6046675865359 492.2600258423706) rotate(0 -111.79535071304934 13.04277064105213)"><path d="M-196.57 13.32 C-208.84 16.78, -219.21 22.41, -223.3 24.64 M-197.79 12.56 C-207.55 17.57, -217.83 21.51, -226 26.29" stroke="#1e1e1e" stroke-width="4" fill="none"></path></g><g transform="translate(314.6046675865359 492.2600258423706) rotate(0 -111.79535071304934 13.04277064105213)"><path d="M-194.08 33.69 C-207.2 29.42, -218.51 27.33, -223.3 24.64 M-195.3 32.93 C-206.05 30.59, -217.23 27.19, -226 26.29" stroke="#1e1e1e" stroke-width="4" fill="none"></path></g></g><mask></mask><g stroke-linecap="round"><g transform="translate(318.2260868573685 494.71498004750833) rotate(0 0.2862880807611532 14.872455233708024)"><path d="M-0.09 -0.29 C-0.04 8.72, 2.24 16.19, 1.15 30.03 M0.57 0.85 C0.13 7.49, -0.52 15.97, -0.88 28.86" stroke="#1e1e1e" stroke-width="4" fill="none"></path></g><g transform="translate(318.2260868573685 494.71498004750833) rotate(0 0.2862880807611532 14.872455233708024)"><path d="M-5.41 14.81 C-4.12 19.18, -1.14 22.47, 0 29.55 M-4.93 15.63 C-4.13 18.52, -3.42 22.78, -1.48 28.69" stroke="#1e1e1e" stroke-width="4" fill="none"></path></g><g transform="translate(318.2260868573685 494.71498004750833) rotate(0 0.2862880807611532 14.872455233708024)"><path d="M4.53 15.17 C2.89 19.51, 2.96 22.69, 0 29.55 M5.01 16 C3.21 18.86, 1.31 23.02, -1.48 28.69" stroke="#1e1e1e" stroke-width="4" fill="none"></path></g></g><mask></mask><g stroke-linecap="round"><g transform="translate(319.70526462133626 491.3996150942646) rotate(0 116.17005859173662 13.64197536836923)"><path d="M-0.27 0.15 C87.43 9.18, 172.53 20.39, 231.34 27.39 M-0.07 -0.1 C84 8.48, 168.39 17.16, 232.61 25.63" stroke="#1e1e1e" stroke-width="4" fill="none"></path></g><g transform="translate(319.70526462133626 491.3996150942646) rotate(0 116.17005859173662 13.64197536836923)"><path d="M203.06 32.57 C216.17 29.04, 226.2 28.39, 231.84 27.15 M203.3 32.27 C213.27 30.43, 223.8 26.99, 233.35 25.07" stroke="#1e1e1e" stroke-width="4" fill="none"></path></g><g transform="translate(319.70526462133626 491.3996150942646) rotate(0 116.17005859173662 13.64197536836923)"><path d="M205.56 12.2 C217.73 16.19, 226.84 23.07, 231.84 27.15 M205.79 11.9 C214.97 17.5, 224.59 21.48, 233.35 25.07" stroke="#1e1e1e" stroke-width="4" fill="none"></path></g></g><mask></mask><g stroke-linecap="round"><g transform="translate(300.17945001251735 668.3996066985464) rotate(0 -112.2786456142679 12.545551503085676)"><path d="M0.73 -1.49 C-72.31 9.6, -140.43 15.35, -225.29 26.58 M0.55 -0.77 C-54.98 4.95, -108.84 11.91, -224.66 25.46" stroke="#1e1e1e" stroke-width="4" fill="none"></path></g><g transform="translate(300.17945001251735 668.3996066985464) rotate(0 -112.2786456142679 12.545551503085676)"><path d="M-197.02 10.22 C-207.83 17.89, -212.87 19.68, -225.65 27.43 M-197.23 11.05 C-205.07 14.41, -211.01 18.77, -224.92 26.11" stroke="#1e1e1e" stroke-width="4" fill="none"></path></g><g transform="translate(300.17945001251735 668.3996066985464) rotate(0 -112.2786456142679 12.545551503085676)"><path d="M-194.61 30.6 C-206.25 31.82, -212.05 27.16, -225.65 27.43 M-194.82 31.43 C-203.13 29.85, -209.65 29.28, -224.92 26.11" stroke="#1e1e1e" stroke-width="4" fill="none"></path></g></g><mask></mask><g stroke-linecap="round"><g transform="translate(303.9270817887642 670.8545609036842) rotate(0 -0.6373496101353453 13.93523223977536)"><path d="M-1.52 1.61 C2.05 8.36, -0.86 20.43, -1.16 27.93 M-0.64 -0.76 C0.09 8.41, -0.07 16.81, 0.12 28.63" stroke="#1e1e1e" stroke-width="4" fill="none"></path></g><g transform="translate(303.9270817887642 670.8545609036842) rotate(0 -0.6373496101353453 13.93523223977536)"><path d="M-6.11 16.19 C-1.92 18.75, -2.41 25.13, -0.72 27.79 M-5.47 14.47 C-3.56 19.09, -2.26 23.1, 0.21 28.29" stroke="#1e1e1e" stroke-width="4" fill="none"></path></g><g transform="translate(303.9270817887642 670.8545609036842) rotate(0 -0.6373496101353453 13.93523223977536)"><path d="M3.84 16.08 C4.87 18.59, 1.23 25, -0.72 27.79 M4.48 14.36 C3.62 18.92, 2.17 22.96, 0.21 28.29" stroke="#1e1e1e" stroke-width="4" fill="none"></path></g></g><mask></mask><g stroke-linecap="round"><g transform="translate(305.26798280015544 667.5391959504404) rotate(0 115.91579341144774 13.226073019153773)"><path d="M1.63 -0.73 C48.5 5.65, 97.85 8.58, 231.85 27.18 M-0.08 0.29 C48.33 7.51, 97.33 12.04, 231.91 25.52" stroke="#1e1e1e" stroke-width="4" fill="none"></path></g><g transform="translate(305.26798280015544 667.5391959504404) rotate(0 115.91579341144774 13.226073019153773)"><path d="M204.77 32.06 C208.11 33.08, 214.13 28.38, 231.46 26.8 M202.75 33.26 C208.73 32.25, 215.2 29.58, 231.54 24.83" stroke="#1e1e1e" stroke-width="4" fill="none"></path></g><g transform="translate(305.26798280015544 667.5391959504404) rotate(0 115.91579341144774 13.226073019153773)"><path d="M206.81 11.64 C209.56 17.03, 215.14 16.69, 231.46 26.8 M204.79 12.84 C210.21 16.1, 216.25 17.71, 231.54 24.83" stroke="#1e1e1e" stroke-width="4" fill="none"></path></g></g><mask></mask><g stroke-linecap="round"><g transform="translate(297.6518354286787 844.203374972102) rotate(0 -113.38790124890951 11.537359312719104)"><path d="M-1.01 -1.24 C-59.49 6.17, -118.16 12.36, -226.21 24.31 M-0.56 0.83 C-62.47 8.49, -123.73 14.5, -224.6 24.19" stroke="#1e1e1e" stroke-width="4" fill="none"></path></g><g transform="translate(297.6518354286787 844.203374972102) rotate(0 -113.38790124890951 11.537359312719104)"><path d="M-198.71 9.81 C-204.79 15.45, -211.09 18.4, -226.55 23.51 M-198.18 12.23 C-205.86 15.06, -212.76 17.64, -224.66 23.36" stroke="#1e1e1e" stroke-width="4" fill="none"></path></g><g transform="translate(297.6518354286787 844.203374972102) rotate(0 -113.38790124890951 11.537359312719104)"><path d="M-196.73 30.23 C-203.35 30.46, -210.17 28.01, -226.55 23.51 M-196.2 32.65 C-204.47 29.89, -211.91 26.85, -224.66 23.36" stroke="#1e1e1e" stroke-width="4" fill="none"></path></g></g><mask></mask><g stroke-linecap="round"><g transform="translate(301.27325469951217 846.6583291772397) rotate(0 -0.5106039755077063 14.764734341297299)"><path d="M-0.11 0.94 C0.58 7.35, -2.12 13.08, -0.5 29.51 M-0.92 0.02 C-0.56 10.24, -0.25 21.57, -0.67 28.59" stroke="#1e1e1e" stroke-width="4" fill="none"></path></g><g transform="translate(301.27325469951217 846.6583291772397) rotate(0 -0.5106039755077063 14.764734341297299)"><path d="M-5.35 15.48 C-3.72 18.44, -4.6 20.86, -1.04 28.9 M-5.94 14.81 C-3.86 19.37, -1.87 24.77, -1.16 28.23" stroke="#1e1e1e" stroke-width="4" fill="none"></path></g><g transform="translate(301.27325469951217 846.6583291772397) rotate(0 -0.5106039755077063 14.764734341297299)"><path d="M4.59 15.75 C3.87 18.57, 0.64 20.93, -1.04 28.9 M4 15.08 C2.25 19.63, 0.42 24.93, -1.16 28.23" stroke="#1e1e1e" stroke-width="4" fill="none"></path></g></g><mask></mask><g stroke-linecap="round"><g transform="translate(302.7524324634799 843.342964223996) rotate(0 116.61990703679288 12.653974887772506)"><path d="M0.64 0.4 C51.18 4.45, 105.25 11.32, 233.55 25 M-0.31 -0.81 C91.98 9.64, 183.7 20.29, 232.17 26.11" stroke="#1e1e1e" stroke-width="4" fill="none"></path></g><g transform="translate(302.7524324634799 843.342964223996) rotate(0 116.61990703679288 12.653974887772506)"><path d="M203.72 33.47 C207.67 30.61, 215.77 30.15, 233.87 24.8 M202.6 32.04 C214.57 29.43, 225.56 27.03, 232.23 26.13" stroke="#1e1e1e" stroke-width="4" fill="none"></path></g><g transform="translate(302.7524324634799 843.342964223996) rotate(0 116.61990703679288 12.653974887772506)"><path d="M206.13 13.09 C209.52 14.88, 217.07 19.06, 233.87 24.8 M205.01 11.66 C215.84 17.15, 225.87 22.84, 232.23 26.13" stroke="#1e1e1e" stroke-width="4" fill="none"></path></g></g><mask></mask><g stroke-linecap="round"><g transform="translate(315.01639214042973 1182.4359052253492) rotate(0 0.12085914861984293 15.767437749909277)"><path d="M1.2 -1.96 C0.45 13.19, 1.36 24.55, -0.95 33.49 M0.28 0.26 C0.04 11.37, -0.01 24.42, -0.01 32.41" stroke="#1e1e1e" stroke-width="4" fill="none"></path></g><g transform="translate(315.01639214042973 1182.4359052253492) rotate(0 0.12085914861984293 15.767437749909277)"><path d="M-4.59 15.44 C-3.01 23.51, -0.19 28.52, -0.83 33.07 M-5.34 17.26 C-3.5 22.1, -1.48 28.54, -0.06 32.19" stroke="#1e1e1e" stroke-width="4" fill="none"></path></g><g transform="translate(315.01639214042973 1182.4359052253492) rotate(0 0.12085914861984293 15.767437749909277)"><path d="M6.59 15.47 C3.95 23.6, 2.56 28.6, -0.83 33.07 M5.84 17.29 C3.51 22.13, 1.36 28.56, -0.06 32.19" stroke="#1e1e1e" stroke-width="4" fill="none"></path></g></g><mask></mask><g stroke-linecap="round"><g transform="translate(303.1450514276763 1016.6557686744618) rotate(0 -112.86088294248631 11.823052789108715)"><path d="M-0.96 -0.91 C-88.71 7.35, -178.41 20.1, -225.64 23.23 M-0.08 -0.72 C-50.64 3.5, -100.62 10.38, -224.98 24.56" stroke="#1e1e1e" stroke-width="4" fill="none"></path></g><g transform="translate(303.1450514276763 1016.6557686744618) rotate(0 -112.86088294248631 11.823052789108715)"><path d="M-199.28 10.05 C-207.61 14.47, -218.3 23.12, -226.26 22.62 M-198.25 10.27 C-204.21 13.13, -209.51 17.65, -225.48 24.17" stroke="#1e1e1e" stroke-width="4" fill="none"></path></g><g transform="translate(303.1450514276763 1016.6557686744618) rotate(0 -112.86088294248631 11.823052789108715)"><path d="M-196.91 30.43 C-206.02 26.7, -217.66 27.2, -226.26 22.62 M-195.88 30.65 C-202.34 28.9, -208.17 28.82, -225.48 24.17" stroke="#1e1e1e" stroke-width="4" fill="none"></path></g></g><mask></mask><g stroke-linecap="round"><g transform="translate(306.7664706985098 1019.1107228796) rotate(0 -0.05686867795884609 13.433672225102782)"><path d="M1.38 -1.87 C1.24 8.62, -1.44 12.5, -1.49 28.74 M0.02 -0.81 C0.74 7.26, -0.53 12.78, 0.22 28.34" stroke="#1e1e1e" stroke-width="4" fill="none"></path></g><g transform="translate(306.7664706985098 1019.1107228796) rotate(0 -0.05686867795884609 13.433672225102782)"><path d="M-4.03 13.42 C-2.79 19.2, -3.43 20.13, -0.86 28.09 M-5.02 14.19 C-3.3 18.38, -3.03 20.68, 0.39 27.8" stroke="#1e1e1e" stroke-width="4" fill="none"></path></g><g transform="translate(306.7664706985098 1019.1107228796) rotate(0 -0.05686867795884609 13.433672225102782)"><path d="M5.91 13.21 C4.69 18.99, 1.58 19.97, -0.86 28.09 M4.92 13.98 C4.39 18.14, 2.41 20.48, 0.39 27.8" stroke="#1e1e1e" stroke-width="4" fill="none"></path></g></g><mask></mask><g stroke-linecap="round"><g transform="translate(308.24564846247756 1015.7953579263558) rotate(0 116.60408923718416 13.255260647128353)"><path d="M1.18 1.19 C56.36 6.64, 113.46 14.42, 230.88 25.94 M0.64 0.57 C49.68 6.9, 100.4 12.24, 232.56 25.87" stroke="#1e1e1e" stroke-width="4" fill="none"></path></g><g transform="translate(308.24564846247756 1015.7953579263558) rotate(0 116.60408923718416 13.255260647128353)"><path d="M204.87 34.57 C209.32 29.7, 216.29 29.49, 231.09 25.68 M204.23 33.84 C209.24 31.44, 216.25 29.51, 233.09 25.59" stroke="#1e1e1e" stroke-width="4" fill="none"></path></g><g transform="translate(308.24564846247756 1015.7953579263558) rotate(0 116.60408923718416 13.255260647128353)"><path d="M206.98 14.16 C211.05 14.3, 217.5 19.13, 231.09 25.68 M206.35 13.43 C210.9 15.41, 217.46 17.89, 233.09 25.59" stroke="#1e1e1e" stroke-width="4" fill="none"></path></g></g><mask></mask><g transform="translate(656.7037316524618 53.942524303091204) rotate(0 31.89598846435547 22.5)"><text x="0" y="0" font-family="Virgil, Segoe UI Emoji" font-size="36px" fill="#1e1e1e" text-anchor="start" style="white-space: pre;" direction="ltr" dominant-baseline="text-before-edge">n=0</text></g><g transform="translate(660.3779225204928 217.46490940903334) rotate(0 24.389991760253906 22.500000000000057)"><text x="0" y="0" font-family="Virgil, Segoe UI Emoji" font-size="36px" fill="#1e1e1e" text-anchor="start" style="white-space: pre;" direction="ltr" dominant-baseline="text-before-edge">n=1</text></g><g transform="translate(655.7575611923678 392.0214797511255) rotate(0 32.32798767089844 22.5)"><text x="0" y="0" font-family="Virgil, Segoe UI Emoji" font-size="36px" fill="#1e1e1e" text-anchor="start" style="white-space: pre;" direction="ltr" dominant-baseline="text-before-edge">n=2</text></g><g transform="translate(664.4844788060041 563.798453591088) rotate(0 31.769989013671875 22.5)"><text x="0" y="0" font-family="Virgil, Segoe UI Emoji" font-size="36px" fill="#1e1e1e" text-anchor="start" style="white-space: pre;" direction="ltr" dominant-baseline="text-before-edge">n=3</text></g><g transform="translate(664.3949605768373 736.7539608117311) rotate(0 31.03199005126953 22.5)"><text x="0" y="0" font-family="Virgil, Segoe UI Emoji" font-size="36px" fill="#1e1e1e" text-anchor="start" style="white-space: pre;" direction="ltr" dominant-baseline="text-before-edge">n=4</text></g><g transform="translate(666.1255846890533 916.167449951173) rotate(0 30.635986328125 22.5)"><text x="0" y="0" font-family="Virgil, Segoe UI Emoji" font-size="36px" fill="#1e1e1e" text-anchor="start" style="white-space: pre;" direction="ltr" dominant-baseline="text-before-edge">n=5</text></g><g transform="translate(672.2703452832768 1085.0800254128203) rotate(0 31.03199005126953 22.5)"><text x="0" y="0" font-family="Virgil, Segoe UI Emoji" font-size="36px" fill="#1e1e1e" text-anchor="start" style="white-space: pre;" direction="ltr" dominant-baseline="text-before-edge">n=6</text></g></svg>