<svg version="1.1" xmlns="http://www.w3.org/2000/svg" viewBox="0 0 1000.1242421986516 275.55151982384825" width="1000.1242421986516" height="275.55151982384825">
  <!-- svg-source:excalidraw -->
  <rect x="0" y="0" width="100%" height="100%" fill="white" />

  <defs>
    <style>
      @font-face {
        font-family: "Virgil";
        src: url("https://excalidraw.com/Virgil.woff2");
      }
      @font-face {
        font-family: "Cascadia";
        src: url("https://excalidraw.com/Cascadia.woff2");
      }
    </style>
  </defs>
  <g stroke-opacity="0.9" fill-opacity="0.9" stroke-linecap="round" transform="translate(10 119.41277645152786) rotate(0 53.55870175948914 31.370096744843636)"><path d="M1.67 1.04 C42.38 3.47, 78.61 1.34, 109.86 -1.62 M-1.84 -1.95 C39.7 -0.79, 78.85 -1.93, 106.8 -0.23 M106.6 0.91 C104.89 12.06, 110.02 23.93, 107.36 62.9 M106.61 0.06 C107 20.53, 108.48 43.17, 108.78 63.04 M103.67 61.4 C72.56 61.47, 32.69 63.54, -1.23 65.99 M106.06 63.23 C67.47 61.2, 23.88 60.31, 1.45 64.13 M-0.77 64.82 C-1.21 39.77, 0 17.15, 2.09 2.33 M-1.44 63.89 C0.35 41.08, 0.38 16.46, 1.74 -1.94" stroke="#000000" stroke-width="1" fill="none"></path></g><g stroke-opacity="0.9" fill-opacity="0.9" stroke-linecap="round" transform="translate(150.7828731963715 117.88252782982818) rotate(0 53.55870175948917 31.370096744843636)"><path d="M-3.45 -1.34 C42.3 -2.58, 79.29 -0.52, 105.89 3.25 M-1.06 0.49 C43.02 0.09, 82.1 -0.8, 108.57 1.39 M106.35 2.08 C106.35 23.46, 107.57 47.26, 109.21 65.07 M105.68 1.15 C106.8 23.24, 106.84 43.53, 108.86 60.8 M106.78 62.2 C80.39 62.56, 50.52 58.4, -1.79 60.78 M106.98 61.99 C72.45 62.4, 39.01 59.64, 1.5 62.7 M2.24 59.79 C1.37 46.01, 0.25 25.78, 1.92 2.49 M-1.39 63.37 C0.67 38.31, 1.56 15.27, -1.33 0.63" stroke="#000000" stroke-width="1" fill="none"></path></g><g stroke-opacity="0.9" fill-opacity="0.9" stroke-linecap="round" transform="translate(291.56574639274265 117.11740351897834) rotate(0 53.55870175948917 31.370096744843636)"><path d="M-2.75 3.48 C28.34 -1.51, 64.93 -3.63, 106.78 -0.54 M-1.21 -0.9 C35.23 0.45, 72.14 -1.66, 106.98 -0.75 M104.58 3 C107.97 17.06, 110.4 31.7, 109.36 59.79 M106.63 0.96 C108.76 23.87, 106.77 43.88, 105.72 63.37 M109.27 60.07 C75.15 61.81, 38.85 65.57, 2.13 63.36 M106.29 63.38 C79.47 64.97, 54.43 63.96, -0.44 63.75 M2.86 64.6 C-2.51 45.87, -2.33 31.31, 3.75 -3.1 M1.34 62.8 C-0.57 41.66, 0.1 18.45, -0.77 -0.76" stroke="#000000" stroke-width="1" fill="none"></path></g><g stroke-opacity="0.9" fill-opacity="0.9" stroke-linecap="round" transform="translate(435.40911683251386 117.11740351897828) rotate(0 53.55870175948917 31.370096744843636)"><path d="M2.13 0.62 C24.24 -3.36, 53.73 -2.54, 108.4 -3.2 M-0.44 1.01 C40.82 -0.91, 83.99 0.53, 108.05 -1.26 M110.87 -3.1 C108.48 18.68, 102.98 34.59, 107.23 63.31 M106.35 -0.76 C108.07 22.98, 106.91 42.33, 107.59 62.07 M106.42 61.85 C80.3 62.91, 49.97 61.55, -3.51 60.12 M107.72 61.31 C72.96 63.97, 37.65 63.87, 0.72 61.83 M3.24 59.19 C-0.46 37.14, -0.03 15.23, 1.27 -3.71 M-0.1 62.6 C-0.02 44.43, 0.68 27.25, -0.92 -0.41" stroke="#000000" stroke-width="1" fill="none"></path></g><g stroke-opacity="0.9" fill-opacity="0.9" transform="translate(26.058701759489168 138.2828731963715) rotate(0 37.5 12.5)"><text x="37.5" y="18" font-family="Virgil, Segoe UI Emoji" font-size="20px" fill="#000000" text-anchor="middle" style="white-space: pre;" direction="ltr">Genesis</text></g><g stroke-opacity="0.9" fill-opacity="0.9" transform="translate(162.34157495586066 136.7526245746718) rotate(0 42 12.5)"><text x="42" y="18" font-family="Virgil, Segoe UI Emoji" font-size="20px" fill="#000000" text-anchor="middle" style="white-space: pre;" direction="ltr">Block #1</text></g><g stroke-opacity="0.9" fill-opacity="0.9" transform="translate(298.6244481522318 135.98750026382197) rotate(0 46.5 12.5)"><text x="46.5" y="18" font-family="Virgil, Segoe UI Emoji" font-size="20px" fill="#000000" text-anchor="middle" style="white-space: pre;" direction="ltr">Block #2</text></g><g stroke-opacity="0.9" fill-opacity="0.9" transform="translate(442.967818592003 135.98750026382191) rotate(0 46 12.5)"><text x="46" y="18" font-family="Virgil, Segoe UI Emoji" font-size="20px" fill="#000000" text-anchor="middle" style="white-space: pre;" direction="ltr">Block #3</text></g><g stroke-opacity="0.9" fill-opacity="0.9" stroke-linecap="round" transform="translate(580.0176115831345 15.35587017594895) rotate(0 53.55870175948917 31.370096744843636)"><path d="M-0.05 -1.06 C34.54 0.48, 60.58 0.74, 103.64 1.91 M-1.75 -0.71 C26.46 2.4, 55.32 0.02, 108.36 1.01 M107.47 -2.1 C108.41 27.74, 103.09 44.61, 108.37 63.99 M106.82 -1.65 C108.14 18.85, 106.53 41.59, 105.21 63.81 M104.47 65.15 C79.15 66.19, 52.44 64.79, 3.38 64.97 M107.36 62.85 C73.56 62.58, 36.96 65.23, 1.75 62.97 M-1.66 58.76 C3.19 45.79, 0.29 25.01, -3.84 -1.67 M0.15 63.63 C-0.54 43.56, 1.44 20.88, -1.79 1.22" stroke="#000000" stroke-width="1" fill="none"></path></g><g stroke-opacity="0.9" fill-opacity="0.9" transform="translate(588.0763133426236 34.22596692079259) rotate(0 45.5 12.5)"><text x="45.5" y="18" font-family="Virgil, Segoe UI Emoji" font-size="20px" fill="#c92a2a" text-anchor="middle" style="white-space: pre;" direction="ltr">Block #4</text></g><g stroke-opacity="0.9" fill-opacity="0.9" stroke-linecap="round" transform="translate(726.9214792663046 14.590745865099166) rotate(0 53.55870175948917 31.370096744843636)"><path d="M2.44 -1.76 C39.05 4.12, 83.41 -1.49, 107.93 -3.25 M-0.12 0.29 C25.1 0.05, 45.94 -0.73, 107.41 -0.05 M104.65 -3.94 C107.61 21.34, 107.46 37.53, 108.37 62.62 M105.12 1.23 C107.63 22.79, 106.92 47.67, 108.79 62.68 M103.78 66.54 C70.68 63.54, 31.05 57.13, -3.68 66.49 M106.29 63.62 C67.36 60.29, 24.81 63.53, 1.68 61.66 M-2.23 65.75 C-0.46 41.02, 2.6 16.79, -1.2 2.8 M1.14 62.56 C-0.49 39.21, 2.32 18.62, 1.27 -1.61" stroke="#000000" stroke-width="1" fill="none"></path></g><g stroke-opacity="0.9" fill-opacity="0.9" transform="translate(734.9801810257937 33.4608426099428) rotate(0 45.5 12.5)"><text x="45.5" y="18" font-family="Virgil, Segoe UI Emoji" font-size="20px" fill="#c92a2a" text-anchor="middle" style="white-space: pre;" direction="ltr">Block #5</text></g><g stroke-opacity="0.9" fill-opacity="0.9" stroke-linecap="round" transform="translate(879.9463414362732 10) rotate(0 53.55870175948917 31.370096744843636)"><path d="M-3.33 2.28 C39.28 -1.34, 75.87 4.27, 106.16 2.54 M-0.75 -0.37 C21.74 0.52, 47.54 1.82, 105.28 -0.28 M107.51 -1.9 C107.16 24.57, 105.62 50.91, 110.51 58.82 M105.74 -1.24 C107.27 13.07, 106.03 28.26, 107.84 61 M110.56 60.11 C73.66 64.81, 34.42 64.91, 2.1 61.66 M107.28 62.95 C76.31 58.98, 42.95 60.61, -1.95 63.37 M-2.54 66.15 C1.26 36.26, -0.74 14.91, -3.31 0.26 M-1.99 63.16 C-1.15 40.98, -0.75 21.09, 2 1.68" stroke="#000000" stroke-width="1" fill="none"></path></g><g stroke-opacity="0.9" fill-opacity="0.9" transform="translate(888.0050431957626 28.870096744843636) rotate(0 45.5 12.5)"><text x="45.5" y="18" font-family="Virgil, Segoe UI Emoji" font-size="20px" fill="#c92a2a" text-anchor="middle" style="white-space: pre;" direction="ltr">Block #6</text></g><g stroke-opacity="0.9" fill-opacity="0.9" stroke-linecap="round" transform="translate(577.7222386505847 202.81132633416098) rotate(0 53.55870175948917 31.370096744843636)"><path d="M-0.18 3.99 C30.08 0.26, 57 0.33, 108.68 -2.21 M0.44 0.82 C23.73 1.43, 49.72 2, 105.33 -0.94 M106.42 -0.94 C108.02 12.91, 107.31 27.75, 111 61.61 M107.34 0.95 C106.77 18.2, 107.04 35.35, 107.04 64.53 M106.94 58.79 C61.73 60.18, 27.74 66.78, -1.01 63 M109.05 61.97 C73.22 59.9, 38.71 60.71, 0.69 61.75 M-2.37 59.67 C5.1 42.85, 1.27 26.28, 1.49 -2.66 M1.31 61.61 C-1.12 44.93, -0.43 28.52, 1.71 0.64" stroke="#000000" stroke-width="1" fill="none"></path></g><g stroke-opacity="0.9" fill-opacity="0.9" transform="translate(585.7809404100745 221.68142307900462) rotate(0 45.5 12.5)"><text x="45.5" y="18" font-family="Virgil, Segoe UI Emoji" font-size="20px" fill="#2b8a3e" text-anchor="middle" style="white-space: pre;" direction="ltr">Block #4</text></g><g stroke-opacity="0.9" fill-opacity="0.9" stroke-linecap="round" transform="translate(726.1563549554547 196.6903318473623) rotate(0 53.55870175948917 31.370096744843636)"><path d="M-3.53 -3.98 C34.18 -0.51, 58.68 3.34, 108.37 1.68 M-1.87 -0.64 C41.14 0.28, 78.58 -0.06, 108.27 1.73 M107.23 -1.29 C110.42 10.17, 107.71 21.84, 111 65.06 M106.16 -1.71 C106.29 19.25, 109.24 37.15, 106.19 63.93 M103.46 65.18 C74.34 60.82, 40.56 66.49, -0.41 66.15 M108.99 63.35 C65.73 64.57, 21.75 63.55, -0.69 61 M-3.27 60.33 C-2.79 46.07, 4.38 29.83, -0.21 -0.78 M1.31 61.45 C-2.08 47.01, -0.8 27.36, -0.76 -1.23" stroke="#000000" stroke-width="1" fill="none"></path></g><g stroke-opacity="0.9" fill-opacity="0.9" transform="translate(734.2150567149446 215.56042859220594) rotate(0 45.5 12.5)"><text x="45.5" y="18" font-family="Virgil, Segoe UI Emoji" font-size="20px" fill="#2b8a3e" text-anchor="middle" style="white-space: pre;" direction="ltr">Block #5</text></g><g stroke-opacity="0.9" fill-opacity="0.9" stroke-linecap="round" transform="translate(883.0068386796733 196.6903318473623) rotate(0 53.55870175948917 31.370096744843636)"><path d="M-1.48 -2.85 C25.19 -2.16, 53.67 1.67, 111.03 3.25 M1.23 0.07 C32.88 -0.58, 61.82 1.73, 107.09 -1.87 M110.2 0.41 C104.69 19.23, 103.85 31, 111.1 64.93 M106.73 -0.78 C108.91 22.64, 107.73 46.26, 106.61 61.31 M103.23 63.8 C70.25 65.2, 36.61 60.5, 3.5 66.17 M108.47 60.94 C73.72 64.47, 42.64 63.02, 1.5 61.05 M3.7 61.72 C2.46 41.23, -1.66 14.48, -3.59 2.75 M1.88 63.41 C-1.85 40.22, -1.88 13.58, 0.13 -1.55" stroke="#000000" stroke-width="1" fill="none"></path></g><g stroke-opacity="0.9" fill-opacity="0.9" transform="translate(891.0655404391631 215.56042859220594) rotate(0 45.5 12.5)"><text x="45.5" y="18" font-family="Virgil, Segoe UI Emoji" font-size="20px" fill="#2b8a3e" text-anchor="middle" style="white-space: pre;" direction="ltr">Block #6</text></g><g stroke-linecap="round"><g stroke-opacity="0.9" fill-opacity="0.9" transform="translate(121.70814938407739 149.2526245746718) rotate(0 11.082382362988284 -0.6316733993589878)"><path d="M0.56 -0.65 C4.81 -0.54, 21.33 -0.61, 24.74 -0.92 M-2.58 -3.48 C1.6 -2.82, 20.36 1.77, 23.89 2.21" stroke="#000000" stroke-width="1" fill="none"></path></g><g stroke-opacity="0.9" fill-opacity="0.9" transform="translate(121.70814938407739 149.2526245746718) rotate(0 11.082382362988284 -0.6316733993589878)"><path d="M12.4 5.9 C15.21 2.46, 16.94 2.11, 25.55 2.79 M12.82 4.79 C15.62 2.31, 18.47 2.96, 24.93 2.77" stroke="#000000" stroke-width="1" fill="none"></path></g><g stroke-opacity="0.9" fill-opacity="0.9" transform="translate(121.70814938407739 149.2526245746718) rotate(0 11.082382362988284 -0.6316733993589878)"><path d="M13.9 -1.54 C16.21 -2.94, 17.53 -1.26, 25.55 2.79 M14.31 -2.65 C16.76 -2.9, 19.17 -0.05, 24.93 2.77" stroke="#000000" stroke-width="1" fill="none"></path></g></g><g stroke-linecap="round"><g stroke-opacity="0.9" fill-opacity="0.9" transform="translate(257.9002767153497 147.72237595297213) rotate(0 15.058925563668652 -1.4436696588367681)"><path d="M-2.36 0.49 C3.27 0.99, 27.31 0.56, 32.48 0.63 M1.55 -1.72 C7.17 -1.83, 27.57 -3.3, 31.67 -3.62" stroke="#000000" stroke-width="1" fill="none"></path></g><g stroke-opacity="0.9" fill-opacity="0.9" transform="translate(257.9002767153497 147.72237595297213) rotate(0 15.058925563668652 -1.4436696588367681)"><path d="M18.58 5.31 C23.09 -0.1, 26.85 0.87, 33.89 -4.67 M19.31 1.51 C23.6 1.14, 27.51 -3.47, 32.41 -2.38" stroke="#000000" stroke-width="1" fill="none"></path></g><g stroke-opacity="0.9" fill-opacity="0.9" transform="translate(257.9002767153497 147.72237595297213) rotate(0 15.058925563668652 -1.4436696588367681)"><path d="M17.83 -4.87 C22.36 -7.7, 26.3 -4.16, 33.89 -4.67 M18.56 -8.67 C23.21 -5.21, 27.4 -5.99, 32.41 -2.38" stroke="#000000" stroke-width="1" fill="none"></path></g></g><g stroke-linecap="round"><g stroke-opacity="0.9" fill-opacity="0.9" transform="translate(403.27389577682027 150.01774888552166) rotate(0 13.425385163852695 -0.42228884517956544)"><path d="M0.64 2.73 C4.15 1.73, 19.76 -2.49, 23.73 -3.57 M-2.46 1.74 C1.74 2.32, 25.19 -0.11, 29.31 -0.63" stroke="#000000" stroke-width="1" fill="none"></path></g><g stroke-opacity="0.9" fill-opacity="0.9" transform="translate(403.27389577682027 150.01774888552166) rotate(0 13.425385163852695 -0.42228884517956544)"><path d="M20.4 3.59 C21.18 2.02, 25.53 0.97, 29.5 -0.21 M17.46 4.47 C22.15 3.96, 25.68 1.26, 28.99 -1.59" stroke="#000000" stroke-width="1" fill="none"></path></g><g stroke-opacity="0.9" fill-opacity="0.9" transform="translate(403.27389577682027 150.01774888552166) rotate(0 13.425385163852695 -0.42228884517956544)"><path d="M19.47 -5.03 C20.77 -3.2, 25.49 -0.83, 29.5 -0.21 M16.53 -4.15 C21.45 -1.33, 25.35 -0.71, 28.99 -1.59" stroke="#000000" stroke-width="1" fill="none"></path></g></g><g stroke-linecap="round"><g stroke-opacity="0.9" fill-opacity="0.9" transform="translate(547.8823905274409 136.24551129022444) rotate(0 13.971946555278407 -45.79487879924477)"><path d="M1.9 -0.45 C6.76 -15.29, 24.44 -76.37, 28.45 -91.14 M-0.51 -3.16 C4.06 -17.34, 20.96 -72.49, 26.29 -87.56" stroke="#000000" stroke-width="1" fill="none"></path></g><g stroke-opacity="0.9" fill-opacity="0.9" transform="translate(547.8823905274409 136.24551129022444) rotate(0 13.971946555278407 -45.79487879924477)"><path d="M26.61 -57.37 C27.31 -69.19, 29.99 -71.67, 27.25 -85.95 M25.68 -57.74 C28.03 -64.28, 25.21 -74.15, 27.22 -87.64" stroke="#000000" stroke-width="1" fill="none"></path></g><g stroke-opacity="0.9" fill-opacity="0.9" transform="translate(547.8823905274409 136.24551129022444) rotate(0 13.971946555278407 -45.79487879924477)"><path d="M7.11 -63.77 C13.07 -74.09, 21.11 -74.82, 27.25 -85.95 M6.18 -64.13 C13.97 -68.67, 16.57 -76.75, 27.22 -87.64" stroke="#000000" stroke-width="1" fill="none"></path></g></g><g stroke-linecap="round"><g stroke-opacity="0.9" fill-opacity="0.9" transform="translate(540.9962717297923 143.13163008787302) rotate(0 14.754676177030888 43.48156908400861)"><path d="M0.54 0.73 C5.25 15.08, 22.56 70.62, 26.9 84.76 M-2.62 -1.34 C3.1 13.59, 26.35 73.23, 32.13 88.3" stroke="#000000" stroke-width="1" fill="none"></path></g><g stroke-opacity="0.9" fill-opacity="0.9" transform="translate(540.9962717297923 143.13163008787302) rotate(0 14.754676177030888 43.48156908400861)"><path d="M13.43 62.61 C16.88 67.71, 23.02 73.01, 34.48 92.12 M11.75 65.43 C17.57 71.63, 24.64 79.71, 30.53 86.32" stroke="#000000" stroke-width="1" fill="none"></path></g><g stroke-opacity="0.9" fill-opacity="0.9" transform="translate(540.9962717297923 143.13163008787302) rotate(0 14.754676177030888 43.48156908400861)"><path d="M32.57 55.2 C31.15 62.23, 32.51 69.39, 34.48 92.12 M30.89 58.02 C30.87 66.15, 32.13 76.48, 30.53 86.32" stroke="#000000" stroke-width="1" fill="none"></path></g></g><g stroke-linecap="round"><g stroke-opacity="0.9" fill-opacity="0.9" transform="translate(689.4303880346621 48.25621554249227) rotate(0 17.581467717708847 -0.5735900475543474)"><path d="M0.4 -2.62 C5.62 -2.79, 27.07 -2.93, 32.59 -3.35 M-2.82 2.13 C3.18 2.59, 32.32 0.8, 37.99 -0.12" stroke="#000000" stroke-width="1" fill="none"></path></g><g stroke-opacity="0.9" fill-opacity="0.9" transform="translate(689.4303880346621 48.25621554249227) rotate(0 17.581467717708847 -0.5735900475543474)"><path d="M19.17 5.03 C26.99 3.55, 30.18 2.54, 38.9 3.17 M22.92 7.34 C27.4 4.77, 30.83 4.46, 37.56 -0.6" stroke="#000000" stroke-width="1" fill="none"></path></g><g stroke-opacity="0.9" fill-opacity="0.9" transform="translate(689.4303880346621 48.25621554249227) rotate(0 17.581467717708847 -0.5735900475543474)"><path d="M18.04 -6.72 C26.06 -4.15, 29.63 -1.1, 38.9 3.17 M21.79 -4.42 C26.46 -3.85, 30.19 -1.06, 37.56 -0.6" stroke="#000000" stroke-width="1" fill="none"></path></g></g><g stroke-linecap="round"><g stroke-opacity="0.9" fill-opacity="0.9" transform="translate(835.5691314069826 43.9785043803073) rotate(0 22.138634726819078 0.17463032187976069)"><path d="M2.52 1.68 C8.86 1.29, 32.6 -1.34, 38.53 -1.33 M0.44 0.12 C7.62 -0.05, 36.64 1.8, 43.84 1.25" stroke="#000000" stroke-width="1" fill="none"></path></g><g stroke-opacity="0.9" fill-opacity="0.9" transform="translate(835.5691314069826 43.9785043803073) rotate(0 22.138634726819078 0.17463032187976069)"><path d="M27.16 5.24 C27.99 2.12, 38.41 6.75, 42.5 -0.96 M24.41 8.31 C32.14 3.89, 36.97 1.64, 45.68 3.14" stroke="#000000" stroke-width="1" fill="none"></path></g><g stroke-opacity="0.9" fill-opacity="0.9" transform="translate(835.5691314069826 43.9785043803073) rotate(0 22.138634726819078 0.17463032187976069)"><path d="M27.2 -8.63 C28.12 -7.34, 38.52 1.69, 42.5 -0.96 M24.45 -5.56 C32.4 -4.89, 37.21 -2.05, 45.68 3.14" stroke="#000000" stroke-width="1" fill="none"></path></g></g><g stroke-linecap="round"><g stroke-opacity="0.9" fill-opacity="0.9" transform="translate(686.3698907912627 229.5906772139055) rotate(0 20.408317558659633 -2.5435017761537893)"><path d="M2.49 0.75 C8.76 0.22, 34.06 -4.4, 40.42 -5.84 M0.39 -1.31 C6.24 -1.09, 32.73 -1.33, 39.36 -2.05" stroke="#000000" stroke-width="1" fill="none"></path></g><g stroke-opacity="0.9" fill-opacity="0.9" transform="translate(686.3698907912627 229.5906772139055) rotate(0 20.408317558659633 -2.5435017761537893)"><path d="M22.56 8.49 C29.18 5.5, 33.51 -1.84, 35.95 -1 M21.85 6.68 C26.9 3.58, 33.94 1.65, 37.93 -0.86" stroke="#000000" stroke-width="1" fill="none"></path></g><g stroke-opacity="0.9" fill-opacity="0.9" transform="translate(686.3698907912627 229.5906772139055) rotate(0 20.408317558659633 -2.5435017761537893)"><path d="M21.88 -4.74 C28.52 -2.46, 33.12 -4.52, 35.95 -1 M21.17 -6.55 C26.32 -4.83, 33.61 -1.95, 37.93 -0.86" stroke="#000000" stroke-width="1" fill="none"></path></g></g><g stroke-linecap="round"><g stroke-opacity="0.9" fill-opacity="0.9" transform="translate(840.9250015829315 231.1209258356052) rotate(0 19.677368425249938 -1.060092054521732)"><path d="M1.38 2.76 C7.48 2.76, 29.68 0.75, 35.13 -0.18 M-1.32 1.79 C5.83 0.9, 33.86 -4.44, 40.67 -4.88" stroke="#000000" stroke-width="1" fill="none"></path></g><g stroke-opacity="0.9" fill-opacity="0.9" transform="translate(840.9250015829315 231.1209258356052) rotate(0 19.677368425249938 -1.060092054521732)"><path d="M28.04 1.6 C29.24 -2.03, 29.78 0.57, 40.83 -2.86 M26.26 2.03 C31.2 1.44, 35.17 -1.19, 41.79 -3.67" stroke="#000000" stroke-width="1" fill="none"></path></g><g stroke-opacity="0.9" fill-opacity="0.9" transform="translate(840.9250015829315 231.1209258356052) rotate(0 19.677368425249938 -1.060092054521732)"><path d="M26.34 -10.85 C27.94 -11.4, 28.91 -5.71, 40.83 -2.86 M24.55 -10.42 C29.95 -6.56, 34.53 -4.7, 41.79 -3.67" stroke="#000000" stroke-width="1" fill="none"></path></g></g></svg>