<svg version="1.1" xmlns="http://www.w3.org/2000/svg" viewBox="0 0 529.5727910259964 411.74364715512047" width="529.5727910259964" height="411.74364715512047">
  <!-- svg-source:excalidraw -->
  <rect x="0" y="0" width="100%" height="100%" fill="white" />
  <defs>
    <style>
      @font-face {
        font-family: "Virgil";
        src: url("https://excalidraw.com/Virgil.woff2");
      }
      @font-face {
        font-family: "Cascadia";
        src: url("https://excalidraw.com/Cascadia.woff2");
      }
    </style>
  </defs>
  <g stroke-opacity="0.9" fill-opacity="0.9" stroke-linecap="round" transform="translate(192.8647102931127 10) rotate(0 66.56581504393648 42.08183709674148)"><path d="M3.24 -2.09 C38.94 3.58, 82.6 4.81, 132.77 1.69 M-1.51 -0.73 C45.99 1.25, 91.52 1.22, 134.94 -1.75 M131.03 1.82 C136.96 23.42, 133.18 52.77, 135.18 85.86 M134.92 -1.51 C131.09 28.5, 131.25 54.68, 132.43 82.82 M135.43 87.81 C89.46 85.63, 47.34 88.24, -3.06 83.65 M132.18 82.31 C92.6 83.32, 47.35 83.36, -0.77 84.47 M1.29 87.03 C-2.53 63.05, -0.64 34.65, 2.64 1.14 M1.09 83.6 C-1.6 66.64, 0.55 47.73, 0.54 1.77" stroke="#000000" stroke-width="1" fill="none"></path></g><g stroke-opacity="0.9" fill-opacity="0.9" stroke-linecap="round" transform="translate(10 164.55511079166854) rotate(0 66.56581504393648 42.08183709674148)"><path d="M1.86 -3.06 C35.91 1.12, 75.41 0.51, 131.22 -3.71 M-0.89 -0.77 C52.78 0.97, 103.32 2.54, 133.78 1.43 M131.49 2.64 C135.46 13.58, 134.93 30.84, 135.32 83.04 M132.62 0.54 C135.27 18.61, 134.95 37.91, 134.79 82.66 M132.04 86.84 C89.83 80.85, 51.53 84.99, -3.83 82.15 M133.74 85.85 C105.4 83.81, 76.67 83.49, -1.52 85.59 M-1.79 86.56 C-3.82 53.58, -0.97 26.92, 0.34 -1.68 M-0.67 83.46 C2.98 50.42, 1.82 19.11, -0.15 1.04" stroke="#000000" stroke-width="1" fill="none"></path></g><g stroke-opacity="0.9" fill-opacity="0.9" stroke-linecap="round" transform="translate(193.62983460396276 163.7899864808188) rotate(0 66.56581504393648 42.08183709674148)"><path d="M-2.16 -0.61 C38 1.95, 82.4 -0.23, 132.98 -1.66 M-1.53 -1.98 C33.67 1.96, 71.02 -1.43, 134.46 0.35 M133.27 -0.52 C134.11 17.27, 131.68 36.1, 134.74 82.55 M131.69 1.15 C134.19 21.63, 134.34 40.05, 132.87 84.36 M135.47 82.89 C83.37 83.42, 44.08 87.34, 0.54 80.8 M134.32 83.91 C84.83 83.53, 40.01 83.39, -1.31 84.61 M2.35 85.92 C2.51 51.19, -2.39 22.29, 3.88 2.44 M0.2 83.57 C0.95 62.37, -1.73 42.93, 1.2 0.01" stroke="#000000" stroke-width="1" fill="none"></path></g><g stroke-opacity="0.9" fill-opacity="0.9" stroke-linecap="round" transform="translate(386.4411609381234 163.78998648081892) rotate(0 66.56581504393648 42.08183709674148)"><path d="M1.82 2.28 C31.34 2.08, 54.41 -4.01, 130.06 2.96 M1.03 -2 C42.49 3.43, 85.26 0.72, 132.85 0.44 M134.94 -2.91 C131.92 25.85, 133.78 48.28, 129.22 80.55 M131.95 -0.12 C135.28 17.56, 134.17 35.56, 131.63 82.33 M134.69 82.22 C98.75 86.7, 58.39 88.01, 0.19 85.05 M132.93 84.27 C98.58 83.91, 67.18 85.85, -0.3 82.75 M2.23 83.81 C5.18 60.46, 4.1 34.09, -2.39 2.64 M1.69 82.33 C1.23 60.9, 2.05 38.96, -0.87 0.15" stroke="#000000" stroke-width="1" fill="none"></path></g><g stroke-opacity="0.9" fill-opacity="0.9" stroke-linecap="round" transform="translate(198.22058046906182 317.5799729616375) rotate(0 66.56581504393648 42.08183709674148)"><path d="M2.4 0.03 C31.48 -1.07, 60.98 3.4, 129.47 3.83 M0.48 0.32 C40.36 1.54, 79.36 0.75, 132.74 1.25 M129.85 0.94 C134.17 23.65, 135.74 50.27, 135.86 86.02 M133.02 -1.51 C135.93 18.39, 135.38 39.27, 135.09 83.14 M137.13 84.87 C97.58 82.74, 66.93 85.28, -0.96 81.1 M134.97 85.86 C82.97 85.66, 34.18 85.21, 0.54 82.76 M-1.25 83.14 C-4.2 48.95, 0.78 16.42, 2.65 -1.21 M-0.05 85.91 C-0.92 63.01, 2.22 46.34, -1.77 -1.29" stroke="#000000" stroke-width="1" fill="none"></path></g><g stroke-opacity="0.9" fill-opacity="0.9" transform="translate(204.93052533704918 27.08183709674148) rotate(0 54.5 25)"><text x="54.5" y="18" font-family="Virgil, Segoe UI Emoji" font-size="20px" fill="#000000" text-anchor="middle" style="white-space: pre;" direction="ltr">Parent of </text><text x="54.5" y="43" font-family="Virgil, Segoe UI Emoji" font-size="20px" fill="#000000" text-anchor="middle" style="white-space: pre;" direction="ltr">parent</text></g><g stroke-opacity="0.9" fill-opacity="0.9" transform="translate(225.69564964789924 193.37182357756024) rotate(0 34.5 12.5)"><text x="34.5" y="18" font-family="Virgil, Segoe UI Emoji" font-size="20px" fill="#000000" text-anchor="middle" style="white-space: pre;" direction="ltr">Parent</text></g><g stroke-opacity="0.9" fill-opacity="0.9" transform="translate(406.5069759820599 193.37182357756046) rotate(0 46.5 12.5)"><text x="46.5" y="18" font-family="Virgil, Segoe UI Emoji" font-size="20px" fill="#000000" text-anchor="middle" style="white-space: pre;" direction="ltr">Ommer #1</text></g><g stroke-opacity="0.9" fill-opacity="0.9" transform="translate(25.56581504393648 194.13694788841008) rotate(0 51 12.5)"><text x="51" y="18" font-family="Virgil, Segoe UI Emoji" font-size="20px" fill="#000000" text-anchor="middle" style="white-space: pre;" direction="ltr">Ommer #2</text></g><g stroke-opacity="0.9" fill-opacity="0.9" transform="translate(238.2863955129983 347.16181005837893) rotate(0 26.5 12.5)"><text x="26.5" y="18" font-family="Virgil, Segoe UI Emoji" font-size="20px" fill="#000000" text-anchor="middle" style="white-space: pre;" direction="ltr">Block</text></g><g stroke-linecap="round"><g stroke-opacity="0.9" fill-opacity="0.9" transform="translate(259.4305253370492 100.2846686802817) rotate(0 -88.15281863462621 28.346990368877442)"><path d="M2.05 -0.48 C-27.58 9.82, -146.32 50.29, -176.34 59.9 M-0.28 -3.2 C-30.39 6.47, -148.31 45.34, -178.36 55.83" stroke="#000000" stroke-width="1" fill="none"></path></g><g stroke-opacity="0.9" fill-opacity="0.9" transform="translate(259.4305253370492 100.2846686802817) rotate(0 -88.15281863462621 28.346990368877442)"><path d="M-155.61 37.67 C-160.94 42.17, -173.09 53.6, -178.81 56.72 M-156.82 38.03 C-162.57 45, -172.55 49.02, -179.98 55.23" stroke="#000000" stroke-width="1" fill="none"></path></g><g stroke-opacity="0.9" fill-opacity="0.9" transform="translate(259.4305253370492 100.2846686802817) rotate(0 -88.15281863462621 28.346990368877442)"><path d="M-149.04 57.11 C-156.43 54.85, -170.89 59.43, -178.81 56.72 M-150.25 57.47 C-158.01 57.99, -170.16 55.57, -179.98 55.23" stroke="#000000" stroke-width="1" fill="none"></path></g></g><g stroke-linecap="round"><g stroke-opacity="0.9" fill-opacity="0.9" transform="translate(260.195649647899 98.75442005858201) rotate(0 1.1320707942172703 30.537844302902812)"><path d="M-1.15 1.75 C-1.12 11.53, 1.49 48.12, 1.5 58.35 M3.42 0.23 C3.1 10.33, 1.22 51.04, 0.08 60.85" stroke="#000000" stroke-width="1" fill="none"></path></g><g stroke-opacity="0.9" fill-opacity="0.9" transform="translate(260.195649647899 98.75442005858201) rotate(0 1.1320707942172703 30.537844302902812)"><path d="M-5.54 34.11 C-8.29 40.5, 1.35 53.02, 2.04 60.51 M-9.31 33.38 C-6.73 41.32, -0.32 53.83, -0.2 60.49" stroke="#000000" stroke-width="1" fill="none"></path></g><g stroke-opacity="0.9" fill-opacity="0.9" transform="translate(260.195649647899 98.75442005858201) rotate(0 1.1320707942172703 30.537844302902812)"><path d="M14.92 35.65 C5.1 41.34, 7.67 53.33, 2.04 60.51 M11.15 34.92 C6.26 42.25, 5.2 54.19, -0.2 60.49" stroke="#000000" stroke-width="1" fill="none"></path></g></g><g stroke-linecap="round"><g stroke-opacity="0.9" fill-opacity="0.9" transform="translate(259.4305253370492 251.77928222855098) rotate(0 -1.8714539145051958 31.773866097576445)"><path d="M-0.28 0.6 C-0.35 11.11, 0.19 51.62, 0.15 62.45 M-3.87 -1.55 C-4.15 9.34, -1.17 54.7, -0.77 65.09" stroke="#000000" stroke-width="1" fill="none"></path></g><g stroke-opacity="0.9" fill-opacity="0.9" transform="translate(259.4305253370492 251.77928222855098) rotate(0 -1.8714539145051958 31.773866097576445)"><path d="M-11.66 40.98 C-11.46 48.86, -3.17 57.59, -4.61 63.88 M-11.17 36.42 C-9.78 45.21, -6.25 53.79, -1.39 63.66" stroke="#000000" stroke-width="1" fill="none"></path></g><g stroke-opacity="0.9" fill-opacity="0.9" transform="translate(259.4305253370492 251.77928222855098) rotate(0 -1.8714539145051958 31.773866097576445)"><path d="M8.83 39.88 C2.44 48.07, 4.14 57.16, -4.61 63.88 M9.32 35.32 C5.4 44.33, 3.59 53.2, -1.39 63.66" stroke="#000000" stroke-width="1" fill="none"></path></g></g><g stroke-linecap="round"><g stroke-opacity="0.9" fill-opacity="0.9" transform="translate(258.66540102619933 99.51954436943186) rotate(0 97.19063704154132 28.81831161311726)"><path d="M-1.82 0.92 C30.86 11.11, 163.38 48.79, 196.2 58.68 M2.39 -1.04 C34.58 8.46, 160.26 44.47, 193.31 53.96" stroke="#000000" stroke-width="1" fill="none"></path></g><g stroke-opacity="0.9" fill-opacity="0.9" transform="translate(258.66540102619933 99.51954436943186) rotate(0 97.19063704154132 28.81831161311726)"><path d="M164.71 54.33 C173.27 52.52, 184.6 51.57, 192.2 54.94 M163.32 56.82 C170.8 55.32, 178.95 55.75, 193.4 55.55" stroke="#000000" stroke-width="1" fill="none"></path></g><g stroke-opacity="0.9" fill-opacity="0.9" transform="translate(258.66540102619933 99.51954436943186) rotate(0 97.19063704154132 28.81831161311726)"><path d="M170.36 34.61 C176.86 38.71, 186.47 43.75, 192.2 54.94 M168.98 37.09 C175.1 40.49, 181.87 45.74, 193.4 55.55" stroke="#000000" stroke-width="1" fill="none"></path></g></g></svg>