<svg version="1.1" xmlns="http://www.w3.org/2000/svg" viewBox="0 0 721.5546625310723 448.31741333007835" width="2164.663987593217" height="1344.952239990235">
  <!-- svg-source:excalidraw -->
  
  <defs>
    <style class="style-fonts">
      @font-face {
        font-family: "Virgil";
        src: url("https://excalidraw.com/Virgil.woff2");
      }
      @font-face {
        font-family: "Cascadia";
        src: url("https://excalidraw.com/Cascadia.woff2");
      }
    </style>
    
  </defs>
  <rect x="0" y="0" width="721.5546625310723" height="448.31741333007835" fill="#ffffff"></rect><g transform="translate(79.47761304450762 19.463861638849608) rotate(0 12.383995056152344 22.5)"><text x="0" y="0" font-family="Virgil, Segoe UI Emoji" font-size="36px" fill="#1e1e1e" text-anchor="start" style="white-space: pre;" direction="ltr" dominant-baseline="text-before-edge">0</text></g><g transform="translate(234.118504379735 12.375229344223612) rotate(0 4.877998352050781 22.5)"><text x="0" y="0" font-family="Virgil, Segoe UI Emoji" font-size="36px" fill="#1e1e1e" text-anchor="start" style="white-space: pre;" direction="ltr" dominant-baseline="text-before-edge">1</text></g><g transform="translate(383.94177985913825 12.81301787405323) rotate(0 12.815994262695312 22.5)"><text x="0" y="0" font-family="Virgil, Segoe UI Emoji" font-size="36px" fill="#1e1e1e" text-anchor="start" style="white-space: pre;" direction="ltr" dominant-baseline="text-before-edge">2</text></g><g stroke-linecap="round" transform="translate(10 61.892774177320234) rotate(0 75.724746241714 53.43142422762787)"><path d="M0.79 -0.62 C40.15 1.16, 80.46 0.75, 150.7 1.67 M0.23 0.14 C45.91 -0.63, 93.44 -0.16, 150.92 0.46 M150.47 0.41 C152.15 36.6, 151.94 76.25, 152.5 105.78 M151.87 0.11 C150.64 32.87, 150.75 65.13, 152.24 107.65 M150.1 108.22 C111.33 108.62, 70.15 106.9, 1.57 107.53 M151.76 106.65 C105.24 106.35, 60.49 105.44, -0.95 106.46 M1.06 105.86 C0.98 70.99, 0.63 33.45, -1.45 -0.25 M0.79 106.57 C1 79.52, 1.04 52, 0.45 -0.33" stroke="#1e1e1e" stroke-width="4" fill="none"></path></g><g transform="translate(57.67476607813978 102.8241984049481) rotate(0 28.04998016357422 12.5)"><text x="28.04998016357422" y="0" font-family="Virgil, Segoe UI Emoji" font-size="20px" fill="#1e1e1e" text-anchor="middle" style="white-space: pre;" direction="ltr" dominant-baseline="text-before-edge">PUSH1</text></g><g stroke-linecap="round" transform="translate(163.303389115767 62.643691554214115) rotate(0 75.724746241714 53.431424227627815)"><path d="M1.52 1.6 L151.87 -1.72 L149.46 105.3 L0.81 107.82" stroke="none" stroke-width="0" fill="#ffc9c9"></path><path d="M-1.93 0.7 C56.12 1.74, 116.38 1.61, 153.28 -0.5 M-0.88 -0.33 C57.66 -0.24, 114.17 -0.03, 151.84 -0.92 M150.38 1.33 C152.09 20.95, 151.43 45.19, 151.51 107.77 M150.81 0.34 C152.1 24.01, 151.64 48.38, 151.82 106.26 M152.74 108.71 C100.8 105.89, 46.39 105.49, -0.69 107.03 M151.5 106.28 C104.47 106.94, 58.52 106.53, -0.57 106.78 M-0.87 105.16 C-1.04 81.11, -0.84 54.19, 1.3 1 M-0.33 107.03 C-0.57 68.24, 1.08 29.82, 0.18 -0.12" stroke="#1e1e1e" stroke-width="4" fill="none"></path></g><g stroke-linecap="round" transform="translate(315.84642814867425 62.71133885239135) rotate(0 75.724746241714 53.431424227627815)"><path d="M-0.38 1.65 C54.63 -0.62, 109.02 -0.55, 153.21 1.24 M0.8 0.21 C47.31 -2.14, 95.56 -0.75, 151.93 -0.64 M152.64 -1.26 C150.65 21.2, 150.98 44.2, 149.61 108.73 M152.02 0.18 C150.93 33.45, 150.47 67.09, 151.81 107.83 M152.96 107.02 C117.11 105.52, 79.01 107.18, -0.3 105.25 M151.58 105.98 C106.06 107.26, 58.46 107.38, 0.62 107.75 M0.14 105.75 C2.25 77.11, -1.19 42.25, 0.12 1.66 M0.61 106.84 C0.33 78.55, 0.62 49.69, 0.57 0.12" stroke="#1e1e1e" stroke-width="4" fill="none"></path></g><g stroke-linecap="round" transform="translate(655.2000473484845 103.85388923413836) rotate(0 5.505602287523743 4.758037220348058)"><path d="M8 0 C8.9 0.25, 9.78 0.75, 10.12 1.75 C10.45 2.74, 10.12 4.66, 10.01 5.96 C9.89 7.26, 10.13 8.94, 9.41 9.55 C8.69 10.16, 7.05 9.77, 5.68 9.63 C4.32 9.5, 2.24 9.59, 1.22 8.76 C0.21 7.94, -0.32 5.71, -0.4 4.69 C-0.49 3.68, 0.09 3.4, 0.7 2.7 C1.32 2, 2.15 0.88, 3.29 0.5 C4.43 0.11, 6.66 0.19, 7.53 0.38 C8.39 0.57, 8.42 1.52, 8.47 1.64 M4.44 0.02 C5.9 -0.05, 8.69 0.23, 9.78 0.79 C10.88 1.34, 10.85 2.51, 11.01 3.35 C11.17 4.19, 11.04 4.86, 10.77 5.84 C10.5 6.82, 10.48 8.72, 9.41 9.26 C8.34 9.79, 5.52 9.1, 4.35 9.06 C3.17 9.02, 3.05 10.01, 2.36 9.04 C1.67 8.08, 0.13 4.6, 0.2 3.29 C0.27 1.97, 2.1 1.78, 2.78 1.13 C3.46 0.48, 4.12 -0.5, 4.29 -0.64 C4.46 -0.78, 3.55 0.25, 3.79 0.28" stroke="#1e1e1e" stroke-width="4" fill="none"></path></g><g stroke-linecap="round" transform="translate(675.8327507250233 102.86847201260662) rotate(0 5.505602287523743 4.758037220348058)"><path d="M7.25 -0.22 C8.26 0.02, 9.29 1.1, 9.9 2.23 C10.51 3.36, 11.05 5.49, 10.89 6.56 C10.74 7.63, 9.89 8.12, 8.97 8.64 C8.06 9.15, 6.66 9.53, 5.39 9.64 C4.13 9.74, 2.23 9.94, 1.37 9.25 C0.52 8.56, 0.38 6.53, 0.25 5.51 C0.11 4.49, -0.16 3.96, 0.57 3.11 C1.31 2.25, 3.55 0.66, 4.67 0.38 C5.79 0.11, 6.67 1.41, 7.28 1.45 C7.89 1.49, 8.33 0.8, 8.35 0.61 M6.57 0.9 C7.67 1.17, 9.15 1.5, 9.93 2.01 C10.7 2.51, 11.24 3.15, 11.2 3.92 C11.16 4.69, 10.37 5.87, 9.7 6.64 C9.02 7.41, 8.11 7.99, 7.14 8.54 C6.18 9.09, 5.23 10.38, 3.92 9.93 C2.6 9.47, 0.1 6.84, -0.74 5.82 C-1.58 4.79, -1.78 4.62, -1.12 3.78 C-0.47 2.94, 1.89 1.35, 3.18 0.79 C4.47 0.23, 6.4 0.49, 6.62 0.41 C6.84 0.34, 4.71 0.38, 4.49 0.36" stroke="#1e1e1e" stroke-width="4" fill="none"></path></g><g stroke-linecap="round" transform="translate(700.0123827385175 103.43817970969474) rotate(0 5.505602287523743 4.758037220348058)"><path d="M4.82 -0.54 C6.1 -0.74, 7.5 0.46, 8.54 1.11 C9.57 1.77, 10.63 2.58, 11.03 3.39 C11.43 4.21, 11.4 5.17, 10.93 5.99 C10.46 6.81, 9.23 7.79, 8.21 8.29 C7.2 8.78, 5.9 8.93, 4.84 8.97 C3.78 9.01, 2.79 9.31, 1.84 8.52 C0.88 7.74, -0.63 5.36, -0.89 4.26 C-1.15 3.17, -0.79 2.67, 0.27 1.94 C1.33 1.22, 4.52 0.19, 5.45 -0.08 C6.39 -0.34, 6.11 0.24, 5.87 0.37 M4.73 -0.68 C5.65 -0.52, 6.37 1.05, 7.17 1.59 C7.97 2.12, 8.75 1.86, 9.53 2.54 C10.32 3.21, 11.92 4.33, 11.87 5.63 C11.81 6.93, 10.61 9.49, 9.18 10.33 C7.76 11.17, 4.73 11.19, 3.3 10.69 C1.87 10.18, 1.3 8.2, 0.6 7.29 C-0.09 6.38, -0.96 6.25, -0.85 5.22 C-0.74 4.18, 0.43 1.75, 1.27 1.07 C2.12 0.4, 3.74 1.58, 4.23 1.19 C4.71 0.8, 3.85 -1.31, 4.18 -1.25" stroke="#1e1e1e" stroke-width="4" fill="none"></path></g><g stroke-linecap="round" transform="translate(468.44384395714974 62.173165986032586) rotate(0 75.724746241714 53.431424227627815)"><path d="M-1.8 1.31 C58.68 2.9, 119.13 -0.05, 152.9 0.22 M-0.84 -0.3 C54.63 1.51, 109.86 1.31, 151.93 0.45 M150.36 0.13 C154.36 23.98, 154.17 49.06, 153.2 108.86 M150.94 -0.79 C152.82 30.86, 151.34 62.19, 150.83 106.82 M153.28 108.41 C117.91 105.64, 81.04 105.61, 1.03 107.21 M151.05 107.74 C120.23 106.39, 88.21 105.79, 0.44 107.15 M-1.88 106.11 C0.94 70.11, -0.67 37.79, 1.78 -0.28 M-0.95 107.43 C-0.04 72.57, 0.58 35.89, -0.19 -0.08" stroke="#1e1e1e" stroke-width="4" fill="none"></path></g><g transform="translate(537.7128291274562 10) rotate(0 12.25799560546875 22.5)"><text x="0" y="0" font-family="Virgil, Segoe UI Emoji" font-size="36px" fill="#1e1e1e" text-anchor="start" style="white-space: pre;" direction="ltr" dominant-baseline="text-before-edge">3</text></g><g stroke-linecap="round" transform="translate(10.194272128018724 196.52668808445787) rotate(0 75.724746241714 53.43142422762787)"><path d="M0.58 1.07 C41.16 -0.99, 82.35 1.34, 151.15 -0.97 M0.94 -0.06 C40.1 1.29, 78.79 0.69, 150.67 -0.06 M151.53 0.66 C150.89 21.31, 152.41 46.27, 150.19 106.25 M152.08 0.16 C152.35 22.22, 152.92 44.77, 151.75 106.12 M151.45 105.79 C106.34 105.55, 56.72 107.12, -1.97 108.08 M152.41 106.94 C90.49 107.97, 31.6 107.71, -0.84 106.07 M-1.62 106.42 C-2.1 83.44, -0.23 61.12, -0.33 -1.77 M-0.16 106.61 C-0.33 82.04, -0.37 54.93, -0.03 0.83" stroke="#1e1e1e" stroke-width="4" fill="none"></path></g><g transform="translate(53.45904217344366 237.45811231208563) rotate(0 32.45997619628906 12.5)"><text x="32.45997619628906" y="0" font-family="Virgil, Segoe UI Emoji" font-size="20px" fill="#1e1e1e" text-anchor="middle" style="white-space: pre;" direction="ltr" dominant-baseline="text-before-edge">PUSH2</text></g><g stroke-linecap="round" transform="translate(163.49766124378573 197.27760546135164) rotate(0 75.724746241714 53.43142422762787)"><path d="M-1.63 0.77 L153.39 -1.71 L152.55 107.29 L-1.19 105.38" stroke="none" stroke-width="0" fill="#ffc9c9"></path><path d="M-1.46 1.94 C53.25 -0.68, 106.29 0.81, 149.94 1.89 M0.22 -0.46 C43.77 -0.29, 88.26 -1.05, 150.75 0.04 M153.29 -0.13 C150.36 34.98, 149.84 73.02, 151.89 108.13 M151.94 -0.3 C151.66 33.06, 151.46 67.99, 150.53 106.86 M150.51 108.5 C112.19 108.14, 78.85 106.12, 1.07 108.78 M152.39 106.9 C104.02 106.52, 57.4 107.98, -0.18 106.05 M0.49 106.59 C0.41 75.41, -0.45 47.61, -0.63 -0.31 M-0.31 106.26 C0.26 78.39, 0 48.78, 0.56 -0.27" stroke="#1e1e1e" stroke-width="4" fill="none"></path></g><g stroke-linecap="round" transform="translate(316.040700276693 197.34525275952888) rotate(0 75.724746241714 53.43142422762787)"><path d="M1.94 -1.71 L152.55 0.43 L150.26 105.38 L0.95 107.53" stroke="none" stroke-width="0" fill="#ffc9c9"></path><path d="M-0.3 -0.97 C41.69 -0.95, 83.49 0.42, 151.33 1.62 M-0.78 -0.06 C46.83 -0.13, 94.62 0.73, 151.78 0.16 M150.19 -0.61 C150.65 23.78, 152.88 45.17, 151.78 106.71 M151.75 -0.75 C152.08 29, 151.06 57.25, 150.91 107.76 M149.48 108.08 C107.42 107.3, 60.51 110.02, 0.15 105.73 M150.61 106.07 C100.62 107.59, 51.36 106.11, -0.22 106.17 M-0.33 105.09 C-1.46 78.57, -0.89 49.73, -0.51 -0.53 M-0.03 107.7 C0.05 66.31, 0.89 24.42, -0.81 0.39" stroke="#1e1e1e" stroke-width="4" fill="none"></path></g><g stroke-linecap="round" transform="translate(655.3943194765033 238.48780314127612) rotate(0 5.505602287523743 4.758037220348115)"><path d="M6.16 0.85 C7.43 0.8, 8.98 1.27, 9.71 1.76 C10.44 2.25, 10.53 2.93, 10.55 3.77 C10.57 4.61, 10.59 6, 9.81 6.82 C9.03 7.64, 7.01 8.29, 5.88 8.7 C4.74 9.12, 3.89 9.82, 3 9.31 C2.12 8.8, 0.89 6.64, 0.58 5.64 C0.28 4.63, 0.95 4.13, 1.18 3.26 C1.4 2.4, 1.15 0.81, 1.91 0.44 C2.68 0.07, 4.88 0.94, 5.77 1.02 C6.67 1.11, 7.13 1.02, 7.29 0.93 M5.07 -1.06 C6.06 -1.11, 7.76 0.52, 8.47 1.23 C9.18 1.94, 9.1 2.1, 9.33 3.19 C9.56 4.29, 10.03 6.95, 9.85 7.79 C9.67 8.62, 8.94 8.18, 8.25 8.2 C7.56 8.23, 6.72 7.78, 5.7 7.95 C4.69 8.13, 3.21 9.66, 2.15 9.25 C1.1 8.84, -0.7 6.74, -0.6 5.49 C-0.5 4.24, 2.05 2.59, 2.77 1.76 C3.5 0.93, 3.23 0.77, 3.78 0.51 C4.32 0.25, 6.11 0.41, 6.06 0.21" stroke="#1e1e1e" stroke-width="4" fill="none"></path></g><g stroke-linecap="round" transform="translate(676.027022853042 237.50238591974426) rotate(0 5.505602287523743 4.758037220348115)"><path d="M8.15 0.74 C9.12 0.86, 9.69 1.36, 10.12 2.12 C10.54 2.89, 11.11 4.33, 10.71 5.32 C10.3 6.31, 8.65 7.3, 7.68 8.05 C6.7 8.8, 5.88 9.98, 4.87 9.81 C3.86 9.65, 2.29 7.87, 1.64 7.06 C0.98 6.24, 1.12 5.85, 0.93 4.94 C0.74 4.03, 0.07 2.24, 0.48 1.59 C0.89 0.94, 2.04 1.09, 3.38 1.04 C4.72 0.99, 7.65 1.34, 8.53 1.3 C9.42 1.27, 8.85 0.79, 8.71 0.83 M4.82 0.61 C5.62 0.6, 6.15 0.04, 7 0.7 C7.85 1.36, 9.3 3.73, 9.92 4.58 C10.53 5.43, 10.78 5.31, 10.69 5.78 C10.6 6.26, 10.27 6.6, 9.37 7.45 C8.48 8.31, 6.8 10.73, 5.34 10.9 C3.87 11.08, 1.25 9.55, 0.6 8.53 C-0.05 7.5, 1.45 5.84, 1.44 4.76 C1.43 3.68, -0.25 2.84, 0.53 2.06 C1.3 1.29, 5.61 0.63, 6.09 0.11 C6.58 -0.41, 3.88 -1.28, 3.44 -1.05" stroke="#1e1e1e" stroke-width="4" fill="none"></path></g><g stroke-linecap="round" transform="translate(700.2066548665363 238.0720936168325) rotate(0 5.505602287523743 4.758037220348115)"><path d="M7.22 -0.39 C8.24 -0.24, 9.89 0.86, 10.36 1.79 C10.83 2.71, 10.29 3.96, 10.04 5.15 C9.79 6.33, 9.62 8.33, 8.84 8.9 C8.06 9.47, 6.38 8.69, 5.35 8.56 C4.32 8.44, 3.65 8.75, 2.66 8.16 C1.67 7.57, -0.15 5.86, -0.59 5.01 C-1.03 4.16, -0.78 3.76, 0.01 3.07 C0.8 2.37, 2.69 1.23, 4.14 0.84 C5.59 0.45, 7.91 0.54, 8.71 0.72 C9.51 0.89, 9.05 1.76, 8.92 1.89 M2.12 0.33 C2.98 0.05, 5.1 1.38, 6.45 1.59 C7.81 1.8, 9.31 1.17, 10.26 1.57 C11.21 1.97, 12.21 2.62, 12.18 3.99 C12.15 5.36, 11.25 8.75, 10.06 9.81 C8.87 10.86, 6.13 10.52, 5.04 10.31 C3.95 10.11, 4.47 9.29, 3.51 8.59 C2.55 7.9, -0.5 7.16, -0.74 6.15 C-0.98 5.14, 1.59 3.71, 2.09 2.54 C2.58 1.37, 2.22 -0.68, 2.24 -0.87 C2.26 -1.05, 2.03 1.35, 2.23 1.42" stroke="#1e1e1e" stroke-width="4" fill="none"></path></g><g stroke-linecap="round" transform="translate(468.63811608516846 196.8070798931701) rotate(0 75.724746241714 53.43142422762787)"><path d="M0.29 0.44 C58.8 -2.78, 119.31 -2.89, 149.8 -1.4 M-0.95 0.92 C45.94 -0.87, 91.71 -1.13, 152.37 0.22 M150.81 0.99 C151.02 39.44, 150.13 77.88, 152.2 105.03 M151.49 -0.47 C151.69 31.08, 151.48 65.13, 151.05 107.4 M152.05 108.75 C91.58 104.33, 29.95 104.26, 1.34 106.51 M151.11 107.11 C118.14 105.64, 84.23 105.21, 0.06 106.55 M1.69 106.25 C-0.93 76.43, 1.94 45.55, 1.07 1.12 M0.97 106.01 C1.42 77.92, 0.27 47.82, 0.48 0.33" stroke="#1e1e1e" stroke-width="4" fill="none"></path></g><g stroke-linecap="round" transform="translate(10.531075217507237 330.7036474979286) rotate(0 75.724746241714 53.43142422762787)"><path d="M-0.44 -0.75 C38.08 -1.49, 76.17 0.43, 149.91 -1.65 M-0.98 0.94 C33.83 -0.76, 67.14 -0.76, 151.48 -0.77 M152.52 0.32 C148.85 23.11, 152.14 42.73, 149.67 107.95 M150.62 -0.65 C151.14 32.34, 150.44 65.8, 150.49 106.1 M150.6 106.02 C107.38 107.6, 65.74 106.19, -1.5 107.82 M151.97 106.71 C101.13 106.13, 49.83 106.1, 0.57 106.66 M-0.04 106.54 C-0.34 77.04, -0.41 47, -0.84 -1.39 M0.72 107.61 C-1.07 71.65, 0.22 38.99, -0.1 0.16" stroke="#1e1e1e" stroke-width="4" fill="none"></path></g><g transform="translate(54.105842821525926 371.6350717255566) rotate(0 32.14997863769531 12.5)"><text x="32.14997863769531" y="0" font-family="Virgil, Segoe UI Emoji" font-size="20px" fill="#1e1e1e" text-anchor="middle" style="white-space: pre;" direction="ltr" dominant-baseline="text-before-edge">PUSH3</text></g><g stroke-linecap="round" transform="translate(163.83446433327424 331.4545648748226) rotate(0 75.724746241714 53.43142422762787)"><path d="M-0.33 0.79 L149.48 0.45 L149.92 107.83 L0.98 107.31" stroke="none" stroke-width="0" fill="#ffc9c9"></path><path d="M-0.59 1.12 C38.18 -1.04, 77.88 1.67, 151.41 -1.96 M0.01 -0.79 C59.73 0.42, 118.46 0.24, 152.11 0.54 M153.15 -1.36 C148.82 34.86, 150.76 66.75, 151.25 105.2 M150.87 -0.03 C150.62 24.31, 151.44 50.63, 152.01 106.44 M152.25 105.34 C110.91 107.73, 74.13 106.84, -0.85 107.9 M151.91 106.75 C108.96 106.53, 65.07 105.99, 0.44 106.84 M-1.2 105.47 C-0.23 75.14, 1.01 47.61, -0.83 1.44 M0.97 107.45 C0.24 66.96, -0.02 26.23, 0.09 1" stroke="#1e1e1e" stroke-width="4" fill="none"></path></g><g stroke-linecap="round" transform="translate(316.3775033661815 331.34188102953385) rotate(0 75.724746241714 53.43142422762787)"><path d="M-1.97 0.45 L149.92 0.97 L152.43 107.31 L-1.9 107.11" stroke="none" stroke-width="0" fill="#ffc9c9"></path><path d="M-1.54 -1.65 C37.82 0.21, 78.74 -2.81, 153.33 0.53 M0.03 -0.77 C32.59 0.25, 67.73 1.73, 151.61 -0.79 M149.67 1.09 C152.52 36.92, 152.16 73.77, 150.14 107.11 M150.49 -0.77 C150.69 26.4, 151.39 51.43, 151.03 106.46 M149.95 107.82 C107.63 105.78, 61.47 106.75, -0.31 108.29 M152.02 106.66 C107.06 105.94, 63.65 106.67, -0.16 106.29 M-0.84 105.48 C1.05 79.37, -0.19 50.49, 1.5 -0.63 M-0.1 107.02 C-1.4 84.81, -0.95 64.79, -0.16 0.39" stroke="#1e1e1e" stroke-width="4" fill="none"></path></g><g stroke-linecap="round" transform="translate(655.7311225659918 372.66476255474663) rotate(0 5.505602287523743 4.758037220348001)"><path d="M7.89 0.43 C8.86 0.79, 8.86 1.25, 9.24 2.05 C9.63 2.85, 10.3 4.37, 10.2 5.22 C10.09 6.08, 9.48 6.38, 8.61 7.2 C7.75 8.02, 5.98 9.9, 5.02 10.16 C4.06 10.43, 3.81 9.42, 2.87 8.81 C1.93 8.2, -0.36 7.63, -0.61 6.5 C-0.86 5.38, 0.89 2.97, 1.37 2.05 C1.86 1.13, 1.32 1.35, 2.31 0.98 C3.29 0.61, 6.45 0.07, 7.29 -0.17 C8.12 -0.4, 7.47 -0.59, 7.32 -0.43 M2.51 -0.95 C3.67 -1.16, 6.03 0.62, 7.49 1.11 C8.95 1.61, 10.82 1.31, 11.28 2 C11.74 2.69, 10.66 4.07, 10.22 5.26 C9.79 6.46, 9.72 8.67, 8.69 9.19 C7.66 9.71, 5.06 8.45, 4.02 8.38 C2.98 8.31, 3.09 9.38, 2.43 8.76 C1.77 8.14, 0.21 5.8, 0.09 4.66 C-0.04 3.51, 0.88 2.66, 1.7 1.89 C2.52 1.13, 4.52 0.36, 5.02 0.06 C5.51 -0.23, 4.68 0.06, 4.67 0.11" stroke="#1e1e1e" stroke-width="4" fill="none"></path></g><g stroke-linecap="round" transform="translate(676.3638259425305 371.67934533321477) rotate(0 5.505602287523743 4.758037220348001)"><path d="M2.13 0.57 C2.8 0.02, 4.7 0.08, 5.85 0.14 C7.01 0.19, 8.37 -0.02, 9.07 0.89 C9.77 1.8, 9.88 4.38, 10.06 5.58 C10.24 6.79, 10.9 7.36, 10.14 8.1 C9.38 8.83, 6.6 10, 5.49 10 C4.37 10, 4.46 8.65, 3.44 8.11 C2.43 7.58, -0.13 7.7, -0.62 6.78 C-1.11 5.85, -0.23 3.81, 0.48 2.58 C1.19 1.36, 3.06 -0.2, 3.65 -0.58 C4.23 -0.97, 4.04 0.16, 3.99 0.28 M5.21 0.72 C6.71 0.73, 8.98 0.01, 9.83 0.43 C10.67 0.85, 10.21 2.05, 10.28 3.25 C10.35 4.46, 10.89 6.87, 10.23 7.68 C9.57 8.48, 7.29 7.72, 6.32 8.08 C5.35 8.43, 5.33 10.06, 4.42 9.81 C3.5 9.55, 1.42 7.57, 0.83 6.56 C0.23 5.55, 0.49 4.69, 0.85 3.76 C1.21 2.84, 2.1 1.68, 2.98 1.03 C3.85 0.37, 5.56 0.03, 6.11 -0.17 C6.67 -0.38, 6.46 -0.13, 6.28 -0.2" stroke="#1e1e1e" stroke-width="4" fill="none"></path></g><g stroke-linecap="round" transform="translate(700.5434579560248 372.249053030303) rotate(0 5.505602287523743 4.758037220348001)"><path d="M5.44 0.07 C6.56 -0.02, 8.03 -0.25, 8.8 0.61 C9.57 1.47, 9.79 4.02, 10.06 5.22 C10.33 6.42, 11.1 7.03, 10.41 7.82 C9.72 8.6, 7 9.85, 5.9 9.93 C4.8 10.01, 4.87 8.76, 3.81 8.29 C2.75 7.83, 0.11 8.01, -0.47 7.12 C-1.05 6.22, -0.15 4.13, 0.34 2.93 C0.82 1.72, 1.45 0.35, 2.45 -0.09 C3.45 -0.52, 5.55 0.3, 6.32 0.29 C7.09 0.29, 7 0.01, 7.08 -0.1 M4.29 -0.29 C5.24 -0.93, 5.61 -0.9, 6.58 -0.38 C7.54 0.15, 9.55 2.06, 10.09 2.84 C10.63 3.62, 9.84 3.29, 9.81 4.3 C9.78 5.3, 10.58 8.09, 9.91 8.85 C9.23 9.61, 6.91 8.97, 5.74 8.88 C4.58 8.78, 3.65 8.81, 2.89 8.27 C2.13 7.73, 1.45 6.6, 1.19 5.61 C0.93 4.63, 0.82 3.27, 1.33 2.35 C1.85 1.42, 4.01 0.55, 4.3 0.05 C4.59 -0.46, 3.09 -0.8, 3.09 -0.68" stroke="#1e1e1e" stroke-width="4" fill="none"></path></g><g stroke-linecap="round" transform="translate(468.974919174657 330.9840393066411) rotate(0 75.724746241714 53.43142422762787)"><path d="M0.75 0.19 L149.52 -0.24 L150.63 108.14 L1.02 105.93" stroke="none" stroke-width="0" fill="#ffc9c9"></path><path d="M-1.57 0.01 C29.02 -0.33, 59.65 -2.27, 149.56 1.33 M0.53 0.85 C52.9 0.31, 107.7 1.28, 151.05 -0.1 M150.3 -1.16 C150.69 21.27, 149.22 46.09, 152.4 107.99 M151.39 0.4 C150.23 26.75, 151.48 55.38, 151.48 106.44 M151.28 107.78 C97.91 109.08, 44.43 107.42, -1.49 107.74 M151.15 106.26 C105.62 105.58, 60.5 106.21, 0.71 106.45 M-1.97 108.81 C0.38 66.92, -0.48 26.63, -1.03 0.18 M-0.99 107.09 C-0.59 64.62, 0.66 21.64, -0.95 0.12" stroke="#1e1e1e" stroke-width="4" fill="none"></path></g></svg>