<svg version="1.1" xmlns="http://www.w3.org/2000/svg" viewBox="0 0 878.2716568155664 387.7552351817501" width="878.2716568155664" height="387.7552351817501">
  <!-- svg-source:excalidraw -->
  <rect x="0" y="0" width="100%" height="100%" fill="white" />

  <defs>
    <style>
      @font-face {
        font-family: "Virgil";
        src: url("https://excalidraw.com/Virgil.woff2");
      }
      @font-face {
        font-family: "Cascadia";
        src: url("https://excalidraw.com/Cascadia.woff2");
      }
    </style>
  </defs>
  <g stroke-opacity="0.9" fill-opacity="0.9" stroke-linecap="round" transform="translate(11.287423479245945 13.714699345270276) rotate(0 114.22700486705872 182.0202679182399)"><path d="M-2.29 2.92 C51.59 5.76, 103.38 4.9, 231.58 -2.11 M0.65 1.05 C63.72 0.65, 127.45 -0.83, 227.11 -0.13 M227.43 0.02 C222.36 77.08, 222.81 152.18, 227.02 366.45 M227.76 -1.12 C227.79 127.59, 228.73 254.56, 229.6 364.25 M226.26 365.39 C160.18 362.18, 98.08 363.45, 0.44 366.47 M228.73 364.21 C141.4 364.01, 55.95 362.02, 0.54 364.84 M-0.19 364.21 C4.75 258.24, 1.69 150.2, -0.53 -1.81 M0.98 364.62 C2.77 236.53, 2.75 106.22, -0.16 0.54" stroke="#000000" stroke-width="1" fill="none"></path></g><g stroke-linecap="round"><g stroke-opacity="0.9" fill-opacity="0.9" transform="translate(15.00212282451605 84.9131034629491) rotate(0 110.23073435542216 -1.0017716695368222)"><path d="M-0.47 -0.42 C35.71 -0.44, 182.15 -1.51, 219.21 -1.63 M-4.16 -3.12 C32.72 -2.66, 187.18 0.37, 224.63 1.12" stroke="#000000" stroke-width="1" fill="none"></path></g></g><g stroke-linecap="round"><g stroke-opacity="0.9" fill-opacity="0.9" transform="translate(12.525656594336056 305.93771450652616) rotate(0 111.18917988091238 2.1055735681950978)"><path d="M-2.53 1.63 C35.05 2.07, 187.02 0.59, 224.9 0.35 M1.3 0.05 C38.51 1.21, 185.53 3.61, 222.42 4.16" stroke="#000000" stroke-width="1" fill="none"></path></g></g><g stroke-opacity="0.9" fill-opacity="0.9" transform="translate(51.52999971967313 38.14699345270208) rotate(0 79.5 12.5)"><text x="0" y="18" font-family="Virgil, Segoe UI Emoji" font-size="20px" fill="#000000" text-anchor="start" style="white-space: pre;" direction="ltr">Block #1 header</text></g><g stroke-opacity="0.9" fill-opacity="0.9" transform="translate(33.575619550867145 104.39246511002068) rotate(0 30.5 12.5)"><text x="0" y="18" font-family="Virgil, Segoe UI Emoji" font-size="20px" fill="#000000" text-anchor="start" style="white-space: pre;" direction="ltr">Tx #1</text></g><g stroke-opacity="0.9" fill-opacity="0.9" transform="translate(32.33738643577715 138.44387577499742) rotate(0 35 12.5)"><text x="0" y="18" font-family="Virgil, Segoe UI Emoji" font-size="20px" fill="#000000" text-anchor="start" style="white-space: pre;" direction="ltr">Tx #2</text></g><g stroke-opacity="0.9" fill-opacity="0.9" transform="translate(35.432969223502255 238.12164153974823) rotate(0 34 12.5)"><text x="0" y="18" font-family="Virgil, Segoe UI Emoji" font-size="20px" fill="#000000" text-anchor="start" style="white-space: pre;" direction="ltr">Tx #N</text></g><g stroke-opacity="0.9" fill-opacity="0.9" transform="translate(18.716822169786383 316.13032779042214) rotate(0 46.5 12.5)"><text x="0" y="18" font-family="Virgil, Segoe UI Emoji" font-size="20px" fill="#000000" text-anchor="start" style="white-space: pre;" direction="ltr">Ommer #1</text></g><g stroke-opacity="0.9" fill-opacity="0.9" transform="translate(16.24035593960616 342.1332232073137) rotate(0 51 12.5)"><text x="0" y="18" font-family="Virgil, Segoe UI Emoji" font-size="20px" fill="#000000" text-anchor="start" style="white-space: pre;" direction="ltr">Ommer #2</text></g><g stroke-opacity="0.9" fill-opacity="0.9" stroke-linecap="round" transform="translate(317.46515636734307 11.238233115090054) rotate(0 114.22700486705872 182.0202679182399)"><path d="M2.07 -1.87 C53.29 -0.99, 115.72 1.12, 230.13 0.4 M0.42 1.31 C65.99 0.61, 130.8 -0.91, 229.46 1.68 M226.34 -0.98 C231.16 78.21, 229.58 155.1, 229.63 361.77 M229.14 1.11 C230.83 75.36, 231.13 149.33, 227.37 363.24 M230.36 363.04 C181.68 366.41, 130.38 365.25, 2.82 367.31 M227.85 362.71 C143.75 362.75, 54.84 362.57, 1.32 364.84 M2.15 365.77 C3.24 256.14, 3.32 150.8, 1.43 1.58 M-0.96 362.94 C-4.03 261.63, -2.79 158.46, -0.58 -0.78" stroke="#000000" stroke-width="1" fill="none"></path></g><g stroke-linecap="round"><g stroke-opacity="0.9" fill-opacity="0.9" transform="translate(321.1798557126133 82.43663723276887) rotate(0 111.2697361790859 0.6423937635515244)"><path d="M1.7 -1.53 C38.24 -1.71, 181.46 -2.64, 218.39 -2.52 M-0.82 3.8 C36.62 4.02, 186.11 0.06, 223.36 -0.25" stroke="#000000" stroke-width="1" fill="none"></path></g></g><g stroke-linecap="round"><g stroke-opacity="0.9" fill-opacity="0.9" transform="translate(318.7033894824333 303.46124827634594) rotate(0 113.1714123367471 -0.20670901387933327)"><path d="M-1.53 -2.64 C35.85 -2.55, 185.16 1.55, 222.84 2.22 M2.83 2.1 C41.19 1.28, 191.29 -0.66, 227.88 -1.58" stroke="#000000" stroke-width="1" fill="none"></path></g></g><g stroke-opacity="0.9" fill-opacity="0.9" transform="translate(357.70773260777037 35.67052722252191) rotate(0 84 12.5)"><text x="0" y="18" font-family="Virgil, Segoe UI Emoji" font-size="20px" fill="#000000" text-anchor="start" style="white-space: pre;" direction="ltr">Block #2 header</text></g><g stroke-opacity="0.9" fill-opacity="0.9" transform="translate(339.7533524389644 101.91599887984052) rotate(0 30.5 12.5)"><text x="0" y="18" font-family="Virgil, Segoe UI Emoji" font-size="20px" fill="#000000" text-anchor="start" style="white-space: pre;" direction="ltr">Tx #1</text></g><g stroke-opacity="0.9" fill-opacity="0.9" transform="translate(338.5151193238744 135.96740954481697) rotate(0 35 12.5)"><text x="0" y="18" font-family="Virgil, Segoe UI Emoji" font-size="20px" fill="#000000" text-anchor="start" style="white-space: pre;" direction="ltr">Tx #2</text></g><g stroke-opacity="0.9" fill-opacity="0.9" transform="translate(341.6107021115995 235.645175309568) rotate(0 35.5 12.5)"><text x="0" y="18" font-family="Virgil, Segoe UI Emoji" font-size="20px" fill="#000000" text-anchor="start" style="white-space: pre;" direction="ltr">Tx #M</text></g><g stroke-opacity="0.9" fill-opacity="0.9" transform="translate(324.8945550578835 313.6538615602419) rotate(0 46.5 12.5)"><text x="0" y="18" font-family="Virgil, Segoe UI Emoji" font-size="20px" fill="#000000" text-anchor="start" style="white-space: pre;" direction="ltr">Ommer #1</text></g><g stroke-opacity="0.9" fill-opacity="0.9" transform="translate(322.4180888277035 339.65675697713345) rotate(0 51 12.5)"><text x="0" y="18" font-family="Virgil, Segoe UI Emoji" font-size="20px" fill="#000000" text-anchor="start" style="white-space: pre;" direction="ltr">Ommer #2</text></g><g stroke-opacity="0.9" fill-opacity="0.9" stroke-linecap="round" transform="translate(639.8176470814491 10) rotate(0 114.22700486705867 182.02026791823994)"><path d="M2.55 0.47 C54.35 -0.75, 102.69 2.69, 229.09 -2.76 M-0.27 -0.51 C53.15 1.54, 105.06 -0.79, 228.28 1.02 M230.04 1.65 C227.67 92.05, 231.23 178.81, 229.86 363.33 M228.2 -0.54 C232.62 100.79, 233.39 203.22, 229.38 364.36 M228 365.58 C176.91 364.8, 124.82 368.09, -2.09 362.6 M229.07 364.35 C162.25 367.61, 100.69 367.26, -0.92 364.86 M0.26 364.14 C-1.97 262.88, -0.53 161.72, -2.12 -1.53 M-0.4 364.33 C-0.47 242.24, -0.59 122.22, 0.86 -0.51" stroke="#000000" stroke-width="1" fill="none"></path></g><g stroke-linecap="round"><g stroke-opacity="0.9" fill-opacity="0.9" transform="translate(643.5323464267193 81.19840411767882) rotate(0 110.97022070174148 0.7549105583131279)"><path d="M2.1 0.39 C38.95 0.29, 186.11 -0.54, 222.15 -0.16 M-0.21 -1.87 C36.28 -1.53, 183.2 3.31, 220.52 3.38" stroke="#000000" stroke-width="1" fill="none"></path></g></g><g stroke-linecap="round"><g stroke-opacity="0.9" fill-opacity="0.9" transform="translate(641.0558801965393 302.22301516125617) rotate(0 111.17475835315417 -0.7840389832854271)"><path d="M0.39 1.12 C37.85 0.33, 187.26 -2.59, 225.2 -2.69 M-2.85 -0.73 C34.19 -1.48, 184.45 -1.3, 222.87 -0.52" stroke="#000000" stroke-width="1" fill="none"></path></g></g><g stroke-opacity="0.9" fill-opacity="0.9" transform="translate(680.0602233218764 34.43229410743197) rotate(0 83.5 12.5)"><text x="0" y="18" font-family="Virgil, Segoe UI Emoji" font-size="20px" fill="#000000" text-anchor="start" style="white-space: pre;" direction="ltr">Block #3 header</text></g><g stroke-opacity="0.9" fill-opacity="0.9" transform="translate(662.1058431530704 100.67776576475057) rotate(0 30.5 12.5)"><text x="0" y="18" font-family="Virgil, Segoe UI Emoji" font-size="20px" fill="#000000" text-anchor="start" style="white-space: pre;" direction="ltr">Tx #1</text></g><g stroke-opacity="0.9" fill-opacity="0.9" transform="translate(660.8676100379806 134.72917642972698) rotate(0 35 12.5)"><text x="0" y="18" font-family="Virgil, Segoe UI Emoji" font-size="20px" fill="#000000" text-anchor="start" style="white-space: pre;" direction="ltr">Tx #2</text></g><g stroke-opacity="0.9" fill-opacity="0.9" transform="translate(663.9631928257057 235.02605875202335) rotate(0 34 12.5)"><text x="0" y="18" font-family="Virgil, Segoe UI Emoji" font-size="20px" fill="#000000" text-anchor="start" style="white-space: pre;" direction="ltr">Tx #P</text></g><g stroke-opacity="0.9" fill-opacity="0.9" transform="translate(647.2470457719895 312.41562844515215) rotate(0 46.5 12.5)"><text x="0" y="18" font-family="Virgil, Segoe UI Emoji" font-size="20px" fill="#000000" text-anchor="start" style="white-space: pre;" direction="ltr">Ommer #1</text></g><g stroke-opacity="0.9" fill-opacity="0.9" transform="translate(644.7705795418095 338.4185238620437) rotate(0 51 12.5)"><text x="0" y="18" font-family="Virgil, Segoe UI Emoji" font-size="20px" fill="#000000" text-anchor="start" style="white-space: pre;" direction="ltr">Ommer #2</text></g><g stroke-linecap="round"><g stroke-opacity="0.9" fill-opacity="0.9" transform="translate(315.89276979140266 47.75895138321607) rotate(0 -37.54785488905753 0.7534651411758944)"><path d="M1.84 -2.05 C-10.53 -2.17, -61.78 -0.29, -74.77 -0.51 M-0.61 3.01 C-13.29 3.36, -63.95 3.97, -76.93 3.17" stroke="#000000" stroke-width="1" fill="none"></path></g><g stroke-opacity="0.9" fill-opacity="0.9" transform="translate(315.89276979140266 47.75895138321607) rotate(0 -37.54785488905753 0.7534651411758944)"><path d="M-51.48 -6.34 C-56.33 -5.12, -68.38 0.91, -78.12 0.67 M-48.05 -6.89 C-59.56 -3.75, -69.22 -0.37, -78.29 3.41" stroke="#000000" stroke-width="1" fill="none"></path></g><g stroke-opacity="0.9" fill-opacity="0.9" transform="translate(315.89276979140266 47.75895138321607) rotate(0 -37.54785488905753 0.7534651411758944)"><path d="M-51.88 14.18 C-56.65 9.65, -68.58 9.94, -78.12 0.67 M-48.44 13.63 C-59.46 9.82, -68.99 6.24, -78.29 3.41" stroke="#000000" stroke-width="1" fill="none"></path></g></g><g stroke-linecap="round"><g stroke-opacity="0.9" fill-opacity="0.9" transform="translate(637.8333797148201 45.28343742079926) rotate(0 -44.662274491417634 2.3899664602693633)"><path d="M0.36 -1.72 C-14.2 -1.1, -72 5.16, -86.74 6.5 M-2.89 3.52 C-17.99 4.5, -76.39 2.63, -89.68 2.29" stroke="#000000" stroke-width="1" fill="none"></path></g><g stroke-opacity="0.9" fill-opacity="0.9" transform="translate(637.8333797148201 45.28343742079926) rotate(0 -44.662274491417634 2.3899664602693633)"><path d="M-63.68 -9.05 C-68.08 -7.83, -77.51 0.83, -87.08 4.31 M-61.57 -7.77 C-68.99 -2.88, -78.11 -2.75, -90.72 2.54" stroke="#000000" stroke-width="1" fill="none"></path></g><g stroke-opacity="0.9" fill-opacity="0.9" transform="translate(637.8333797148201 45.28343742079926) rotate(0 -44.662274491417634 2.3899664602693633)"><path d="M-64.25 11.46 C-68.87 6.09, -78.12 8.16, -87.08 4.31 M-62.14 12.74 C-69.71 11.19, -78.66 4.86, -90.72 2.54" stroke="#000000" stroke-width="1" fill="none"></path></g></g></svg>