<svg version="1.1" xmlns="http://www.w3.org/2000/svg" viewBox="0 0 847.4492791589375 408.1860815807359" width="847.4492791589375" height="408.1860815807359">
  <!-- svg-source:excalidraw -->
  <rect x="0" y="0" width="100%" height="100%" fill="white" />

  <defs>
    <style>
      @font-face {
        font-family: "Virgil";
        src: url("https://excalidraw.com/Virgil.woff2");
      }
      @font-face {
        font-family: "Cascadia";
        src: url("https://excalidraw.com/Cascadia.woff2");
      }
    </style>
  </defs>
  <g stroke-opacity="0.9" fill-opacity="0.9" stroke-linecap="round" transform="translate(10 171.5894215192538) rotate(0 72.74619551154146 45.19550870078746)"><path d="M-2.54 1.49 C45.17 5.19, 88.6 5.27, 142.1 1.82 M-1.44 1.49 C34.84 -0.15, 68.5 1.78, 144.92 0.14 M142.49 2.33 C143.4 27.13, 149.19 53.67, 149.14 89.99 M146.42 -0.68 C143.37 29.73, 145.44 60, 144.53 92.29 M146.12 89.39 C94.27 91.83, 52.66 91.34, 0.19 91.65 M144.15 89.25 C90.78 89.45, 37.54 86.86, -0.76 92.24 M0.73 89.9 C3.27 62.13, 4.5 30.51, -1.47 3.19 M-0.86 91.85 C1.38 66.5, 1.37 45.92, 0.85 1.78" stroke="#000000" stroke-width="1" fill="none"></path></g><g stroke-opacity="0.9" fill-opacity="0.9" stroke-linecap="round" transform="translate(254.8605985090607 307.795064179161) rotate(0 72.74619551154149 45.19550870078746)"><path d="M2.93 -0.77 C28.13 0.47, 62.88 2.95, 149.05 -2.12 M-1.05 -0.85 C29.23 -1.95, 58.46 -2.58, 144.13 -0.09 M147.66 2.64 C146.51 36.93, 148.22 68.43, 144.16 93.25 M147.32 -1.39 C144.55 33.99, 146.84 67.32, 145.67 90.96 M148.62 89.32 C91.8 92.45, 39.95 92.96, 2.62 90.72 M145.13 88.96 C88.12 90.19, 32.1 89.16, 1.9 91.93 M3.77 92.2 C-1.09 66.94, -4.17 45.91, 1.78 -0.15 M0.86 90.02 C1.97 69.73, 2.24 48.25, 1.47 0.15" stroke="#000000" stroke-width="1" fill="none"></path></g><g stroke-opacity="0.9" fill-opacity="0.9" stroke-linecap="round" transform="translate(254.24148195151582 167.25560561643846) rotate(0 72.74619551154149 45.19550870078746)"><path d="M2.52 3.77 C56.68 -1.27, 108.36 -4.35, 145.14 1.78 M-0.34 0.86 C42.72 2.28, 85.69 2.54, 143.71 1.47 M147.21 2.84 C144.02 25.53, 143.49 54.15, 146.42 88.14 M145.66 1.97 C148.47 31.11, 147.18 62, 143.52 91.67 M147.18 92.69 C106.11 93.44, 62.34 94.28, -2.9 92.3 M146.08 88.59 C87.54 91.43, 32.15 91.4, 0.33 89.63 M-1.36 92.31 C-1.52 69.53, -3.15 39.23, -3.8 -2.08 M-1.7 88.63 C-0.6 71.73, -0.52 54.05, -0.8 -0.51" stroke="#000000" stroke-width="1" fill="none"></path></g><g stroke-opacity="0.9" fill-opacity="0.9" stroke-linecap="round" transform="translate(254.2414819515156 11.238233115090054) rotate(0 72.74619551154149 45.19550870078746)"><path d="M1.92 -1.73 C45.65 -2.36, 81.85 -2.8, 143.41 -3.87 M-1.76 -1.56 C35.62 1, 72.22 1.68, 144.99 -1.59 M147.22 -3.27 C144.64 26.91, 146.48 51.65, 145.67 92.08 M144.55 -1.44 C146.43 33.64, 146.64 68.64, 144.66 88.5 M141.99 88.95 C97.41 91.37, 53.4 95.2, 0.36 90.28 M146.1 89.53 C101.56 88.19, 60.43 87.36, -0.86 89.4 M2.3 87.27 C2.36 64.77, -1.35 44.15, 1.93 -3.3 M0.56 91.23 C-3 65.68, -3.19 40.28, -1.22 1.97" stroke="#000000" stroke-width="1" fill="none"></path></g><g stroke-linecap="round"><g stroke-opacity="0.9" fill-opacity="0.9" transform="translate(164.16002282871335 215.5466971049512) rotate(0 39.12184208150421 1.6197171876819993)"><path d="M0.85 -1.21 C13.1 -1.1, 62.26 -0.96, 74.96 -1.14 M-2.14 4.31 C10.89 5.01, 67.45 2.94, 80.38 2.21" stroke="#000000" stroke-width="1" fill="none"></path></g><g stroke-opacity="0.9" fill-opacity="0.9" transform="translate(164.16002282871335 215.5466971049512) rotate(0 39.12184208150421 1.6197171876819993)"><path d="M50.93 11.09 C61.8 9.92, 69.89 3.74, 78.39 -0.09 M51.1 13.99 C56.43 9.48, 62.74 9.64, 78.73 1.68" stroke="#000000" stroke-width="1" fill="none"></path></g><g stroke-opacity="0.9" fill-opacity="0.9" transform="translate(164.16002282871335 215.5466971049512) rotate(0 39.12184208150421 1.6197171876819993)"><path d="M50.05 -9.41 C60.97 -3.39, 69.36 -2.37, 78.39 -0.09 M50.21 -6.51 C55.79 -6.85, 62.29 -2.5, 78.73 1.68" stroke="#000000" stroke-width="1" fill="none"></path></g></g><g stroke-linecap="round"><g stroke-opacity="0.9" fill-opacity="0.9" transform="translate(200.06878316632532 213.07023087477108) rotate(0 0.8104256588047178 -69.25399407429725)"><path d="M2.01 -1.6 C2 -24.65, 1.5 -114.59, 0.9 -137.51 M-0.34 3.71 C-0.61 -20.32, 0.37 -118.84, -0.18 -142.22" stroke="#000000" stroke-width="1" fill="none"></path></g></g><g stroke-linecap="round"><g stroke-opacity="0.9" fill-opacity="0.9" transform="translate(201.92613283896043 65.720490179053) rotate(0 22.491431692555295 -1.2105107214562736)"><path d="M0.73 -0.17 C8.34 -0.22, 39.95 -2.18, 47.3 -2.91 M-2.32 -2.73 C4.96 -2.1, 38.67 0.46, 46.21 0.49" stroke="#000000" stroke-width="1" fill="none"></path></g><g stroke-opacity="0.9" fill-opacity="0.9" transform="translate(201.92613283896043 65.720490179053) rotate(0 22.491431692555295 -1.2105107214562736)"><path d="M24.36 10.22 C31.86 4.24, 37.28 1.96, 48.9 -0.85 M22.79 5.38 C32.58 6.55, 40.57 4.16, 45.08 2.17" stroke="#000000" stroke-width="1" fill="none"></path></g><g stroke-opacity="0.9" fill-opacity="0.9" transform="translate(201.92613283896043 65.720490179053) rotate(0 22.491431692555295 -1.2105107214562736)"><path d="M25.09 -5.24 C32.04 -5.67, 37.2 -2.41, 48.9 -0.85 M23.52 -10.08 C33.26 -3.59, 40.99 -0.68, 45.08 2.17" stroke="#000000" stroke-width="1" fill="none"></path></g></g><g stroke-linecap="round"><g stroke-opacity="0.9" fill-opacity="0.9" transform="translate(199.44966660878032 221.1187461228564) rotate(0 -0.7074934307609055 65.45192055445176)"><path d="M1.77 -0.56 C1.07 21.39, -2.79 109.26, -3.51 131.92 M-0.71 -3.33 C-0.56 18.86, 2.66 111.93, 2 134.23" stroke="#000000" stroke-width="1" fill="none"></path></g></g><g stroke-linecap="round"><g stroke-opacity="0.9" fill-opacity="0.9" transform="translate(195.7349672635101 356.08615566767384) rotate(0 23.79826667483917 1.2480197552051209)"><path d="M-2.14 -1.76 C6.42 -1.3, 41.1 0.2, 49.74 0.61 M1.89 3.45 C10.24 4.59, 39.93 4.16, 47.61 4.24" stroke="#000000" stroke-width="1" fill="none"></path></g><g stroke-opacity="0.9" fill-opacity="0.9" transform="translate(195.7349672635101 356.08615566767384) rotate(0 23.79826667483917 1.2480197552051209)"><path d="M21.83 13.03 C30.11 11.27, 35.94 9.95, 47.38 7.22 M22.68 10.77 C29.5 11.43, 36.15 8.4, 46.97 5.24" stroke="#000000" stroke-width="1" fill="none"></path></g><g stroke-opacity="0.9" fill-opacity="0.9" transform="translate(195.7349672635101 356.08615566767384) rotate(0 23.79826667483917 1.2480197552051209)"><path d="M21.81 -3.91 C29.84 -1.56, 35.68 1.23, 47.38 7.22 M22.67 -6.17 C29.78 -1.27, 36.43 -0.05, 46.97 5.24" stroke="#000000" stroke-width="1" fill="none"></path></g></g><g stroke-opacity="0.9" fill-opacity="0.9" transform="translate(40.74619551154143 204.2849302200413) rotate(0 42 12.5)"><text x="42" y="18" font-family="Virgil, Segoe UI Emoji" font-size="20px" fill="#000000" text-anchor="middle" style="white-space: pre;" direction="ltr">Block #1</text></g><g stroke-opacity="0.9" fill-opacity="0.9" transform="translate(280.4876774630571 43.93374181587751) rotate(0 46.5 12.5)"><text x="46.5" y="18" font-family="Virgil, Segoe UI Emoji" font-size="20px" fill="#c92a2a" text-anchor="middle" style="white-space: pre;" direction="ltr">Block #2</text></g><g stroke-opacity="0.9" fill-opacity="0.9" transform="translate(280.4876774630573 199.95111431722597) rotate(0 46.5 12.5)"><text x="46.5" y="18" font-family="Virgil, Segoe UI Emoji" font-size="20px" fill="#364fc7" text-anchor="middle" style="white-space: pre;" direction="ltr">Block #2</text></g><g stroke-opacity="0.9" fill-opacity="0.9" transform="translate(281.1067940206022 340.4905728799485) rotate(0 46.5 12.5)"><text x="46.5" y="18" font-family="Virgil, Segoe UI Emoji" font-size="20px" fill="#2b8a3e" text-anchor="middle" style="white-space: pre;" direction="ltr">Block #2</text></g><g stroke-opacity="0.9" fill-opacity="0.9" stroke-linecap="round" transform="translate(466.59846118946206 10) rotate(0 72.74619551154149 45.19550870078746)"><path d="M-2.36 0.57 C34.38 3.21, 68.51 3.6, 142.13 1.84 M-0.89 1.18 C50.21 -1.39, 102.67 -0.87, 145.22 -1.64 M148.02 0.12 C144.05 21.5, 144.98 49.75, 142.27 92.56 M144.45 1.79 C145.35 18.88, 144.45 37.73, 143.93 89.11 M148.92 86.4 C114.61 89.82, 78.94 89.15, 3.25 88.3 M147.42 91.23 C110.73 91.19, 76.41 91.48, -0.02 90.07 M-3.99 90.4 C3.19 54.51, -3.65 19.59, 2.6 -2.26 M0.9 92.18 C-2.16 66.65, -3.67 38.07, 0.45 1.61" stroke="#000000" stroke-width="1" fill="none"></path></g><g stroke-opacity="0.9" fill-opacity="0.9" transform="translate(493.34465670100366 42.69550870078746) rotate(0 46 12.5)"><text x="46" y="18" font-family="Virgil, Segoe UI Emoji" font-size="20px" fill="#000000" text-anchor="middle" style="white-space: pre;" direction="ltr">Block #3</text></g><g stroke-opacity="0.9" fill-opacity="0.9" stroke-linecap="round" transform="translate(691.9568881358546 10.000000000000057) rotate(0 72.74619551154149 45.19550870078746)"><path d="M2.2 1.55 C44.95 -0.7, 82.68 0.15, 144.76 -1.64 M0.89 0.3 C51.79 -0.94, 100.53 -3.28, 147.31 -1.32 M149.44 2.88 C146 20.84, 144.21 47.38, 147.56 91.34 M144.43 -1.54 C144.25 34.99, 143.09 72.72, 144.22 89.79 M149.19 93.66 C97.47 88.06, 43.5 86.9, 2.23 89.3 M146.42 90.73 C95.71 91.04, 43.84 90.84, -0.84 89.37 M-2.49 88.77 C-2.05 71.04, -4.22 53.96, -2.85 -1.71 M-1.09 90.46 C-1.11 68.45, 0.39 47.09, 1.11 1.75" stroke="#000000" stroke-width="1" fill="none"></path></g><g stroke-opacity="0.9" fill-opacity="0.9" transform="translate(719.2030836473962 42.695508700787514) rotate(0 45.5 12.5)"><text x="45.5" y="18" font-family="Virgil, Segoe UI Emoji" font-size="20px" fill="#000000" text-anchor="middle" style="white-space: pre;" direction="ltr">Block #4</text></g><g stroke-linecap="round"><g stroke-opacity="0.9" fill-opacity="0.9" transform="translate(401.28166436846135 61.386674276237784) rotate(0 29.548859290654605 -1.4212640175451554)"><path d="M-0.95 -2.32 C8.74 -2.57, 49.3 -1.54, 60.05 -1.8 M3.73 2.59 C12.76 1.63, 47.27 -4.91, 57.14 -5.43" stroke="#000000" stroke-width="1" fill="none"></path></g><g stroke-opacity="0.9" fill-opacity="0.9" transform="translate(401.28166436846135 61.386674276237784) rotate(0 29.548859290654605 -1.4212640175451554)"><path d="M27.12 6.49 C43.93 6.59, 50.78 1.84, 54.64 -3.65 M29.34 6.66 C37.74 3.69, 47.05 1.41, 58.93 -4.42" stroke="#000000" stroke-width="1" fill="none"></path></g><g stroke-opacity="0.9" fill-opacity="0.9" transform="translate(401.28166436846135 61.386674276237784) rotate(0 29.548859290654605 -1.4212640175451554)"><path d="M24.57 -13.88 C42.27 -6.26, 50.06 -3.51, 54.64 -3.65 M26.78 -13.71 C35.81 -10.05, 45.95 -5.74, 58.93 -4.42" stroke="#000000" stroke-width="1" fill="none"></path></g></g><g stroke-linecap="round"><g stroke-opacity="0.9" fill-opacity="0.9" transform="translate(615.495993279043 57.671974930967565) rotate(0 35.67047814982368 -0.9327807915406083)"><path d="M-0.18 1.89 C12.76 0.92, 62.35 -2.86, 75.06 -3.75 M-3.72 0.44 C9.09 -0.23, 59.8 -0.04, 72.91 -0.14" stroke="#000000" stroke-width="1" fill="none"></path></g><g stroke-opacity="0.9" fill-opacity="0.9" transform="translate(615.495993279043 57.671974930967565) rotate(0 35.67047814982368 -0.9327807915406083)"><path d="M47.43 10.4 C50.39 9.76, 56.68 4.55, 70.36 -0.64 M45.8 11 C50.06 5.79, 58.46 7.45, 71.99 1.7" stroke="#000000" stroke-width="1" fill="none"></path></g><g stroke-opacity="0.9" fill-opacity="0.9" transform="translate(615.495993279043 57.671974930967565) rotate(0 35.67047814982368 -0.9327807915406083)"><path d="M47.39 -10.12 C50.65 -6.5, 56.95 -7.45, 70.36 -0.64 M45.75 -9.52 C50.26 -10.19, 58.68 -3.98, 71.99 1.7" stroke="#000000" stroke-width="1" fill="none"></path></g></g></svg>