<svg version="1.1" xmlns="http://www.w3.org/2000/svg" viewBox="0 0 572.4197524335877 290.8554167961574" width="572.4197524335877" height="290.8554167961574">
  <!-- svg-source:excalidraw -->
  <rect x="0" y="0" width="100%" height="100%" fill="white" />
  <defs>
    <style>
      @font-face {
        font-family: "Virgil";
        src: url("https://excalidraw.com/Virgil.woff2");
      }
      @font-face {
        font-family: "Cascadia";
        src: url("https://excalidraw.com/Cascadia.woff2");
      }
    </style>
  </defs>
  <g stroke-opacity="0.9" fill-opacity="0.9" stroke-linecap="round" transform="translate(165.32023510251838 10.001310755312431) rotate(0 198.16719651010976 37.10852907621745)"><path d="M1.14 -1.43 C132.28 2.87, 265.87 2.5, 397.77 -1.92 M0.77 0.22 C115.43 -3.13, 230.87 -2.56, 395.59 -0.69 M396.46 -2.8 C398.85 14.19, 399.34 30.83, 395.75 73.72 M395.25 1.46 C395.73 25.39, 399.17 54.87, 398.06 75.98 M394.68 72.19 C303.62 68.56, 212.16 68.56, 1.88 74.63 M396.19 73.89 C283.4 76.07, 168.06 76.46, 0.02 73.22 M1.63 72.96 C-0.73 47.27, -2.07 24.32, -3.59 0.27 M-1.78 75.79 C-0.05 53.6, -1.79 30.76, 1.07 -1.02" stroke="#000000" stroke-width="1" fill="none"></path></g><g stroke-opacity="0.9" fill-opacity="0.9" stroke-linecap="round" transform="translate(166.08535941336822 146.5760002420098) rotate(0 198.16719651010976 37.10852907621745)"><path d="M1.1 -0.56 C90.86 1.66, 183.76 4.09, 397.34 -1.24 M0.83 0.88 C148.79 3.91, 294.81 1.87, 395.36 -0.83 M395.69 -3.11 C399.1 16.42, 395.32 35.32, 398.62 73.7 M396.06 -0.61 C397.83 18.43, 398.69 38.67, 396.65 75.03 M394.44 74.99 C287.81 72.86, 183.31 74.79, 0.8 72.18 M396.08 74.47 C246.81 76.66, 95.24 77.61, 0.31 73.38 M1.87 77.81 C1.89 50.52, 2.77 26.58, 3.97 -1.02 M-0.6 75.13 C0.64 57.33, -0.38 42.27, -0.2 -0.92" stroke="#000000" stroke-width="1" fill="none"></path></g><g stroke-linecap="round"><g stroke-opacity="0.9" fill-opacity="0.9" transform="translate(373.4340476536761 10.001310755312431) rotate(0 -0.02649188024685145 38.69380706572355)"><path d="M2.75 1.6 C2.61 14.02, -0.36 62.26, -0.36 74.19 M0.8 0 C0.21 12.86, -3.06 64.84, -2.79 77.39" stroke="#000000" stroke-width="1" fill="none"></path></g></g><g stroke-opacity="0.9" fill-opacity="0.9" transform="translate(238.00704463325383 38.96215336525512) rotate(0 25 10)"><text x="0" y="14" font-family="Virgil, Segoe UI Emoji" font-size="16px" fill="#000000" text-anchor="start" style="white-space: pre;" direction="ltr">int128</text></g><g stroke-opacity="0.9" fill-opacity="0.9" transform="translate(456.0674732254595 38.96215336525512) rotate(0 25 10)"><text x="0" y="14" font-family="Virgil, Segoe UI Emoji" font-size="16px" fill="#000000" text-anchor="start" style="white-space: pre;" direction="ltr">int128</text></g><g stroke-opacity="0.9" fill-opacity="0.9" transform="translate(337.252555923478 173.68452931822725) rotate(0 27 10)"><text x="27" y="14" font-family="Virgil, Segoe UI Emoji" font-size="16px" fill="#000000" text-anchor="middle" style="white-space: pre;" direction="ltr">int256</text></g><g stroke-opacity="0.9" fill-opacity="0.9" transform="translate(10 40.4924019869548) rotate(0 38.5 10)"><text x="0" y="14" font-family="Virgil, Segoe UI Emoji" font-size="16px" fill="#000000" text-anchor="start" style="white-space: pre;" direction="ltr">index = 0</text></g><g stroke-linecap="round"><g stroke-opacity="0.9" fill-opacity="0.9" transform="translate(100.28466868028158 49.02265060865449) rotate(0 23.54179666973556 1.0239690647829889)"><path d="M0.73 2.24 C9.26 3.18, 41.81 3.26, 49.4 2.85 M-2.31 0.99 C6.25 1.42, 40.88 -1.26, 48.64 -1.02" stroke="#000000" stroke-width="1" fill="none"></path></g><g stroke-opacity="0.9" fill-opacity="0.9" transform="translate(100.28466868028158 49.02265060865449) rotate(0 23.54179666973556 1.0239690647829889)"><path d="M30.18 11.55 C35.27 4.88, 36.06 1.49, 47.53 -1.62 M25.2 5.98 C32.86 7.15, 34.65 3.93, 50.5 -2.13" stroke="#000000" stroke-width="1" fill="none"></path></g><g stroke-opacity="0.9" fill-opacity="0.9" transform="translate(100.28466868028158 49.02265060865449) rotate(0 23.54179666973556 1.0239690647829889)"><path d="M29.66 -4.41 C34.56 -7.3, 35.47 -6.9, 47.53 -1.62 M24.68 -9.97 C32.44 -5.59, 34.33 -5.6, 50.5 -2.13" stroke="#000000" stroke-width="1" fill="none"></path></g></g><g stroke-opacity="0.9" fill-opacity="0.9" transform="translate(16.886118797648578 178.97990225077677) rotate(0 35 10)"><text x="0" y="14" font-family="Virgil, Segoe UI Emoji" font-size="16px" fill="#000000" text-anchor="start" style="white-space: pre;" direction="ltr">index = 1</text></g><g stroke-linecap="round"><g stroke-opacity="0.9" fill-opacity="0.9" transform="translate(105.64053885623048 185.97990225077677) rotate(0 24.97783214307981 1.0150093805764868)"><path d="M-2.44 1.11 C5.39 1.64, 38.9 -0.12, 47.31 0.53 M1.42 -0.76 C10.08 0.27, 43.64 2.58, 52.4 2.79" stroke="#000000" stroke-width="1" fill="none"></path></g><g stroke-opacity="0.9" fill-opacity="0.9" transform="translate(105.64053885623048 185.97990225077677) rotate(0 24.97783214307981 1.0150093805764868)"><path d="M30.17 6.66 C32.53 5.84, 46.32 6.78, 49.67 2.17 M27.83 10.35 C34.4 8.1, 45.84 6.54, 54.3 1.39" stroke="#000000" stroke-width="1" fill="none"></path></g><g stroke-opacity="0.9" fill-opacity="0.9" transform="translate(105.64053885623048 185.97990225077677) rotate(0 24.97783214307981 1.0150093805764868)"><path d="M31.03 -10.36 C32.8 -5.89, 46.32 0.34, 49.67 2.17 M28.69 -6.67 C35.18 -3.38, 46.33 0.61, 54.3 1.39" stroke="#000000" stroke-width="1" fill="none"></path></g></g><g stroke-opacity="0.9" fill-opacity="0.9" transform="translate(260.9607739587491 280.09019248530757) rotate(0 0.00004999999998744897 0.00004999999998744897)" stroke="none"><path fill="#000000" d="M 1.57,-1.57 Q 1.57,-1.57 1.77,-1.27 1.98,-0.98 2.09,-0.64 2.20,-0.29 2.19,0.05 2.18,0.41 2.05,0.75 1.93,1.09 1.70,1.37 1.48,1.65 1.18,1.84 0.87,2.04 0.52,2.12 0.18,2.21 -0.17,2.18 -0.53,2.15 -0.86,2.01 -1.19,1.87 -1.46,1.63 -1.73,1.39 -1.90,1.07 -2.08,0.76 -2.15,0.41 -2.21,0.05 -2.17,-0.29 -2.12,-0.65 -1.96,-0.97 -1.80,-1.29 -1.54,-1.54 -1.29,-1.80 -0.97,-1.96 -0.65,-2.12 -0.29,-2.17 0.06,-2.21 0.41,-2.15 0.76,-2.08 1.07,-1.90 1.39,-1.73 1.63,-1.46 1.87,-1.19 2.01,-0.86 2.15,-0.53 2.18,-0.17 2.21,0.18 2.12,0.52 2.03,0.87 1.84,1.18 1.65,1.48 1.37,1.70 1.09,1.93 0.75,2.05 0.41,2.18 0.05,2.19 -0.30,2.20 -0.64,2.09 -0.98,1.98 -1.27,1.77 -1.57,1.56 -1.57,1.57 -1.57,1.57 -1.73,1.35 -1.90,1.14 -2.01,0.90 -2.12,0.66 -2.16,0.39 -2.21,0.13 -2.20,-0.13 -2.18,-0.40 -2.10,-0.65 -2.02,-0.91 -1.88,-1.14 -1.74,-1.36 -1.55,-1.55 -1.36,-1.74 -1.14,-1.88 -0.91,-2.02 -0.65,-2.10 -0.40,-2.18 -0.13,-2.20 0.13,-2.21 0.39,-2.16 0.66,-2.12 0.90,-2.01 1.14,-1.90 1.35,-1.73 1.57,-1.57 1.57,-1.57 L 1.57,-1.57 Z"></path></g><g stroke-opacity="0.9" fill-opacity="0.9" transform="translate(305.3379839880399 280.8553167961574) rotate(0 0.00004999999998744897 0.00004999999998744897)" stroke="none"><path fill="#000000" d="M 1.57,-1.57 Q 1.57,-1.57 1.77,-1.27 1.98,-0.98 2.09,-0.64 2.20,-0.29 2.19,0.05 2.18,0.41 2.05,0.75 1.93,1.09 1.70,1.37 1.48,1.65 1.18,1.84 0.87,2.04 0.52,2.12 0.18,2.21 -0.17,2.18 -0.53,2.15 -0.86,2.01 -1.19,1.87 -1.46,1.63 -1.73,1.39 -1.90,1.07 -2.08,0.76 -2.15,0.41 -2.21,0.05 -2.17,-0.29 -2.12,-0.65 -1.96,-0.97 -1.80,-1.29 -1.54,-1.54 -1.29,-1.80 -0.97,-1.96 -0.65,-2.12 -0.29,-2.17 0.06,-2.21 0.41,-2.15 0.76,-2.08 1.07,-1.90 1.39,-1.73 1.63,-1.46 1.87,-1.19 2.01,-0.86 2.15,-0.53 2.18,-0.17 2.21,0.18 2.12,0.52 2.03,0.87 1.84,1.18 1.65,1.48 1.37,1.70 1.09,1.93 0.75,2.05 0.41,2.18 0.05,2.19 -0.30,2.20 -0.64,2.09 -0.98,1.98 -1.27,1.77 -1.57,1.56 -1.57,1.57 -1.57,1.57 -1.73,1.35 -1.90,1.14 -2.01,0.90 -2.12,0.66 -2.16,0.39 -2.21,0.13 -2.20,-0.13 -2.18,-0.40 -2.10,-0.65 -2.02,-0.91 -1.88,-1.14 -1.74,-1.36 -1.55,-1.55 -1.36,-1.74 -1.14,-1.88 -0.91,-2.02 -0.65,-2.10 -0.40,-2.18 -0.13,-2.20 0.13,-2.21 0.39,-2.16 0.66,-2.12 0.90,-2.01 1.14,-1.90 1.35,-1.73 1.57,-1.57 1.57,-1.57 L 1.57,-1.57 Z"></path></g><g stroke-opacity="0.9" fill-opacity="0.9" transform="translate(346.6546967739316 280.8553167961574) rotate(0 0.00004999999998744897 0.00004999999998744897)" stroke="none"><path fill="#000000" d="M 1.57,-1.57 Q 1.57,-1.57 1.77,-1.27 1.98,-0.98 2.09,-0.64 2.20,-0.29 2.19,0.05 2.18,0.41 2.05,0.75 1.93,1.09 1.70,1.37 1.48,1.65 1.18,1.84 0.87,2.04 0.52,2.12 0.18,2.21 -0.17,2.18 -0.53,2.15 -0.86,2.01 -1.19,1.87 -1.46,1.63 -1.73,1.39 -1.90,1.07 -2.08,0.76 -2.15,0.41 -2.21,0.05 -2.17,-0.29 -2.12,-0.65 -1.96,-0.97 -1.80,-1.29 -1.54,-1.54 -1.29,-1.80 -0.97,-1.96 -0.65,-2.12 -0.29,-2.17 0.06,-2.21 0.41,-2.15 0.76,-2.08 1.07,-1.90 1.39,-1.73 1.63,-1.46 1.87,-1.19 2.01,-0.86 2.15,-0.53 2.18,-0.17 2.21,0.18 2.12,0.52 2.03,0.87 1.84,1.18 1.65,1.48 1.37,1.70 1.09,1.93 0.75,2.05 0.41,2.18 0.05,2.19 -0.30,2.20 -0.64,2.09 -0.98,1.98 -1.27,1.77 -1.57,1.56 -1.57,1.57 -1.57,1.57 -1.73,1.35 -1.90,1.14 -2.01,0.90 -2.12,0.66 -2.16,0.39 -2.21,0.13 -2.20,-0.13 -2.18,-0.40 -2.10,-0.65 -2.02,-0.91 -1.88,-1.14 -1.74,-1.36 -1.55,-1.55 -1.36,-1.74 -1.14,-1.88 -0.91,-2.02 -0.65,-2.10 -0.40,-2.18 -0.13,-2.20 0.13,-2.21 0.39,-2.16 0.66,-2.12 0.90,-2.01 1.14,-1.90 1.35,-1.73 1.57,-1.57 1.57,-1.57 L 1.57,-1.57 Z"></path></g></svg>