<svg version="1.1" xmlns="http://www.w3.org/2000/svg" viewBox="0 0 851.6901258937818 100.72061479465867" width="851.6901258937818" height="100.72061479465867">
  <!-- svg-source:excalidraw -->
  <rect x="0" y="0" width="100%" height="100%" fill="white" />
  <defs>
    <style>
      @font-face {
        font-family: "Virgil";
        src: url("https://excalidraw.com/Virgil.woff2");
      }
      @font-face {
        font-family: "Cascadia";
        src: url("https://excalidraw.com/Cascadia.woff2");
      }
    </style>
  </defs>
  <g stroke-opacity="0.9" fill-opacity="0.9" stroke-linecap="round" transform="translate(10 19.564053885623025) rotate(0 45.90745865099069 35.578280454517824)"><path d="M0.61 3.14 C22.76 -4.34, 45.53 0.07, 88.18 1.06 M-1.5 -1.96 C26.71 -0.97, 51 -1.83, 91.16 1.16 M93.51 2.26 C87.45 19.2, 89.54 37.89, 94.73 67.53 M91.7 0.14 C92.48 18.17, 90.18 33.18, 90.68 72.17 M94.48 71.46 C64.69 71.85, 39.04 68.45, 3.29 73.93 M92.03 72.56 C56.16 73.13, 21.28 73.65, 0.21 69.91 M3.41 68.14 C0.48 48.57, 0.59 24.55, 0.6 3.68 M-0.17 71.84 C1.35 47.82, 1.38 28.7, 1.77 0.19" stroke="#000000" stroke-width="1" fill="none"></path></g><g stroke-opacity="0.9" fill-opacity="0.9" transform="translate(47.90745865099075 42.64233434014085) rotate(0 8 12.5)"><text x="8" y="18" font-family="Virgil, Segoe UI Emoji" font-size="20px" fill="#000000" text-anchor="middle" style="white-space: pre;" direction="ltr">0</text></g><g stroke-opacity="0.9" fill-opacity="0.9" stroke-linecap="round" transform="translate(103.34516592368084 19.18149173019799) rotate(0 45.90745865099069 35.578280454517824)"><path d="M-0.03 -2.68 C34.96 3.26, 72.58 0.05, 95.51 -0.82 M-1.44 0.24 C22.93 0.23, 40.6 0.98, 91.14 1.63 M94.42 0.47 C90.38 23.48, 95.67 56.26, 89.84 74.27 M92.93 -0.34 C91.09 18.31, 90.92 34.35, 92.14 70.58 M89.01 70.75 C55.75 67.65, 20.03 73.03, 1.49 74.05 M93.69 69.4 C73.75 70.59, 56.72 71.35, -0.3 69.95 M0.71 74.17 C-2.81 53, -1.74 30.56, 3.91 0.07 M0.31 69.79 C0.06 48.31, -0.44 27.72, 0.34 1.41" stroke="#000000" stroke-width="1" fill="none"></path></g><g stroke-opacity="0.9" fill-opacity="0.9" transform="translate(141.25262457467147 42.25977218471587) rotate(0 8 12.5)"><text x="8" y="18" font-family="Virgil, Segoe UI Emoji" font-size="20px" fill="#000000" text-anchor="middle" style="white-space: pre;" direction="ltr">0</text></g><g stroke-opacity="0.9" fill-opacity="0.9" stroke-linecap="round" transform="translate(195.16008322566256 16.31227556451131) rotate(0 45.90745865099069 35.578280454517824)"><path d="M3.06 2.04 C36.7 2.62, 71.24 -1.03, 93.11 0.63 M1.02 1.97 C19.86 1.95, 37.13 -0.34, 93.72 1.41 M91.31 2.63 C90.82 17.6, 88.95 40.26, 88.71 68.38 M90.9 1.26 C90.88 18.7, 92.45 36.91, 90.91 70.27 M95.4 68.29 C58.45 71.29, 20.62 70.51, 3.87 73.2 M90.94 69.22 C56.47 69.12, 21.29 69.7, 1.39 72.46 M0.91 69.19 C-1.76 47.94, 0 14.62, -2.61 -1.08 M-0.45 71.6 C-1.61 52.91, 0.18 35.35, 1.08 0.22" stroke="#000000" stroke-width="1" fill="none"></path></g><g stroke-opacity="0.9" fill-opacity="0.9" transform="translate(237.5675418766533 39.390556019029134) rotate(0 3.5 12.5)"><text x="3.5" y="18" font-family="Virgil, Segoe UI Emoji" font-size="20px" fill="#000000" text-anchor="middle" style="white-space: pre;" direction="ltr">1</text></g><g stroke-opacity="0.9" fill-opacity="0.9" stroke-linecap="round" transform="translate(288.5052491493434 15.929713409086276) rotate(0 45.90745865099069 35.578280454517824)"><path d="M2.69 1.56 C25.44 -3.03, 45.72 -0.3, 88.01 -0.97 M1.05 1.98 C27.19 -2.12, 57.3 -0.4, 91.19 -0.83 M91.41 -1.51 C89.36 18.02, 88.53 29.21, 90.01 69.56 M91.45 0.57 C92.36 20, 90.26 37.82, 93.31 72.15 M92.87 70 C55.45 67.9, 27.68 71.89, 3.73 70.22 M92.56 70.62 C73.42 69.42, 53.08 70.68, 1.63 71.01 M-1.86 75.08 C-0.42 46.82, -2.94 25.93, -1.42 2.52 M-0.71 71.74 C1.4 47.35, 1.4 20.05, 0.96 0.42" stroke="#000000" stroke-width="1" fill="none"></path></g><g stroke-opacity="0.9" fill-opacity="0.9" transform="translate(330.91270780033415 39.0079938636041) rotate(0 3.5 12.5)"><text x="3.5" y="18" font-family="Virgil, Segoe UI Emoji" font-size="20px" fill="#000000" text-anchor="middle" style="white-space: pre;" direction="ltr">1</text></g><g stroke-opacity="0.9" fill-opacity="0.9" stroke-linecap="round" transform="translate(380.32016645132467 14.112543170817844) rotate(0 45.90745865099069 35.578280454517824)"><path d="M1.49 2.11 C18.21 -2.98, 40.11 2.34, 89.71 0.72 M-1.11 -0.39 C28.47 -1.72, 55.94 -0.11, 89.93 0.04 M94.06 -2.28 C88.11 20.83, 88.34 48.51, 93.99 74.78 M90.31 1.3 C92.38 13.96, 92.11 28.66, 90.36 70.3 M93.24 69.45 C55.98 67.22, 26.47 73.97, -1.42 69.31 M93.69 71.59 C59.42 71.08, 25.18 73.47, -1.88 71.95 M-3.93 73.82 C1.92 44.39, -2.86 13.81, -2.12 -3.66 M0.2 72.1 C1.18 53.19, -0.39 35.24, 0.81 1.15" stroke="#000000" stroke-width="1" fill="none"></path></g><g stroke-opacity="0.9" fill-opacity="0.9" transform="translate(422.72762510231564 37.19082362533567) rotate(0 3.5 12.5)"><text x="3.5" y="18" font-family="Virgil, Segoe UI Emoji" font-size="20px" fill="#000000" text-anchor="middle" style="white-space: pre;" direction="ltr">1</text></g><g stroke-opacity="0.9" fill-opacity="0.9" stroke-linecap="round" transform="translate(473.6653323750056 13.72998101539281) rotate(0 45.90745865099069 35.578280454517824)"><path d="M-1.04 -2.09 C33.6 2.26, 61.88 -0.25, 91.93 -2.36 M0.65 -0.58 C33.52 1.38, 64.56 0.4, 92.17 0.33 M87.87 -1.78 C88.9 21.94, 94.78 40.92, 87.94 68.32 M93.39 -0.5 C92.05 24.44, 89.28 48.54, 93.26 69.92 M90.17 67.73 C69.84 73.69, 40.38 68.53, 2.68 73.71 M93.13 70.29 C61.09 73.08, 26.94 72.35, 1.87 70.94 M1.76 72.4 C-1.62 51.72, -0.73 31.3, -1.46 -3.84 M-0.19 71.93 C-1.91 56.54, 0.67 39.93, 0.81 -1.33" stroke="#000000" stroke-width="1" fill="none"></path></g><g stroke-opacity="0.9" fill-opacity="0.9" transform="translate(516.0727910259964 36.80826146991063) rotate(0 3.5 12.5)"><text x="3.5" y="18" font-family="Virgil, Segoe UI Emoji" font-size="20px" fill="#000000" text-anchor="middle" style="white-space: pre;" direction="ltr">1</text></g><g stroke-opacity="0.9" fill-opacity="0.9" stroke-linecap="round" transform="translate(565.4802496769875 11.625889160555971) rotate(0 45.90745865099075 35.578280454517824)"><path d="M1.6 3.23 C30.28 1.68, 64.88 -1.39, 94.29 -2.21 M0.3 1.03 C23.89 0.58, 51.9 0.87, 91.06 1.12 M88.1 3.29 C92.58 20.91, 86.54 31.73, 93.7 68.14 M93.12 -0.25 C91.47 25.12, 94.38 50.71, 91.26 71.87 M94.85 74.48 C66.76 67.73, 47.24 72.13, 1.72 74.91 M92.58 72.68 C60.38 71.15, 34.58 70.14, -0.91 69.19 M-3.02 69.82 C-2.75 41.4, -2.09 15.13, -2.9 0.41 M-1.76 72.73 C0.95 47.59, 0.94 20.39, 1.38 -0.32" stroke="#000000" stroke-width="1" fill="none"></path></g><g stroke-opacity="0.9" fill-opacity="0.9" transform="translate(607.8877083279782 34.704169615073795) rotate(0 3.5 12.5)"><text x="3.5" y="18" font-family="Virgil, Segoe UI Emoji" font-size="20px" fill="#000000" text-anchor="middle" style="white-space: pre;" direction="ltr">1</text></g><g stroke-opacity="0.9" fill-opacity="0.9" stroke-linecap="round" transform="translate(658.0602912898181 10.478202694281094) rotate(0 45.907458650990634 35.578280454517824)"><path d="M-2.1 0.72 C22.86 -3.84, 47.96 -3.69, 91.04 1.3 M-1.89 0.04 C25.23 -0.61, 48.99 0.18, 90.67 -1.97 M93.99 3.63 C86.62 15.34, 92.38 33.33, 94.42 74.3 M90.36 -0.86 C94.19 18.34, 92.19 39.86, 90.96 70.34 M90.39 69.31 C74.83 75.23, 54.2 76.43, 0.87 73.78 M89.94 71.95 C70.14 72.34, 43.81 70.59, 1.33 72.04 M-2.12 67.49 C-0.39 43.76, -1.83 24.46, 1.9 -0.37 M0.81 72.31 C2.06 45.71, 2.63 22.61, -0.52 -0.79" stroke="#000000" stroke-width="1" fill="none"></path></g><g stroke-opacity="0.9" fill-opacity="0.9" transform="translate(700.4677499408093 33.55648314879892) rotate(0 3.5 12.5)"><text x="3.5" y="18" font-family="Virgil, Segoe UI Emoji" font-size="20px" fill="#000000" text-anchor="middle" style="white-space: pre;" direction="ltr">1</text></g><g stroke-opacity="0.9" fill-opacity="0.9" stroke-linecap="round" transform="translate(749.8752085918003 10) rotate(0 45.90745865099075 35.578280454517824)"><path d="M-3.25 -0.28 C32.11 -2.76, 63.26 -3.65, 91.14 0.9 M0.44 -0.04 C36.94 -2.28, 71.32 0.55, 92.51 -1.98 M94.02 3.32 C94.44 22.13, 96.26 40.51, 93.4 68.06 M93.6 1.24 C92.38 17.64, 90.47 33.08, 91.76 69.81 M87.91 74.61 C71.63 71.1, 52.14 70.55, 1.26 71.45 M93.16 72.63 C68.94 70.55, 47.41 70.34, -1.19 71.19 M-0.69 72.45 C-2.41 56.65, -3.45 37.77, -0.42 -2.07 M0.73 71.9 C0.75 43.52, 1.62 19.22, -1.43 1.07" stroke="#000000" stroke-width="1" fill="none"></path></g><g stroke-opacity="0.9" fill-opacity="0.9" transform="translate(792.2826672427908 33.078280454517824) rotate(0 3.5 12.5)"><text x="3.5" y="18" font-family="Virgil, Segoe UI Emoji" font-size="20px" fill="#000000" text-anchor="middle" style="white-space: pre;" direction="ltr">1</text></g></svg>