<svg version="1.1" xmlns="http://www.w3.org/2000/svg" viewBox="0 0 773.7044211138696 172.25973785911913" width="773.7044211138696" height="172.25973785911913">
  <!-- svg-source:excalidraw -->
  <rect x="0" y="0" width="100%" height="100%" fill="white" />

  <defs>
    <style>
      @font-face {
        font-family: "Virgil";
        src: url("https://excalidraw.com/Virgil.woff2");
      }
      @font-face {
        font-family: "Cascadia";
        src: url("https://excalidraw.com/Cascadia.woff2");
      }
    </style>
  </defs>
  <g stroke-opacity="0.9" fill-opacity="0.9" transform="translate(10 73.65656090903565) rotate(0 55.5 12.5)"><text x="0" y="18" font-family="Virgil, Segoe UI Emoji" font-size="20px" fill="#000000" text-anchor="start" style="white-space: pre;" direction="ltr">Byte array</text></g><g stroke-opacity="0.9" fill-opacity="0.9" stroke-linecap="round" transform="translate(267.84689275639766 10) rotate(0 114.38608447205183 76.12986892955956)"><path d="M-1.41 2.81 C63.42 1.29, 125.69 2.45, 232.15 2.32 M-0.72 -0.93 C85.19 2.82, 166.73 2.97, 229.57 -0.99 M231.55 -3.51 C234.9 29.56, 232.91 65.67, 227.89 153.91 M229.15 1.02 C232.52 57.86, 230.54 114.57, 230.42 151.71 M230.96 155.18 C164.1 150.72, 103.01 149.77, -2.8 151.72 M227.09 151.54 C162.42 157.2, 96.57 155.14, -1.64 153.43 M-2.25 153.96 C5.43 94.38, 0.76 37.39, 3.99 1.16 M-0.63 152.5 C3.28 105.4, 0.29 57.21, 1.57 0.5" stroke="#000000" stroke-width="1" fill="none"></path></g><g stroke-opacity="0.9" fill-opacity="0.9" transform="translate(361.7329772284495 73.62986892955956) rotate(0 20.5 12.5)"><text x="20.5" y="18" font-family="Virgil, Segoe UI Emoji" font-size="20px" fill="#000000" text-anchor="middle" style="white-space: pre;" direction="ltr">RLP</text></g><g stroke-linecap="round"><g stroke-opacity="0.9" fill-opacity="0.9" transform="translate(152.31312181807107 87.27755539583438) rotate(0 53.02898041220868 -1.3273546329378405)"><path d="M1.89 -1.09 C19.57 -0.61, 88.71 1, 106.59 1.52 M-0.53 -4.15 C16.62 -4.36, 85.56 -2.95, 103.64 -2.67" stroke="#000000" stroke-width="1" fill="none"></path></g><g stroke-opacity="0.9" fill-opacity="0.9" transform="translate(152.31312181807107 87.27755539583438) rotate(0 53.02898041220868 -1.3273546329378405)"><path d="M73.71 5.24 C86.56 5.4, 96.27 2.5, 106.81 -6.04 M77 8.27 C83.14 1.75, 94.56 0.1, 102.3 -0.72" stroke="#000000" stroke-width="1" fill="none"></path></g><g stroke-opacity="0.9" fill-opacity="0.9" transform="translate(152.31312181807107 87.27755539583438) rotate(0 53.02898041220868 -1.3273546329378405)"><path d="M74.08 -15.28 C86.6 -8.6, 96.2 -4.97, 106.81 -6.04 M77.37 -12.25 C83.49 -12.23, 94.79 -7.36, 102.3 -0.72" stroke="#000000" stroke-width="1" fill="none"></path></g></g><g stroke-opacity="0.9" fill-opacity="0.9" transform="translate(652.7044211138696 68.33093935478632) rotate(0 55.5 12.5)"><text x="0" y="18" font-family="Virgil, Segoe UI Emoji" font-size="20px" fill="#000000" text-anchor="start" style="white-space: pre;" direction="ltr">Byte array</text></g><g stroke-linecap="round"><g stroke-opacity="0.9" fill-opacity="0.9" transform="translate(509.62617498494865 84.21705815243502) rotate(0 60.0757403295969 0.938949612909795)"><path d="M-2.03 -1.61 C18.17 -2.17, 101.72 -1.43, 122.18 -1.28 M2.07 3.69 C21.71 3.31, 98.7 1.93, 119.39 1.65" stroke="#000000" stroke-width="1" fill="none"></path></g><g stroke-opacity="0.9" fill-opacity="0.9" transform="translate(509.62617498494865 84.21705815243502) rotate(0 60.0757403295969 0.938949612909795)"><path d="M89.08 10.92 C98.77 5.7, 109 2.61, 123.35 5.19 M89.59 12.1 C98.1 7.79, 103.16 5.53, 119.43 2.42" stroke="#000000" stroke-width="1" fill="none"></path></g><g stroke-opacity="0.9" fill-opacity="0.9" transform="translate(509.62617498494865 84.21705815243502) rotate(0 60.0757403295969 0.938949612909795)"><path d="M88.75 -9.6 C98.86 -7.94, 109.2 -4.15, 123.35 5.19 M89.26 -8.42 C98.17 -7.7, 103.31 -4.94, 119.43 2.42" stroke="#000000" stroke-width="1" fill="none"></path></g></g></svg>