<svg version="1.1" xmlns="http://www.w3.org/2000/svg" viewBox="0 0 1042.793302843865 904.5940279025481" width="1042.793302843865" height="904.5940279025481">
  <!-- svg-source:excalidraw -->
  <rect x="0" y="0" width="100%" height="100%" fill="white" />
  <defs>
    <style class="style-fonts">
      @font-face {
        font-family: "Virgil";
        src: url("https://excalidraw.com/Virgil.woff2");
      }
      @font-face {
        font-family: "Cascadia";
        src: url("https://excalidraw.com/Cascadia.woff2");
      }
    </style>
  </defs>
  <g stroke-opacity="0.9" fill-opacity="0.9" stroke-linecap="round" transform="translate(17.65124310849859 73.32382607033895) rotate(0 52.02845313778951 49.35051804981498)"><path d="M15.4 16.32 C20.28 10.47, 29.38 3.7, 37.63 1.32 C45.88 -1.07, 56.53 -0.41, 64.9 2.04 C73.27 4.5, 81.37 10.29, 87.84 16.05 C94.3 21.8, 101.51 28.99, 103.7 36.58 C105.9 44.17, 103.39 53.46, 101.01 61.59 C98.63 69.71, 95.15 79.54, 89.42 85.34 C83.69 91.14, 75.14 94.41, 66.66 96.37 C58.17 98.33, 46.94 99.02, 38.49 97.08 C30.05 95.14, 21.99 90.66, 16 84.74 C10.01 78.82, 4.71 69.38, 2.56 61.55 C0.41 53.71, -2.36 47.23, 3.1 37.74 C8.57 28.25, 26.05 10.62, 35.35 4.61 C44.66 -1.39, 58.71 1.42, 58.92 1.71 M39.63 -0.62 C47.29 -3.01, 57.79 -0.46, 66.51 2.7 C75.23 5.87, 85.96 12.32, 91.95 18.37 C97.93 24.42, 101.19 31.03, 102.43 39 C103.66 46.97, 101.75 58.77, 99.36 66.21 C96.97 73.66, 94.16 78.15, 88.08 83.66 C82 89.17, 71.55 97.52, 62.86 99.28 C54.18 101.03, 43.95 97.07, 35.97 94.2 C28 91.33, 20.83 87.38, 15.04 82.07 C9.24 76.75, 3.27 70.05, 1.21 62.3 C-0.86 54.56, 0.23 43.37, 2.64 35.57 C5.05 27.78, 9.45 21.23, 15.68 15.53 C21.91 9.84, 35.77 3.72, 40.04 1.42 C44.3 -0.88, 41.19 1.22, 41.25 1.75" stroke="#000000" stroke-width="1" fill="none"></path></g><g stroke-opacity="0.9" fill-opacity="0.9" transform="translate(54.37721002929118 116.93591178878017) rotate(0 0.00004999999998744897 0.00004999999998744897)" stroke="none"><path fill="#000000" d="M 1.57,-1.57 Q 1.57,-1.57 1.77,-1.27 1.98,-0.98 2.09,-0.64 2.20,-0.29 2.19,0.05 2.18,0.41 2.05,0.75 1.93,1.09 1.70,1.37 1.48,1.65 1.18,1.84 0.87,2.04 0.52,2.12 0.18,2.21 -0.17,2.18 -0.53,2.15 -0.86,2.01 -1.19,1.87 -1.46,1.63 -1.73,1.39 -1.90,1.07 -2.08,0.76 -2.15,0.41 -2.21,0.05 -2.17,-0.29 -2.12,-0.65 -1.96,-0.97 -1.80,-1.29 -1.54,-1.54 -1.29,-1.80 -0.97,-1.96 -0.65,-2.12 -0.29,-2.17 0.06,-2.21 0.41,-2.15 0.76,-2.08 1.07,-1.90 1.39,-1.73 1.63,-1.46 1.87,-1.19 2.01,-0.86 2.15,-0.53 2.18,-0.17 2.21,0.18 2.12,0.52 2.03,0.87 1.84,1.18 1.65,1.48 1.37,1.70 1.09,1.93 0.75,2.05 0.41,2.18 0.05,2.19 -0.30,2.20 -0.64,2.09 -0.98,1.98 -1.27,1.77 -1.57,1.56 -1.57,1.57 -1.57,1.57 -1.73,1.35 -1.90,1.14 -2.01,0.90 -2.12,0.66 -2.16,0.39 -2.21,0.13 -2.20,-0.13 -2.18,-0.40 -2.10,-0.65 -2.02,-0.91 -1.88,-1.14 -1.74,-1.36 -1.55,-1.55 -1.36,-1.74 -1.14,-1.88 -0.91,-2.02 -0.65,-2.10 -0.40,-2.18 -0.13,-2.20 0.13,-2.21 0.39,-2.16 0.66,-2.12 0.90,-2.01 1.14,-1.90 1.35,-1.73 1.57,-1.57 1.57,-1.57 L 1.57,-1.57 Z"></path></g><g stroke-opacity="0.9" fill-opacity="0.9" transform="translate(83.45193384158529 116.93591178878017) rotate(0 0.00004999999998744897 0.00004999999998744897)" stroke="none"><path fill="#000000" d="M 1.57,-1.57 Q 1.57,-1.57 1.77,-1.27 1.98,-0.98 2.09,-0.64 2.20,-0.29 2.19,0.05 2.18,0.41 2.05,0.75 1.93,1.09 1.70,1.37 1.48,1.65 1.18,1.84 0.87,2.04 0.52,2.12 0.18,2.21 -0.17,2.18 -0.53,2.15 -0.86,2.01 -1.19,1.87 -1.46,1.63 -1.73,1.39 -1.90,1.07 -2.08,0.76 -2.15,0.41 -2.21,0.05 -2.17,-0.29 -2.12,-0.65 -1.96,-0.97 -1.80,-1.29 -1.54,-1.54 -1.29,-1.80 -0.97,-1.96 -0.65,-2.12 -0.29,-2.17 0.06,-2.21 0.41,-2.15 0.76,-2.08 1.07,-1.90 1.39,-1.73 1.63,-1.46 1.87,-1.19 2.01,-0.86 2.15,-0.53 2.18,-0.17 2.21,0.18 2.12,0.52 2.03,0.87 1.84,1.18 1.65,1.48 1.37,1.70 1.09,1.93 0.75,2.05 0.41,2.18 0.05,2.19 -0.30,2.20 -0.64,2.09 -0.98,1.98 -1.27,1.77 -1.57,1.56 -1.57,1.57 -1.57,1.57 -1.73,1.35 -1.90,1.14 -2.01,0.90 -2.12,0.66 -2.16,0.39 -2.21,0.13 -2.20,-0.13 -2.18,-0.40 -2.10,-0.65 -2.02,-0.91 -1.88,-1.14 -1.74,-1.36 -1.55,-1.55 -1.36,-1.74 -1.14,-1.88 -0.91,-2.02 -0.65,-2.10 -0.40,-2.18 -0.13,-2.20 0.13,-2.21 0.39,-2.16 0.66,-2.12 0.90,-2.01 1.14,-1.90 1.35,-1.73 1.57,-1.57 1.57,-1.57 L 1.57,-1.57 Z"></path></g><g stroke-opacity="0.9" fill-opacity="0.9" transform="translate(58.20283158354039 142.9501383576748) rotate(0 11.859426818172608 6.886118797648635)" stroke="none"><path fill="#000000" d="M 2.56,0.64 Q 2.56,0.64 2.37,1.52 2.19,2.41 2.11,3.61 2.03,4.82 3.45,6.06 4.88,7.30 5.90,7.88 6.92,8.45 7.83,9.28 8.73,10.11 9.85,9.82 10.97,9.53 12.13,9.84 13.28,10.16 14.72,10.20 16.17,10.23 17.87,10.24 19.57,10.25 20.51,9.49 21.44,8.73 21.17,6.27 20.89,3.82 20.98,3.25 21.08,2.67 21.35,2.16 21.62,1.65 22.04,1.25 22.46,0.85 22.99,0.60 23.52,0.36 24.10,0.30 24.68,0.23 25.24,0.36 25.81,0.48 26.31,0.78 26.81,1.08 27.18,1.53 27.56,1.97 27.77,2.51 27.99,3.05 28.02,3.63 28.05,4.21 27.89,4.77 27.74,5.33 27.41,5.81 27.09,6.29 26.62,6.64 26.16,7.00 25.61,7.18 25.06,7.37 24.48,7.37 23.90,7.36 23.34,7.18 22.79,6.99 22.33,6.64 21.87,6.29 21.54,5.81 21.22,5.33 21.06,4.77 20.91,4.21 20.94,3.63 20.97,3.05 21.19,2.51 21.40,1.97 21.78,1.52 22.16,1.08 22.65,0.78 23.15,0.48 23.72,0.36 24.29,0.23 24.86,0.30 25.44,0.36 25.97,0.60 26.50,0.85 26.92,1.25 27.34,1.65 27.61,2.16 27.88,2.68 27.98,3.25 28.07,3.82 28.07,3.82 28.07,3.82 28.03,6.55 27.98,9.27 27.71,10.61 27.44,11.96 26.34,13.36 25.24,14.75 23.67,15.72 22.11,16.68 20.16,16.99 18.20,17.30 17.13,17.29 16.06,17.28 14.82,17.24 13.58,17.20 12.19,16.84 10.80,16.47 9.48,16.43 8.17,16.40 6.53,16.09 4.89,15.77 3.96,14.74 3.03,13.70 1.89,12.92 0.74,12.14 -0.21,11.06 -1.18,9.98 -1.93,8.72 -2.68,7.45 -3.11,5.55 -3.54,3.65 -3.31,2.37 -3.07,1.10 -2.81,0.23 -2.56,-0.64 -2.44,-0.93 -2.33,-1.23 -2.15,-1.49 -1.97,-1.75 -1.73,-1.96 -1.49,-2.17 -1.21,-2.32 -0.92,-2.47 -0.61,-2.54 -0.30,-2.62 0.00,-2.62 0.32,-2.62 0.63,-2.54 0.94,-2.46 1.22,-2.31 1.50,-2.16 1.74,-1.95 1.98,-1.74 2.16,-1.48 2.34,-1.21 2.45,-0.92 2.56,-0.62 2.60,-0.30 2.64,0.00 2.60,0.32 2.56,0.64 2.56,0.64 L 2.56,0.64 Z"></path></g><g stroke-opacity="0.9" fill-opacity="0.9" stroke-linecap="round" transform="translate(332.8824591786347 43.48397794719506) rotate(0 60.82738271256267 85.3113606597577)"><path d="M-0.76 -2.24 C44.98 -0.22, 93.71 1.36, 120.35 -0.46 M0.66 0.71 C36.47 -0.25, 75.46 -1.78, 121.32 -1.62 M121.64 -2.86 C117.33 39.56, 115.29 84.47, 118.18 172.26 M121.73 -1.98 C121.69 41.69, 123 79.01, 121.67 168.8 M124.21 169.66 C77.45 169.59, 28.76 174.23, 3.36 167.92 M120.28 169.33 C91.07 172.44, 58.28 172.78, -1.72 168.94 M0.63 172.6 C-1.03 108.82, -3.81 53.51, -2.22 -0.81 M0.63 169.45 C3.88 104.83, 1.69 41.63, 1.68 1.93" stroke="#000000" stroke-width="1" fill="none"></path></g><g stroke-opacity="0.9" fill-opacity="0.9" transform="translate(336.0621554249226 10) rotate(0 56.5 12.5)"><text x="56.5" y="18" font-family="Virgil, Segoe UI Emoji" font-size="20px" fill="#000000" text-anchor="middle" style="white-space: pre;" direction="ltr">Contract A</text></g><g stroke-linecap="round"><g stroke-opacity="0.9" fill-opacity="0.9" transform="translate(142.36650577702335 83.2704421113869) rotate(0 81.70138535318404 1.2092396278354158)"><path d="M0.79 1.89 C28.5 2.59, 138.5 3.05, 165.63 3.51 M-2.23 0.45 C25.21 0.32, 134.98 -1.04, 163.59 -1.09" stroke="#000000" stroke-width="1" fill="none"></path></g><g stroke-opacity="0.9" fill-opacity="0.9" transform="translate(142.36650577702335 83.2704421113869) rotate(0 81.70138535318404 1.2092396278354158)"><path d="M138.17 9.9 C144.39 3.86, 153.8 3.23, 165.97 -4.95 M135.23 10.04 C141.51 8.12, 149.09 4.96, 164.2 0.72" stroke="#000000" stroke-width="1" fill="none"></path></g><g stroke-opacity="0.9" fill-opacity="0.9" transform="translate(142.36650577702335 83.2704421113869) rotate(0 81.70138535318404 1.2092396278354158)"><path d="M138.02 -10.62 C144.18 -10.99, 153.63 -5.94, 165.97 -4.95 M135.08 -10.48 C141.23 -7.7, 148.85 -6.15, 164.2 0.72" stroke="#000000" stroke-width="1" fill="none"></path></g></g><g stroke-opacity="0.9" fill-opacity="0.9" transform="translate(152.05331530775857 39.07472381229405) rotate(0 63 12.5)"><text x="63" y="18" font-family="Virgil, Segoe UI Emoji" font-size="20px" fill="#000000" text-anchor="middle" style="white-space: pre;" direction="ltr">message call</text></g><g stroke-linecap="round"><g stroke-opacity="0.9" fill-opacity="0.9" transform="translate(308.3984812314395 143.46518133881563) rotate(0 -77.86230969077428 -0.23677223756931198)"><path d="M0.51 -2.74 C-25.02 -2.95, -128.23 -1.33, -153.93 -1.06 M-2.65 1.95 C-28.51 2.15, -130.78 2.31, -156.24 2.28" stroke="#000000" stroke-width="1" fill="none"></path></g><g stroke-opacity="0.9" fill-opacity="0.9" transform="translate(308.3984812314395 143.46518133881563) rotate(0 -77.86230969077428 -0.23677223756931198)"><path d="M-131.96 -8.19 C-136.55 -4.86, -144.31 -3.36, -160.1 5.89 M-126.25 -6.03 C-135.71 -6.43, -139.72 -2.08, -156.63 3.65" stroke="#000000" stroke-width="1" fill="none"></path></g><g stroke-opacity="0.9" fill-opacity="0.9" transform="translate(308.3984812314395 143.46518133881563) rotate(0 -77.86230969077428 -0.23677223756931198)"><path d="M-131.96 12.33 C-136.57 10.02, -144.33 5.89, -160.1 5.89 M-126.24 14.49 C-135.58 9.52, -139.6 9.29, -156.63 3.65" stroke="#000000" stroke-width="1" fill="none"></path></g></g><g stroke-opacity="0.9" fill-opacity="0.9" transform="translate(187.1743097945573 163.78998648081875) rotate(0 34 12.5)"><text x="34" y="18" font-family="Virgil, Segoe UI Emoji" font-size="20px" fill="#000000" text-anchor="middle" style="white-space: pre;" direction="ltr">output</text></g><g stroke-opacity="0.9" fill-opacity="0.9" transform="translate(485.8058712312368 99.5195443694318) rotate(0 83.5 12.5)"><text x="83.5" y="18" font-family="Virgil, Segoe UI Emoji" font-size="20px" fill="#000000" text-anchor="middle" style="white-space: pre;" direction="ltr">No state change</text></g><g stroke-opacity="0.9" fill-opacity="0.9" stroke-linecap="round" transform="translate(10 264.22234162737533) rotate(0 52.028453137789484 49.35051804981498)"><path d="M10.78 17.5 C15.37 11.02, 24.65 4.87, 32.86 2.28 C41.07 -0.31, 51.47 0.76, 60.04 1.97 C68.61 3.17, 77.65 4.79, 84.28 9.51 C90.9 14.24, 96.35 22.58, 99.8 30.32 C103.25 38.05, 106.02 47.57, 104.97 55.91 C103.91 64.26, 99.2 73.85, 93.49 80.38 C87.78 86.9, 79.14 92.25, 70.7 95.07 C62.27 97.89, 51.37 98.42, 42.87 97.29 C34.37 96.15, 26.44 93.08, 19.71 88.26 C12.98 83.43, 5.38 76.17, 2.5 68.32 C-0.39 60.46, -2.44 51.9, 2.39 41.12 C7.23 30.35, 21.95 10.37, 31.48 3.65 C41.02 -3.08, 58.91 -0.03, 59.6 0.76 M18.04 16.54 C23.56 10.27, 29.94 1.5, 37.63 -0.89 C45.32 -3.28, 55.33 -0.55, 64.18 2.21 C73.03 4.97, 84.13 10.01, 90.74 15.67 C97.36 21.32, 101.55 27.9, 103.87 36.15 C106.19 44.4, 106.96 56.73, 104.68 65.17 C102.39 73.61, 96.51 81.57, 90.17 86.81 C83.83 92.06, 75.83 94.89, 66.64 96.65 C57.44 98.42, 43.68 99.36, 35 97.4 C26.32 95.45, 19.82 91.11, 14.57 84.91 C9.33 78.72, 5.51 68.09, 3.51 60.22 C1.51 52.34, 0.06 45.46, 2.58 37.66 C5.09 29.85, 15.85 17.06, 18.6 13.39 C21.34 9.72, 19.32 14.95, 19.04 15.64" stroke="#000000" stroke-width="1" fill="none"></path></g><g stroke-opacity="0.9" fill-opacity="0.9" transform="translate(46.725966920792416 307.83442734581666) rotate(0 0.00004999999998744897 0.00004999999998744897)" stroke="none"><path fill="#000000" d="M 1.57,-1.57 Q 1.57,-1.57 1.77,-1.27 1.98,-0.98 2.09,-0.64 2.20,-0.29 2.19,0.05 2.18,0.41 2.05,0.75 1.93,1.09 1.70,1.37 1.48,1.65 1.18,1.84 0.87,2.04 0.52,2.12 0.18,2.21 -0.17,2.18 -0.53,2.15 -0.86,2.01 -1.19,1.87 -1.46,1.63 -1.73,1.39 -1.90,1.07 -2.08,0.76 -2.15,0.41 -2.21,0.05 -2.17,-0.29 -2.12,-0.65 -1.96,-0.97 -1.80,-1.29 -1.54,-1.54 -1.29,-1.80 -0.97,-1.96 -0.65,-2.12 -0.29,-2.17 0.06,-2.21 0.41,-2.15 0.76,-2.08 1.07,-1.90 1.39,-1.73 1.63,-1.46 1.87,-1.19 2.01,-0.86 2.15,-0.53 2.18,-0.17 2.21,0.18 2.12,0.52 2.03,0.87 1.84,1.18 1.65,1.48 1.37,1.70 1.09,1.93 0.75,2.05 0.41,2.18 0.05,2.19 -0.30,2.20 -0.64,2.09 -0.98,1.98 -1.27,1.77 -1.57,1.56 -1.57,1.57 -1.57,1.57 -1.73,1.35 -1.90,1.14 -2.01,0.90 -2.12,0.66 -2.16,0.39 -2.21,0.13 -2.20,-0.13 -2.18,-0.40 -2.10,-0.65 -2.02,-0.91 -1.88,-1.14 -1.74,-1.36 -1.55,-1.55 -1.36,-1.74 -1.14,-1.88 -0.91,-2.02 -0.65,-2.10 -0.40,-2.18 -0.13,-2.20 0.13,-2.21 0.39,-2.16 0.66,-2.12 0.90,-2.01 1.14,-1.90 1.35,-1.73 1.57,-1.57 1.57,-1.57 L 1.57,-1.57 Z"></path></g><g stroke-opacity="0.9" fill-opacity="0.9" transform="translate(75.80069073308664 307.83442734581666) rotate(0 0.00004999999998744897 0.00004999999998744897)" stroke="none"><path fill="#000000" d="M 1.57,-1.57 Q 1.57,-1.57 1.77,-1.27 1.98,-0.98 2.09,-0.64 2.20,-0.29 2.19,0.05 2.18,0.41 2.05,0.75 1.93,1.09 1.70,1.37 1.48,1.65 1.18,1.84 0.87,2.04 0.52,2.12 0.18,2.21 -0.17,2.18 -0.53,2.15 -0.86,2.01 -1.19,1.87 -1.46,1.63 -1.73,1.39 -1.90,1.07 -2.08,0.76 -2.15,0.41 -2.21,0.05 -2.17,-0.29 -2.12,-0.65 -1.96,-0.97 -1.80,-1.29 -1.54,-1.54 -1.29,-1.80 -0.97,-1.96 -0.65,-2.12 -0.29,-2.17 0.06,-2.21 0.41,-2.15 0.76,-2.08 1.07,-1.90 1.39,-1.73 1.63,-1.46 1.87,-1.19 2.01,-0.86 2.15,-0.53 2.18,-0.17 2.21,0.18 2.12,0.52 2.03,0.87 1.84,1.18 1.65,1.48 1.37,1.70 1.09,1.93 0.75,2.05 0.41,2.18 0.05,2.19 -0.30,2.20 -0.64,2.09 -0.98,1.98 -1.27,1.77 -1.57,1.56 -1.57,1.57 -1.57,1.57 -1.73,1.35 -1.90,1.14 -2.01,0.90 -2.12,0.66 -2.16,0.39 -2.21,0.13 -2.20,-0.13 -2.18,-0.40 -2.10,-0.65 -2.02,-0.91 -1.88,-1.14 -1.74,-1.36 -1.55,-1.55 -1.36,-1.74 -1.14,-1.88 -0.91,-2.02 -0.65,-2.10 -0.40,-2.18 -0.13,-2.20 0.13,-2.21 0.39,-2.16 0.66,-2.12 0.90,-2.01 1.14,-1.90 1.35,-1.73 1.57,-1.57 1.57,-1.57 L 1.57,-1.57 Z"></path></g><g stroke-opacity="0.9" fill-opacity="0.9" transform="translate(50.551588475041626 333.8486539147113) rotate(0 11.859426818172608 6.886118797648635)" stroke="none"><path fill="#000000" d="M 2.56,0.64 Q 2.56,0.64 2.37,1.52 2.19,2.41 2.11,3.61 2.03,4.82 3.45,6.06 4.88,7.30 5.90,7.88 6.92,8.45 7.83,9.28 8.73,10.11 9.85,9.82 10.97,9.53 12.13,9.84 13.28,10.16 14.72,10.20 16.17,10.23 17.87,10.24 19.57,10.25 20.51,9.49 21.44,8.73 21.17,6.39 20.89,4.06 20.98,3.49 21.08,2.91 21.35,2.40 21.62,1.89 22.04,1.49 22.47,1.09 22.99,0.84 23.52,0.60 24.10,0.54 24.68,0.48 25.24,0.60 25.81,0.73 26.31,1.03 26.80,1.33 27.18,1.77 27.56,2.21 27.77,2.75 27.99,3.29 28.02,3.87 28.05,4.45 27.89,5.01 27.74,5.57 27.41,6.05 27.08,6.53 26.62,6.88 26.16,7.23 25.61,7.42 25.06,7.60 24.48,7.60 23.90,7.60 23.35,7.42 22.80,7.23 22.33,6.88 21.87,6.53 21.55,6.05 21.22,5.57 21.06,5.01 20.91,4.45 20.94,3.87 20.97,3.29 21.19,2.75 21.40,2.21 21.78,1.77 22.16,1.32 22.65,1.02 23.15,0.73 23.72,0.60 24.29,0.48 24.86,0.54 25.44,0.60 25.97,0.85 26.50,1.09 26.92,1.49 27.34,1.89 27.61,2.40 27.88,2.92 27.98,3.49 28.07,4.06 28.07,4.06 28.07,4.06 28.02,6.67 27.98,9.27 27.71,10.61 27.44,11.96 26.34,13.36 25.24,14.75 23.67,15.72 22.11,16.68 20.16,16.99 18.20,17.30 17.13,17.29 16.06,17.28 14.82,17.24 13.58,17.20 12.19,16.84 10.80,16.47 9.48,16.43 8.17,16.40 6.53,16.09 4.89,15.77 3.96,14.74 3.03,13.70 1.89,12.92 0.74,12.14 -0.21,11.06 -1.18,9.98 -1.93,8.72 -2.68,7.45 -3.11,5.55 -3.54,3.65 -3.31,2.37 -3.07,1.10 -2.81,0.23 -2.56,-0.64 -2.44,-0.93 -2.33,-1.23 -2.15,-1.49 -1.97,-1.75 -1.73,-1.96 -1.49,-2.17 -1.21,-2.32 -0.92,-2.47 -0.61,-2.54 -0.30,-2.62 0.00,-2.62 0.32,-2.62 0.63,-2.54 0.94,-2.46 1.22,-2.31 1.50,-2.16 1.74,-1.95 1.98,-1.74 2.16,-1.48 2.34,-1.21 2.45,-0.92 2.56,-0.62 2.60,-0.30 2.64,0.00 2.60,0.32 2.56,0.64 2.56,0.64 L 2.56,0.64 Z"></path></g><g stroke-linecap="round"><g stroke-opacity="0.9" fill-opacity="0.9" transform="translate(148.57811677839436 283.6760709528706) rotate(0 82.49463690189089 2.148465784076677)"><path d="M0.86 2.72 C29.05 2.96, 139.32 4.01, 167.1 4.15 M-2.11 1.73 C25.97 2.37, 137.33 0.65, 165.44 0.15" stroke="#000000" stroke-width="1" fill="none"></path></g><g stroke-opacity="0.9" fill-opacity="0.9" transform="translate(148.57811677839436 283.6760709528706) rotate(0 82.49463690189089 2.148465784076677)"><path d="M141.31 12.38 C146.28 10.42, 151.87 9.59, 167.58 -2.54 M138.61 10.23 C143.55 6.44, 154.67 4.87, 166.96 -0.85" stroke="#000000" stroke-width="1" fill="none"></path></g><g stroke-opacity="0.9" fill-opacity="0.9" transform="translate(148.57811677839436 283.6760709528706) rotate(0 82.49463690189089 2.148465784076677)"><path d="M140.98 -8.14 C146.43 -5.4, 152.1 -1.53, 167.58 -2.54 M138.28 -10.29 C143.5 -8.14, 154.72 -3.77, 166.96 -0.85" stroke="#000000" stroke-width="1" fill="none"></path></g></g><g stroke-opacity="0.9" fill-opacity="0.9" transform="translate(158.26492630912958 239.48035265377774) rotate(0 63 12.5)"><text x="63" y="18" font-family="Virgil, Segoe UI Emoji" font-size="20px" fill="#000000" text-anchor="middle" style="white-space: pre;" direction="ltr">message call</text></g><g stroke-linecap="round"><g stroke-opacity="0.9" fill-opacity="0.9" transform="translate(315.3752165436604 343.3557671991585) rotate(0 -76.67982413983356 -0.594541590325548)"><path d="M1.07 1.85 C-24.58 1.61, -127.53 1.33, -153.02 1.27 M-1.8 0.39 C-27.76 0.5, -129.35 -2.44, -154.43 -3.04" stroke="#000000" stroke-width="1" fill="none"></path></g><g stroke-opacity="0.9" fill-opacity="0.9" transform="translate(315.3752165436604 343.3557671991585) rotate(0 -76.67982413983356 -0.594541590325548)"><path d="M-123.33 -10.37 C-133.38 -5.38, -142.48 -8.73, -154.85 -1.27 M-127.86 -13.66 C-134.35 -9.1, -143.56 -7.31, -153.03 -1.38" stroke="#000000" stroke-width="1" fill="none"></path></g><g stroke-opacity="0.9" fill-opacity="0.9" transform="translate(315.3752165436604 343.3557671991585) rotate(0 -76.67982413983356 -0.594541590325548)"><path d="M-123.87 10.14 C-134.14 8.34, -143.06 -1.8, -154.85 -1.27 M-128.4 6.85 C-134.95 4.49, -143.98 -0.64, -153.03 -1.38" stroke="#000000" stroke-width="1" fill="none"></path></g></g><g stroke-opacity="0.9" fill-opacity="0.9" transform="translate(193.3859207959283 364.19561532230244) rotate(0 34 12.5)"><text x="34" y="18" font-family="Virgil, Segoe UI Emoji" font-size="20px" fill="#000000" text-anchor="middle" style="white-space: pre;" direction="ltr">output</text></g><g stroke-opacity="0.9" fill-opacity="0.9" stroke-linecap="round" transform="translate(332.49989702320954 258.0106012754773) rotate(0 60.82738271256267 85.31136065975767)"><path d="M2.36 -1.33 C24 -5.13, 51.2 -5.58, 121.7 -2.61 M1.83 1.34 C43.51 0.06, 86.71 -2.69, 122.81 -0.62 M118.94 -2.76 C123.11 40.6, 125.53 83.51, 117.77 171.11 M121.6 -0.17 C117.88 44.53, 119.27 91.71, 120.3 172.25 M125.33 168.69 C99.13 168.99, 68.14 172.96, -0.46 173.71 M121.96 169.53 C75.72 171.06, 33.29 171.24, -1.53 171.78 M-1.67 168.6 C0.9 124.64, 2.7 82.78, -3.61 -2.18 M1.07 171.19 C-1.3 132.43, -1.17 94.31, -1.51 -0.75" stroke="#000000" stroke-width="1" fill="none"></path></g><g stroke-opacity="0.9" fill-opacity="0.9" transform="translate(335.67959326949745 224.52662332828237) rotate(0 56.5 12.5)"><text x="56.5" y="18" font-family="Virgil, Segoe UI Emoji" font-size="20px" fill="#000000" text-anchor="middle" style="white-space: pre;" direction="ltr">Contract A</text></g><g stroke-linecap="round"><g stroke-opacity="0.9" fill-opacity="0.9" transform="translate(493.31479097156955 281.38069802032106) rotate(0 82.34561883190082 2.0723382845502556)"><path d="M-2.14 1.5 C25.99 1.63, 138.58 1.25, 166.83 1.24 M1.89 -0.15 C29.91 0.32, 137.63 3.6, 165.03 4.3" stroke="#000000" stroke-width="1" fill="none"></path></g><g stroke-opacity="0.9" fill-opacity="0.9" transform="translate(493.31479097156955 281.38069802032106) rotate(0 82.34561883190082 2.0723382845502556)"><path d="M138.7 14.9 C141.55 13.94, 148.35 13.84, 162 2.79 M135.02 12.51 C142.75 10.36, 149.83 11.59, 166.66 3.97" stroke="#000000" stroke-width="1" fill="none"></path></g><g stroke-opacity="0.9" fill-opacity="0.9" transform="translate(493.31479097156955 281.38069802032106) rotate(0 82.34561883190082 2.0723382845502556)"><path d="M139.28 -5.61 C142.06 -1.87, 148.73 2.73, 162 2.79 M135.6 -8.01 C142.89 -5.89, 149.85 -0.38, 166.66 3.97" stroke="#000000" stroke-width="1" fill="none"></path></g></g><g stroke-opacity="0.9" fill-opacity="0.9" transform="translate(503.00160050230477 237.1849797212281) rotate(0 63.00000000000006 12.5)"><text x="63" y="18" font-family="Virgil, Segoe UI Emoji" font-size="20px" fill="#000000" text-anchor="middle" style="white-space: pre;" direction="ltr">message call</text></g><g stroke-linecap="round"><g stroke-opacity="0.9" fill-opacity="0.9" transform="translate(660.1118907368354 341.06039426660874) rotate(0 -76.96262394523632 -0.9051623024726041)"><path d="M0.8 -1.05 C-24.38 -1.45, -127.79 -0.69, -153.21 -0.87 M-2.21 -4.09 C-27.45 -4.22, -129.75 1.63, -154.72 2.29" stroke="#000000" stroke-width="1" fill="none"></path></g><g stroke-opacity="0.9" fill-opacity="0.9" transform="translate(660.1118907368354 341.06039426660874) rotate(0 -76.96262394523632 -0.9051623024726041)"><path d="M-128.51 -7.27 C-134.32 -2.48, -142.3 -5.4, -158.39 -0.79 M-126.88 -11 C-132.32 -5.5, -138.35 -4.56, -152.9 1.61" stroke="#000000" stroke-width="1" fill="none"></path></g><g stroke-opacity="0.9" fill-opacity="0.9" transform="translate(660.1118907368354 341.06039426660874) rotate(0 -76.96262394523632 -0.9051623024726041)"><path d="M-127.62 13.24 C-133.85 13.45, -142.03 5.94, -158.39 -0.79 M-126 9.5 C-131.33 10.25, -137.56 6.46, -152.9 1.61" stroke="#000000" stroke-width="1" fill="none"></path></g></g><g stroke-opacity="0.9" fill-opacity="0.9" transform="translate(538.1225949891035 361.9002423897528) rotate(0 34.00000000000006 12.5)"><text x="34" y="18" font-family="Virgil, Segoe UI Emoji" font-size="20px" fill="#000000" text-anchor="middle" style="white-space: pre;" direction="ltr">output</text></g><g stroke-opacity="0.9" fill-opacity="0.9" stroke-linecap="round" transform="translate(677.5709612164896 264.8967200731259) rotate(0 60.82738271256267 85.31136065975767)"><path d="M-1.42 -3.65 C50.77 -2.79, 96.09 -0.6, 121.89 0.02 M-0.5 -0.03 C28.57 -1.46, 54.22 -0.86, 119.8 -1.67 M124.02 3.98 C119.49 47.74, 117.33 98.41, 121.51 167.06 M123.09 0.4 C122.95 35.06, 121.65 75.04, 121.21 170.83 M123.71 174.14 C95.72 168.63, 61.74 169.47, 1.82 170.52 M122.89 170.01 C80.92 169.68, 43.01 170.84, 1.55 169.61 M1.66 170.14 C2.7 129.55, -1.35 91.29, 2.81 1.38 M-0.87 172.53 C-0.03 116.59, -1.42 59.88, 1.36 -1.39" stroke="#000000" stroke-width="1" fill="none"></path></g><g stroke-opacity="0.9" fill-opacity="0.9" transform="translate(680.2506574627776 231.41274212593095) rotate(0 57 12.5)"><text x="57" y="18" font-family="Virgil, Segoe UI Emoji" font-size="20px" fill="#000000" text-anchor="middle" style="white-space: pre;" direction="ltr">Contract B</text></g><g stroke-opacity="0.9" fill-opacity="0.9" transform="translate(830.8769354245167 320.2009674484363) rotate(0 83.5 12.5)"><text x="83.5" y="18" font-family="Virgil, Segoe UI Emoji" font-size="20px" fill="#000000" text-anchor="middle" style="white-space: pre;" direction="ltr">No state change</text></g><g stroke-opacity="0.9" fill-opacity="0.9" stroke-linecap="round" transform="translate(13.82562155424921 513.6528669644247) rotate(0 52.028453137789484 49.35051804981498)"><path d="M19.79 10.65 C25.65 5.62, 35.41 4.04, 43.66 2.8 C51.91 1.55, 61.48 0.97, 69.3 3.19 C77.12 5.4, 85.14 10.14, 90.57 16.09 C96 22.04, 100.18 30.71, 101.87 38.88 C103.57 47.05, 103.12 57.22, 100.74 65.11 C98.36 73, 93.96 80.5, 87.59 86.22 C81.23 91.94, 71.27 97.59, 62.54 99.45 C53.81 101.31, 43.64 100.16, 35.21 97.4 C26.79 94.64, 17.69 89.64, 11.99 82.9 C6.29 76.16, 2.42 65.48, 0.99 56.95 C-0.44 48.42, -3.83 40.91, 3.4 31.71 C10.63 22.52, 33.32 6.47, 44.37 1.76 C55.42 -2.94, 69.98 2.99, 69.71 3.47 M92.73 21.71 C98.18 27.62, 105.3 33.2, 106.25 41.32 C107.19 49.44, 102.57 62.91, 98.38 70.43 C94.19 77.94, 87.51 81.98, 81.1 86.4 C74.69 90.82, 68.47 96.02, 59.93 96.95 C51.4 97.87, 38.25 94.51, 29.87 91.95 C21.49 89.38, 14.48 88.16, 9.67 81.55 C4.85 74.94, 1.76 61.33, 1 52.3 C0.23 43.27, 2.07 34.53, 5.07 27.37 C8.07 20.2, 11.82 14.27, 19.01 9.3 C26.19 4.33, 38.93 -1.47, 48.2 -2.43 C57.48 -3.38, 66.89 -0.39, 74.67 3.57 C82.45 7.54, 92.31 18.43, 94.9 21.35 C97.49 24.27, 91.09 21.05, 90.23 21.08" stroke="#000000" stroke-width="1" fill="none"></path></g><g stroke-opacity="0.9" fill-opacity="0.9" transform="translate(50.55158847504174 557.2649526828659) rotate(0 0.00004999999998744897 0.00004999999998744897)" stroke="none"><path fill="#000000" d="M 1.57,-1.57 Q 1.57,-1.57 1.77,-1.27 1.98,-0.98 2.09,-0.64 2.20,-0.29 2.19,0.05 2.18,0.41 2.05,0.75 1.93,1.09 1.70,1.37 1.48,1.65 1.18,1.84 0.87,2.04 0.52,2.12 0.18,2.21 -0.17,2.18 -0.53,2.15 -0.86,2.01 -1.19,1.87 -1.46,1.63 -1.73,1.39 -1.90,1.07 -2.08,0.76 -2.15,0.41 -2.21,0.05 -2.17,-0.29 -2.12,-0.65 -1.96,-0.97 -1.80,-1.29 -1.54,-1.54 -1.29,-1.80 -0.97,-1.96 -0.65,-2.12 -0.29,-2.17 0.06,-2.21 0.41,-2.15 0.76,-2.08 1.07,-1.90 1.39,-1.73 1.63,-1.46 1.87,-1.19 2.01,-0.86 2.15,-0.53 2.18,-0.17 2.21,0.18 2.12,0.52 2.03,0.87 1.84,1.18 1.65,1.48 1.37,1.70 1.09,1.93 0.75,2.05 0.41,2.18 0.05,2.19 -0.30,2.20 -0.64,2.09 -0.98,1.98 -1.27,1.77 -1.57,1.56 -1.57,1.57 -1.57,1.57 -1.73,1.35 -1.90,1.14 -2.01,0.90 -2.12,0.66 -2.16,0.39 -2.21,0.13 -2.20,-0.13 -2.18,-0.40 -2.10,-0.65 -2.02,-0.91 -1.88,-1.14 -1.74,-1.36 -1.55,-1.55 -1.36,-1.74 -1.14,-1.88 -0.91,-2.02 -0.65,-2.10 -0.40,-2.18 -0.13,-2.20 0.13,-2.21 0.39,-2.16 0.66,-2.12 0.90,-2.01 1.14,-1.90 1.35,-1.73 1.57,-1.57 1.57,-1.57 L 1.57,-1.57 Z"></path></g><g stroke-opacity="0.9" fill-opacity="0.9" transform="translate(79.62631228733585 557.2649526828659) rotate(0 0.00004999999998744897 0.00004999999998744897)" stroke="none"><path fill="#000000" d="M 1.57,-1.57 Q 1.57,-1.57 1.77,-1.27 1.98,-0.98 2.09,-0.64 2.20,-0.29 2.19,0.05 2.18,0.41 2.05,0.75 1.93,1.09 1.70,1.37 1.48,1.65 1.18,1.84 0.87,2.04 0.52,2.12 0.18,2.21 -0.17,2.18 -0.53,2.15 -0.86,2.01 -1.19,1.87 -1.46,1.63 -1.73,1.39 -1.90,1.07 -2.08,0.76 -2.15,0.41 -2.21,0.05 -2.17,-0.29 -2.12,-0.65 -1.96,-0.97 -1.80,-1.29 -1.54,-1.54 -1.29,-1.80 -0.97,-1.96 -0.65,-2.12 -0.29,-2.17 0.06,-2.21 0.41,-2.15 0.76,-2.08 1.07,-1.90 1.39,-1.73 1.63,-1.46 1.87,-1.19 2.01,-0.86 2.15,-0.53 2.18,-0.17 2.21,0.18 2.12,0.52 2.03,0.87 1.84,1.18 1.65,1.48 1.37,1.70 1.09,1.93 0.75,2.05 0.41,2.18 0.05,2.19 -0.30,2.20 -0.64,2.09 -0.98,1.98 -1.27,1.77 -1.57,1.56 -1.57,1.57 -1.57,1.57 -1.73,1.35 -1.90,1.14 -2.01,0.90 -2.12,0.66 -2.16,0.39 -2.21,0.13 -2.20,-0.13 -2.18,-0.40 -2.10,-0.65 -2.02,-0.91 -1.88,-1.14 -1.74,-1.36 -1.55,-1.55 -1.36,-1.74 -1.14,-1.88 -0.91,-2.02 -0.65,-2.10 -0.40,-2.18 -0.13,-2.20 0.13,-2.21 0.39,-2.16 0.66,-2.12 0.90,-2.01 1.14,-1.90 1.35,-1.73 1.57,-1.57 1.57,-1.57 L 1.57,-1.57 Z"></path></g><g stroke-opacity="0.9" fill-opacity="0.9" transform="translate(54.37721002929095 583.2791792517605) rotate(0 11.859426818172608 6.886118797648635)" stroke="none"><path fill="#000000" d="M 2.56,0.64 Q 2.56,0.64 2.37,1.52 2.19,2.41 2.11,3.61 2.03,4.82 3.45,6.06 4.88,7.30 5.90,7.88 6.92,8.45 7.83,9.28 8.73,10.11 9.85,9.82 10.97,9.53 12.13,9.84 13.28,10.16 14.72,10.20 16.17,10.23 17.87,10.24 19.57,10.25 20.51,9.49 21.44,8.73 21.17,6.39 20.89,4.06 20.98,3.49 21.08,2.91 21.35,2.40 21.62,1.89 22.04,1.49 22.47,1.09 22.99,0.84 23.52,0.60 24.10,0.54 24.68,0.48 25.24,0.60 25.81,0.73 26.31,1.03 26.80,1.33 27.18,1.77 27.56,2.21 27.77,2.75 27.99,3.29 28.02,3.87 28.05,4.45 27.89,5.01 27.74,5.57 27.41,6.05 27.08,6.53 26.62,6.88 26.16,7.23 25.61,7.42 25.06,7.60 24.48,7.60 23.90,7.60 23.35,7.42 22.80,7.23 22.33,6.88 21.87,6.53 21.55,6.05 21.22,5.57 21.06,5.01 20.91,4.45 20.94,3.87 20.97,3.29 21.19,2.75 21.40,2.21 21.78,1.77 22.16,1.32 22.65,1.02 23.15,0.73 23.72,0.60 24.29,0.48 24.86,0.54 25.44,0.60 25.97,0.85 26.50,1.09 26.92,1.49 27.34,1.89 27.61,2.40 27.88,2.92 27.98,3.49 28.07,4.06 28.07,4.06 28.07,4.06 28.02,6.67 27.98,9.27 27.71,10.61 27.44,11.96 26.34,13.36 25.24,14.75 23.67,15.72 22.11,16.68 20.16,16.99 18.20,17.30 17.13,17.29 16.06,17.28 14.82,17.24 13.58,17.20 12.19,16.84 10.80,16.47 9.48,16.43 8.17,16.40 6.53,16.09 4.89,15.77 3.96,14.74 3.03,13.70 1.89,12.92 0.74,12.14 -0.21,11.06 -1.18,9.98 -1.93,8.72 -2.68,7.45 -3.11,5.55 -3.54,3.65 -3.31,2.37 -3.07,1.10 -2.81,0.23 -2.56,-0.64 -2.44,-0.93 -2.33,-1.23 -2.15,-1.49 -1.97,-1.75 -1.73,-1.96 -1.49,-2.17 -1.21,-2.32 -0.92,-2.47 -0.61,-2.54 -0.30,-2.62 0.00,-2.62 0.32,-2.62 0.63,-2.54 0.94,-2.46 1.22,-2.31 1.50,-2.16 1.74,-1.95 1.98,-1.74 2.16,-1.48 2.34,-1.21 2.45,-0.92 2.56,-0.62 2.60,-0.30 2.64,0.00 2.60,0.32 2.56,0.64 2.56,0.64 L 2.56,0.64 Z"></path></g><g stroke-linecap="round"><g stroke-opacity="0.9" fill-opacity="0.9" transform="translate(157.6689919940202 550.761396040642) rotate(0 68.49464280031708 -0.12329371988198545)"><path d="M2.72 0.69 C25.88 0.2, 113.95 -1.92, 136.24 -2.03 M0.75 -1.4 C23.86 -1.47, 112.04 2.22, 134.44 1.74" stroke="#000000" stroke-width="1" fill="none"></path></g><g stroke-opacity="0.9" fill-opacity="0.9" transform="translate(157.6689919940202 550.761396040642) rotate(0 68.49464280031708 -0.12329371988198545)"><path d="M107.09 12.76 C112.17 10.48, 120.84 4.12, 130.57 5.18 M104.89 9.65 C115.76 8.83, 125.11 3.21, 134.18 1.69" stroke="#000000" stroke-width="1" fill="none"></path></g><g stroke-opacity="0.9" fill-opacity="0.9" transform="translate(157.6689919940202 550.761396040642) rotate(0 68.49464280031708 -0.12329371988198545)"><path d="M107.38 -7.76 C112.53 -5.87, 121.14 -8.06, 130.57 5.18 M105.17 -10.87 C116.26 -4.64, 125.51 -3.2, 134.18 1.69" stroke="#000000" stroke-width="1" fill="none"></path></g></g><g stroke-opacity="0.9" fill-opacity="0.9" stroke-linecap="round" transform="translate(330.20452409066 481.4269000436321) rotate(0 60.82738271256267 85.31136065975767)"><path d="M3.35 -2.51 C38.86 -1.76, 77.38 0.47, 119.39 -3.25 M-1.41 0.54 C44.42 -0.85, 90.64 -2.62, 122.17 1.97 M121.32 3.18 C116.25 58.12, 120.72 114.64, 118.29 170.28 M123.64 0.51 C119.46 38.14, 120.29 72.99, 121.46 172.03 M122.95 174.23 C78.35 171.11, 32.07 171.29, 3.48 170.44 M123.65 170.32 C79.93 172.95, 37.94 172.11, 1.17 172.06 M-1.61 168.66 C2.17 138.57, 4.06 103.51, 0.43 -3.59 M1.91 172.5 C-1.62 117.44, -0.86 65.83, -0.95 1.21" stroke="#000000" stroke-width="1" fill="none"></path></g><g stroke-opacity="0.9" fill-opacity="0.9" transform="translate(333.3842203369479 447.94292209643714) rotate(0 56.5 12.5)"><text x="56.5" y="18" font-family="Virgil, Segoe UI Emoji" font-size="20px" fill="#000000" text-anchor="middle" style="white-space: pre;" direction="ltr">Contract A</text></g><g stroke-opacity="0.9" fill-opacity="0.9" transform="translate(161.37893686200778 508.0959263632489) rotate(0 57.5 12.5)"><text x="57.5" y="18" font-family="Virgil, Segoe UI Emoji" font-size="20px" fill="#000000" text-anchor="middle" style="white-space: pre;" direction="ltr">transaction</text></g><g stroke-opacity="0.9" fill-opacity="0.9" transform="translate(473.07810882653393 537.170650175543) rotate(0 110 12.5)"><text x="110" y="18" font-family="Virgil, Segoe UI Emoji" font-size="20px" fill="#000000" text-anchor="middle" style="white-space: pre;" direction="ltr">Possible state change</text></g><g stroke-opacity="0.9" fill-opacity="0.9" stroke-linecap="round" transform="translate(13.634340476536863 756.1972735038255) rotate(0 52.028453137789484 49.35051804981492)"><path d="M76.14 4.58 C83.82 8.04, 93.63 16.89, 98.2 24.38 C102.78 31.88, 103.35 41.5, 103.59 49.53 C103.82 57.56, 103.52 65.85, 99.61 72.59 C95.7 79.33, 88.2 85.63, 80.12 89.97 C72.04 94.31, 60.24 97.9, 51.14 98.63 C42.04 99.36, 32.85 98.26, 25.54 94.34 C18.23 90.43, 11.28 82.57, 7.28 75.15 C3.29 67.74, 1.53 58.43, 1.58 49.85 C1.63 41.28, 3.53 31.08, 7.57 23.68 C11.62 16.28, 18.96 9.28, 25.86 5.47 C32.77 1.67, 36.02 -4.45, 49.02 0.83 C62.02 6.12, 96.17 25.35, 103.88 37.17 C111.58 48.99, 96.48 71.93, 95.25 71.76 M58.75 1.67 C66.6 1.73, 74.7 3.62, 81.73 8.27 C88.77 12.92, 97.4 22.5, 100.95 29.58 C104.51 36.67, 104.14 42.98, 103.05 50.77 C101.96 58.56, 98.93 68.8, 94.4 76.32 C89.87 83.85, 83.34 91.76, 75.88 95.93 C68.41 100.1, 58.6 102.72, 49.58 101.32 C40.57 99.92, 29.65 93.03, 21.79 87.53 C13.92 82.02, 5.77 75.29, 2.41 68.29 C-0.96 61.3, 0.01 53.08, 1.61 45.54 C3.21 38.01, 7.15 29.86, 11.98 23.07 C16.81 16.28, 23.42 8.29, 30.6 4.82 C37.78 1.35, 50.49 2.81, 55.07 2.26 C59.65 1.71, 57.83 0.97, 58.08 1.54" stroke="#000000" stroke-width="1" fill="none"></path></g><g stroke-opacity="0.9" fill-opacity="0.9" transform="translate(50.36030739732928 799.8093592222665) rotate(0 0.00004999999998744897 0.00004999999998744897)" stroke="none"><path fill="#000000" d="M 1.57,-1.57 Q 1.57,-1.57 1.77,-1.27 1.98,-0.98 2.09,-0.64 2.20,-0.29 2.19,0.05 2.18,0.41 2.05,0.75 1.93,1.09 1.70,1.37 1.48,1.65 1.18,1.84 0.87,2.04 0.52,2.12 0.18,2.21 -0.17,2.18 -0.53,2.15 -0.86,2.01 -1.19,1.87 -1.46,1.63 -1.73,1.39 -1.90,1.07 -2.08,0.76 -2.15,0.41 -2.21,0.05 -2.17,-0.29 -2.12,-0.65 -1.96,-0.97 -1.80,-1.29 -1.54,-1.54 -1.29,-1.80 -0.97,-1.96 -0.65,-2.12 -0.29,-2.17 0.06,-2.21 0.41,-2.15 0.76,-2.08 1.07,-1.90 1.39,-1.73 1.63,-1.46 1.87,-1.19 2.01,-0.86 2.15,-0.53 2.18,-0.17 2.21,0.18 2.12,0.52 2.03,0.87 1.84,1.18 1.65,1.48 1.37,1.70 1.09,1.93 0.75,2.05 0.41,2.18 0.05,2.19 -0.30,2.20 -0.64,2.09 -0.98,1.98 -1.27,1.77 -1.57,1.56 -1.57,1.57 -1.57,1.57 -1.73,1.35 -1.90,1.14 -2.01,0.90 -2.12,0.66 -2.16,0.39 -2.21,0.13 -2.20,-0.13 -2.18,-0.40 -2.10,-0.65 -2.02,-0.91 -1.88,-1.14 -1.74,-1.36 -1.55,-1.55 -1.36,-1.74 -1.14,-1.88 -0.91,-2.02 -0.65,-2.10 -0.40,-2.18 -0.13,-2.20 0.13,-2.21 0.39,-2.16 0.66,-2.12 0.90,-2.01 1.14,-1.90 1.35,-1.73 1.57,-1.57 1.57,-1.57 L 1.57,-1.57 Z"></path></g><g stroke-opacity="0.9" fill-opacity="0.9" transform="translate(79.4350312096235 799.8093592222665) rotate(0 0.00004999999998744897 0.00004999999998744897)" stroke="none"><path fill="#000000" d="M 1.57,-1.57 Q 1.57,-1.57 1.77,-1.27 1.98,-0.98 2.09,-0.64 2.20,-0.29 2.19,0.05 2.18,0.41 2.05,0.75 1.93,1.09 1.70,1.37 1.48,1.65 1.18,1.84 0.87,2.04 0.52,2.12 0.18,2.21 -0.17,2.18 -0.53,2.15 -0.86,2.01 -1.19,1.87 -1.46,1.63 -1.73,1.39 -1.90,1.07 -2.08,0.76 -2.15,0.41 -2.21,0.05 -2.17,-0.29 -2.12,-0.65 -1.96,-0.97 -1.80,-1.29 -1.54,-1.54 -1.29,-1.80 -0.97,-1.96 -0.65,-2.12 -0.29,-2.17 0.06,-2.21 0.41,-2.15 0.76,-2.08 1.07,-1.90 1.39,-1.73 1.63,-1.46 1.87,-1.19 2.01,-0.86 2.15,-0.53 2.18,-0.17 2.21,0.18 2.12,0.52 2.03,0.87 1.84,1.18 1.65,1.48 1.37,1.70 1.09,1.93 0.75,2.05 0.41,2.18 0.05,2.19 -0.30,2.20 -0.64,2.09 -0.98,1.98 -1.27,1.77 -1.57,1.56 -1.57,1.57 -1.57,1.57 -1.73,1.35 -1.90,1.14 -2.01,0.90 -2.12,0.66 -2.16,0.39 -2.21,0.13 -2.20,-0.13 -2.18,-0.40 -2.10,-0.65 -2.02,-0.91 -1.88,-1.14 -1.74,-1.36 -1.55,-1.55 -1.36,-1.74 -1.14,-1.88 -0.91,-2.02 -0.65,-2.10 -0.40,-2.18 -0.13,-2.20 0.13,-2.21 0.39,-2.16 0.66,-2.12 0.90,-2.01 1.14,-1.90 1.35,-1.73 1.57,-1.57 1.57,-1.57 L 1.57,-1.57 Z"></path></g><g stroke-opacity="0.9" fill-opacity="0.9" transform="translate(54.18592895157849 825.8235857911611) rotate(0 11.859426818172608 6.886118797648692)" stroke="none"><path fill="#000000" d="M 2.56,0.64 Q 2.56,0.64 2.37,1.52 2.19,2.41 2.11,3.61 2.03,4.82 3.45,6.06 4.88,7.30 5.90,7.88 6.92,8.45 7.83,9.28 8.73,10.11 9.85,9.82 10.97,9.53 12.13,9.84 13.28,10.16 14.72,10.20 16.17,10.23 17.87,10.24 19.57,10.25 20.51,9.49 21.44,8.73 21.17,6.39 20.89,4.06 20.98,3.49 21.08,2.91 21.35,2.40 21.62,1.89 22.04,1.49 22.47,1.09 22.99,0.84 23.52,0.60 24.10,0.54 24.68,0.48 25.24,0.60 25.81,0.73 26.31,1.03 26.80,1.33 27.18,1.77 27.56,2.21 27.77,2.75 27.99,3.29 28.02,3.87 28.05,4.45 27.89,5.01 27.74,5.57 27.41,6.05 27.08,6.53 26.62,6.88 26.16,7.23 25.61,7.42 25.06,7.60 24.48,7.60 23.90,7.60 23.35,7.42 22.80,7.23 22.33,6.88 21.87,6.53 21.55,6.05 21.22,5.57 21.06,5.01 20.91,4.45 20.94,3.87 20.97,3.29 21.19,2.75 21.40,2.21 21.78,1.77 22.16,1.32 22.65,1.02 23.15,0.73 23.72,0.60 24.29,0.48 24.86,0.54 25.44,0.60 25.97,0.85 26.50,1.09 26.92,1.49 27.34,1.89 27.61,2.40 27.88,2.92 27.98,3.49 28.07,4.06 28.07,4.06 28.07,4.06 28.02,6.67 27.98,9.27 27.71,10.61 27.44,11.96 26.34,13.36 25.24,14.75 23.67,15.72 22.11,16.68 20.16,16.99 18.20,17.30 17.13,17.29 16.06,17.28 14.82,17.24 13.58,17.20 12.19,16.84 10.80,16.47 9.48,16.43 8.17,16.40 6.53,16.09 4.89,15.77 3.96,14.74 3.03,13.70 1.89,12.92 0.74,12.14 -0.21,11.06 -1.18,9.98 -1.93,8.72 -2.68,7.45 -3.11,5.55 -3.54,3.65 -3.31,2.37 -3.07,1.10 -2.81,0.23 -2.56,-0.64 -2.44,-0.93 -2.33,-1.23 -2.15,-1.49 -1.97,-1.75 -1.73,-1.96 -1.49,-2.17 -1.21,-2.32 -0.92,-2.47 -0.61,-2.54 -0.30,-2.62 0.00,-2.62 0.32,-2.62 0.63,-2.54 0.94,-2.46 1.22,-2.31 1.50,-2.16 1.74,-1.95 1.98,-1.74 2.16,-1.48 2.34,-1.21 2.45,-0.92 2.56,-0.62 2.60,-0.30 2.64,0.00 2.60,0.32 2.56,0.64 2.56,0.64 L 2.56,0.64 Z"></path></g><g stroke-linecap="round"><g stroke-opacity="0.9" fill-opacity="0.9" transform="translate(157.47771091630784 793.3058025800426) rotate(0 68.32641598373743 0.21051246732668005)"><path d="M-1.88 -1.33 C20.1 -1.58, 110.27 0.31, 133.29 0.05 M2.29 4.11 C25.02 2.99, 116.43 -2.98, 138.53 -3.69" stroke="#000000" stroke-width="1" fill="none"></path></g><g stroke-opacity="0.9" fill-opacity="0.9" transform="translate(157.47771091630784 793.3058025800426) rotate(0 68.32641598373743 0.21051246732668005)"><path d="M109 4.95 C123.8 5.48, 129.22 2.62, 142.5 -4.76 M110.84 6.57 C122.7 4.13, 131.04 1.77, 138 -2.55" stroke="#000000" stroke-width="1" fill="none"></path></g><g stroke-opacity="0.9" fill-opacity="0.9" transform="translate(157.47771091630784 793.3058025800426) rotate(0 68.32641598373743 0.21051246732668005)"><path d="M107.95 -15.55 C123.34 -7.82, 129.12 -3.51, 142.5 -4.76 M109.79 -13.92 C121.69 -9.03, 130.42 -4.08, 138 -2.55" stroke="#000000" stroke-width="1" fill="none"></path></g></g><g stroke-opacity="0.9" fill-opacity="0.9" stroke-linecap="round" transform="translate(330.7783673237975 723.9713065830329) rotate(0 60.82738271256267 85.31136065975761)"><path d="M-3.05 3.35 C44.28 0.24, 88.58 5.13, 120.59 2.27 M-1.43 1.75 C26.57 0.31, 55.19 -0.46, 122.8 -1.9 M123.3 3.81 C122.1 54.92, 117.23 114.94, 120.11 170.97 M122.64 -0.11 C119.86 66.08, 121.02 129.28, 119.71 170.47 M124.49 174.37 C90.18 169.14, 56.42 169.6, 1.88 171.32 M121.79 169.61 C76.17 172.1, 28.18 171.33, 0.38 170.25 M0.43 170.06 C-0.56 135.69, 0.57 99.69, 2.05 -2.26 M-0.77 168.84 C-1.66 107.1, -3.76 42.38, -1.81 -0.28" stroke="#000000" stroke-width="1" fill="none"></path></g><g stroke-opacity="0.9" fill-opacity="0.9" transform="translate(333.9580635700854 690.4873286358379) rotate(0 56.5 12.5)"><text x="56.5" y="18" font-family="Virgil, Segoe UI Emoji" font-size="20px" fill="#000000" text-anchor="middle" style="white-space: pre;" direction="ltr">Contract A</text></g><g stroke-opacity="0.9" fill-opacity="0.9" transform="translate(161.18765578429543 750.6403329026498) rotate(0 57.5 12.5)"><text x="57.5" y="18" font-family="Virgil, Segoe UI Emoji" font-size="20px" fill="#000000" text-anchor="middle" style="white-space: pre;" direction="ltr">transaction</text></g><g stroke-linecap="round"><g stroke-opacity="0.9" fill-opacity="0.9" transform="translate(486.38050001860074 764.1741381665729) rotate(0 81.78684032370774 1.6144166747503732)"><path d="M1.94 0.58 C29.25 1.45, 137.13 4.49, 164.02 4.8 M-0.45 -1.58 C26.36 -1.43, 132.85 -0.25, 161.11 0.91" stroke="#000000" stroke-width="1" fill="none"></path></g><g stroke-opacity="0.9" fill-opacity="0.9" transform="translate(486.38050001860074 764.1741381665729) rotate(0 81.78684032370774 1.6144166747503732)"><path d="M133.51 8.71 C144.36 4.39, 149.68 5.27, 160.45 -1.44 M134.54 9.26 C140.83 9.39, 148.59 4.1, 159.36 0.57" stroke="#000000" stroke-width="1" fill="none"></path></g><g stroke-opacity="0.9" fill-opacity="0.9" transform="translate(486.38050001860074 764.1741381665729) rotate(0 81.78684032370774 1.6144166747503732)"><path d="M134 -11.8 C144.64 -9.83, 149.81 -2.68, 160.45 -1.44 M135.03 -11.25 C141.38 -5.19, 149 -4.55, 159.36 0.57" stroke="#000000" stroke-width="1" fill="none"></path></g></g><g stroke-opacity="0.9" fill-opacity="0.9" transform="translate(496.0673095493356 719.9784198674802) rotate(0 63.00000000000006 12.500000000000057)"><text x="63" y="18" font-family="Virgil, Segoe UI Emoji" font-size="20px" fill="#000000" text-anchor="middle" style="white-space: pre;" direction="ltr">message call</text></g><g stroke-linecap="round"><g stroke-opacity="0.9" fill-opacity="0.9" transform="translate(652.4124754730167 824.3688773940016) rotate(0 -76.22516568555011 0.9155505308801821)"><path d="M-1.24 2.06 C-27.52 1.83, -130.43 -0.31, -155.73 -0.82 M3.28 0.71 C-22.28 0.88, -124.09 2.45, -150.38 2.65" stroke="#000000" stroke-width="1" fill="none"></path></g><g stroke-opacity="0.9" fill-opacity="0.9" transform="translate(652.4124754730167 824.3688773940016) rotate(0 -76.22516568555011 0.9155505308801821)"><path d="M-119.37 -10.71 C-133.06 -3.24, -143.66 -2.73, -150.8 4.56 M-122.3 -6.81 C-128.33 -7.51, -135.38 -4.29, -148.71 1.35" stroke="#000000" stroke-width="1" fill="none"></path></g><g stroke-opacity="0.9" fill-opacity="0.9" transform="translate(652.4124754730167 824.3688773940016) rotate(0 -76.22516568555011 0.9155505308801821)"><path d="M-119.12 9.81 C-133 9.7, -143.69 2.63, -150.8 4.56 M-122.06 13.71 C-128.52 8.8, -135.62 7.81, -148.71 1.35" stroke="#000000" stroke-width="1" fill="none"></path></g></g><g stroke-opacity="0.9" fill-opacity="0.9" transform="translate(531.1883040361342 844.6936825360044) rotate(0 34 12.5)"><text x="34" y="18" font-family="Virgil, Segoe UI Emoji" font-size="20px" fill="#000000" text-anchor="middle" style="white-space: pre;" direction="ltr">output</text></g><g stroke-opacity="0.9" fill-opacity="0.9" stroke-linecap="round" transform="translate(676.80583690564 721.6759336504833) rotate(0 60.82738271256267 85.31136065975761)"><path d="M-1.19 3.62 C24.8 -0.62, 51.99 3.42, 119.42 -0.35 M0.57 0.06 C42.76 -2.4, 85.39 -0.74, 123.07 -0.43 M119.26 0.3 C124.58 43.49, 119.94 90.25, 119.65 171.17 M122.66 -0.48 C119.8 49.57, 121.35 101.19, 121.3 170.17 M124.16 168.37 C81.93 167.24, 45.4 169.12, -1.9 171.26 M121.93 170.68 C76.87 168.03, 36.68 167.76, -0.08 170.8 M-2.6 172.69 C0.19 111.29, -0.02 58.6, 1.63 -3.71 M0.37 170.57 C-3.63 118.84, -1.78 66.4, 0.58 0.93" stroke="#000000" stroke-width="1" fill="none"></path></g><g stroke-opacity="0.9" fill-opacity="0.9" transform="translate(679.4855331519279 688.1919557032882) rotate(0 57 12.5)"><text x="57" y="18" font-family="Virgil, Segoe UI Emoji" font-size="20px" fill="#000000" text-anchor="middle" style="white-space: pre;" direction="ltr">Contract B</text></g><g stroke-opacity="0.9" fill-opacity="0.9" transform="translate(812.7933028438649 780.8058025800428) rotate(0 110 12.5)"><text x="110" y="18" font-family="Virgil, Segoe UI Emoji" font-size="20px" fill="#000000" text-anchor="middle" style="white-space: pre;" direction="ltr">Possible state change</text></g></svg>